<svg width="327" height="141" viewBox="0 0 327 141" fill="none" xmlns="http://www.w3.org/2000/svg">
<g clip-path="url(#clip0_2047_4932)">
<rect width="327" height="141" rx="16" fill="#301DA4"/>
<g opacity="0.5">
<path d="M1.47168 252.533C9.04718 225.882 38.8042 201.603 69.4059 197.052C83.9029 194.899 98.8087 196.589 112.597 190.321C127.53 183.509 136.931 169.093 141.537 155.441C146.142 141.789 147.286 127.973 152.409 114.375C157.532 100.778 168.105 86.5804 183.474 81.0214C194.238 77.1246 205.492 78.1056 216.392 75.0264C231.353 70.8026 243.751 59.4939 253.18 47.7764C262.581 36.0589 270.075 23.3332 280.675 12.3242C296.317 -3.91685 318.553 -15.5799 340.816 -19.2041" stroke="black" stroke-width="0.2725" stroke-miterlimit="10"/>
<path d="M-1.19873 246.92C4.46927 228.226 20.8465 210.732 40.739 200.295C49.0503 195.935 58.0155 192.801 67.0625 191.412C76.1095 190.022 85.32 190.158 94.2308 189.15C99.6808 188.55 104.995 187.515 110.145 185.417C119.001 181.792 125.923 175.579 131.236 168.195C134.752 163.317 137.477 157.949 139.493 152.662C142.082 145.822 143.744 138.819 145.488 131.843C147.123 125.33 148.813 118.79 151.429 112.332C153.69 106.773 156.851 101.132 160.884 96.0638C166.607 88.8971 174.073 82.9021 183.066 79.8228C189.006 77.8063 195.056 77.2341 201.133 76.6618C206.119 76.1986 211.079 75.7353 215.984 74.5091C224.867 72.2473 232.852 67.6421 239.909 61.9196C244.733 58.0228 249.12 53.6083 253.044 49.0848C258.794 42.4631 263.862 35.4326 269.339 28.5383C273.045 23.8786 276.888 19.2461 281.248 14.8861C287.57 8.53682 294.818 2.81432 302.639 -2.00893C314.574 -9.42093 327.791 -14.7892 340.98 -17.3779" stroke="black" stroke-width="0.2725" stroke-miterlimit="10"/>
<path d="M-3.86914 241.333C2.12586 222.749 18.5304 205.336 38.3956 194.817C46.7069 190.403 55.6176 187.214 64.6919 185.77C73.7389 184.326 83.0311 184.408 91.9146 183.618C97.3646 183.127 102.624 182.337 107.692 180.511C116.44 177.35 123.252 171.764 128.757 164.815C132.381 160.237 135.242 155.06 137.422 149.909C140.229 143.26 142.082 136.421 144.017 129.554C145.815 123.15 147.668 116.692 150.42 110.342C152.791 104.865 156.061 99.306 160.203 94.3465C166.089 87.3433 173.637 81.5663 182.657 78.6778C188.625 76.7703 194.702 76.2798 200.751 75.8438C205.738 75.4895 210.697 75.1353 215.602 74.018C224.486 72.0288 232.47 67.805 239.61 62.464C244.46 58.8125 248.929 54.6978 252.935 50.4195C258.821 44.1793 264.053 37.4485 269.694 30.7723C273.509 26.2488 277.46 21.7525 281.847 17.447C288.251 11.2068 295.554 5.48426 303.347 0.579264C315.256 -6.94174 328.227 -12.5825 341.225 -15.5527" stroke="black" stroke-width="0.2725" stroke-miterlimit="10"/>
<path d="M-6.53955 235.72C-0.190301 217.217 16.2414 199.913 36.0522 189.313C44.3362 184.871 53.2469 181.601 62.3212 180.103C71.3954 178.604 80.7149 178.658 89.5712 178.086C95.0484 177.732 100.226 177.16 105.213 175.606C113.824 172.909 120.582 167.976 126.277 161.409C130.01 157.104 133.008 152.117 135.351 147.13C138.349 140.699 140.447 133.968 142.518 127.21C144.507 120.888 146.496 114.539 149.385 108.272C151.892 102.849 155.271 97.4262 159.495 92.5757C165.517 85.7359 173.174 80.2042 182.221 77.4792C188.189 75.7079 194.293 75.2992 200.342 74.9449C205.329 74.6724 210.289 74.4272 215.166 73.4734C224.023 71.7567 232.061 67.9144 239.228 62.9822C244.133 59.6032 248.657 55.7609 252.771 51.7279C258.766 45.8419 264.189 39.4382 269.993 32.9799C273.917 28.6199 277.95 24.2327 282.392 19.9817C288.905 13.8232 296.235 8.12794 303.974 3.16844C315.828 -4.46156 328.608 -10.4021 341.361 -13.7266" stroke="black" stroke-width="0.2725" stroke-miterlimit="10"/>
<path d="M-9.21045 230.106C-2.5342 211.685 13.9248 194.49 33.7355 183.808C42.0195 179.339 50.903 176.015 60.0045 174.461C69.0788 172.908 78.4801 172.963 87.2818 172.554C92.7591 172.309 97.882 171.954 102.787 170.674C111.262 168.466 117.965 164.161 123.824 158.002C127.666 153.997 130.827 149.201 133.307 144.323C136.495 138.083 138.784 131.488 141.073 124.866C143.199 118.653 145.379 112.359 148.404 106.227C151.02 100.886 154.508 95.5454 158.84 90.8311C164.999 84.1549 172.765 78.8411 181.839 76.2796C187.834 74.6174 193.938 74.3176 199.961 74.0724C204.947 73.8816 209.88 73.7726 214.757 72.9551C223.614 71.5109 231.652 68.0501 238.901 63.4994C243.833 60.3929 248.438 56.8231 252.662 53.0354C258.793 47.5309 264.352 41.4269 270.32 35.1866C274.326 30.9629 278.468 26.6846 282.991 22.5426C289.613 16.4931 296.971 10.7706 304.655 5.75663C316.482 -2.00962 329.044 -8.19537 341.579 -11.9014" stroke="black" stroke-width="0.2725" stroke-miterlimit="10"/>
<path d="M-11.8809 224.493C-4.87761 206.154 11.6086 189.068 31.3921 178.304C39.6489 173.808 48.5324 170.402 57.6339 168.794C66.7354 167.186 76.1639 167.213 84.9384 167.023C90.4156 166.914 95.4841 166.777 100.335 165.769C108.7 164.025 115.295 160.346 121.372 154.624C125.296 150.891 128.62 146.313 131.263 141.571C134.67 135.549 137.177 129.063 139.629 122.578C141.945 116.474 144.262 110.261 147.423 104.211C150.175 98.9521 153.772 93.6929 158.186 89.0876C164.508 82.5749 172.356 77.4792 181.458 75.1084C187.48 73.5552 193.584 73.3644 199.606 73.2281C204.593 73.1464 209.525 73.1191 214.403 72.4651C223.232 71.2934 231.298 68.2141 238.601 64.0449C243.588 61.2109 248.248 57.9137 252.553 54.3712C258.821 49.2209 264.543 43.4439 270.674 37.4216C274.789 33.3614 279.013 29.1921 283.591 25.1046C290.322 19.1369 297.706 13.4417 305.336 8.37315C317.108 0.497901 329.453 -5.96035 341.797 -10.0479" stroke="black" stroke-width="0.2725" stroke-miterlimit="10"/>
<path d="M-14.5786 218.906C-7.24836 200.676 9.26514 183.672 29.0486 172.827C37.3054 168.303 46.1344 164.815 55.2631 163.18C64.3646 161.545 73.8749 161.382 82.5949 161.518C88.0721 161.627 93.0861 161.627 97.8549 160.891C106.084 159.61 112.597 156.586 118.865 151.245C122.898 147.811 126.358 143.397 129.165 138.819C132.762 133.014 135.487 126.665 138.103 120.261C140.583 114.266 143.063 108.135 146.387 102.195C149.276 97.017 152.954 91.8395 157.478 87.3705C163.936 80.994 171.893 76.1435 181.022 73.9635C187.071 72.5465 193.175 72.383 199.198 72.4103C204.184 72.4375 209.117 72.492 213.967 71.9743C222.796 71.0478 230.862 68.3773 238.247 64.6168C243.261 62.0553 248.03 59.0305 252.417 55.7333C258.793 50.9373 264.707 45.4873 271.001 39.7103C275.225 35.8135 279.531 31.726 284.163 27.7203C290.976 21.8343 298.415 16.139 305.99 11.016C317.735 3.00453 329.861 -3.72622 341.96 -8.16797" stroke="black" stroke-width="0.2725" stroke-miterlimit="10"/>
<path d="M-17.249 213.293C-9.59177 195.145 6.97623 178.25 26.7052 167.322C34.9347 162.772 43.7637 159.202 52.9197 157.512C62.0485 155.823 71.6132 155.768 80.2787 155.986C85.7832 156.123 90.6882 156.45 95.4025 155.959C103.496 155.142 109.927 152.771 116.385 147.839C120.527 144.678 124.097 140.481 127.121 136.039C130.909 130.426 133.852 124.213 136.659 117.945C139.302 112.032 141.973 106.01 145.406 100.151C148.404 95.0282 152.191 89.9597 156.824 85.5997C163.418 79.3867 171.484 74.7542 180.64 72.7377C186.717 71.4297 192.848 71.4025 198.843 71.5115C203.83 71.5932 208.735 71.8112 213.586 71.4297C222.387 70.7757 230.481 68.4867 237.92 65.1077C242.961 62.8187 247.812 60.0664 252.308 57.0144C258.821 52.5999 264.87 47.4497 271.328 41.8907C275.661 38.1302 280.048 34.179 284.735 30.255C291.657 24.478 299.123 18.7827 306.644 13.6052C318.362 5.4847 330.27 -1.51855 342.151 -6.3418" stroke="black" stroke-width="0.2725" stroke-miterlimit="10"/>
<path d="M-19.9194 207.679C-11.9079 189.612 4.66006 172.853 24.3618 161.79C32.5641 157.185 41.3931 153.588 50.5491 151.816C59.7051 150.072 69.2971 149.991 77.9353 150.427C83.4398 150.699 88.2903 151.217 92.9228 151.026C100.907 150.699 107.229 148.955 113.905 144.404C118.129 141.543 121.862 137.51 125.051 133.232C129.029 127.836 132.19 121.732 135.188 115.601C138.022 109.797 140.828 103.856 144.398 98.1067C147.532 93.0654 151.429 88.106 156.143 83.855C162.901 77.8055 171.076 73.391 180.232 71.5652C186.336 70.3662 192.467 70.4207 198.435 70.6659C203.422 70.8567 208.327 71.1564 213.15 70.9384C221.952 70.5297 230.018 68.6495 237.566 65.652C242.662 63.6355 247.567 61.1557 252.145 58.3217C258.766 54.2615 265.007 49.4382 271.628 44.0972C276.07 40.5002 280.539 36.6307 285.308 32.7885C292.311 27.0932 299.805 21.4252 307.299 16.166C318.962 7.93646 330.652 0.660711 342.315 -4.57129" stroke="black" stroke-width="0.2725" stroke-miterlimit="10"/>
<path d="M-22.5898 202.066C-14.2513 184.081 2.3439 167.431 22.0457 156.286C30.2479 151.653 39.0496 147.975 48.2056 146.176C57.3616 144.378 67.0354 144.296 75.6191 144.895C81.1236 145.277 85.9196 146.04 90.4704 146.122C98.3184 146.258 104.559 145.141 111.426 141.026C115.731 138.437 119.628 134.622 122.98 130.453C127.149 125.248 130.528 119.28 133.716 113.258C136.714 107.563 139.684 101.704 143.39 96.0633C146.66 91.1038 150.638 86.226 155.462 82.1113C162.356 76.2253 170.64 72.0288 179.823 70.3665C185.927 69.2765 192.086 69.44 198.053 69.767C203.04 70.0395 207.945 70.4483 212.768 70.3938C221.57 70.2575 229.636 68.7588 237.239 66.1428C242.362 64.3988 247.321 62.1915 252.036 59.6028C258.794 55.924 265.197 51.4005 271.955 46.2775C276.506 42.8168 281.084 39.0835 285.88 35.2958C292.992 29.7095 300.513 24.0143 307.98 18.7278C319.616 10.362 331.088 2.81379 342.533 -2.77246" stroke="black" stroke-width="0.2725" stroke-miterlimit="10"/>
<path d="M-25.2603 196.453C-16.5948 178.577 0.0277477 162.009 19.7022 150.782C27.8772 146.122 36.6517 142.361 45.8622 140.508C55.0455 138.655 64.7465 138.546 73.303 139.364C78.8075 139.882 83.549 140.863 88.0453 141.19C95.7843 141.789 101.888 141.326 108.973 137.62C113.361 135.331 117.421 131.679 120.936 127.674C125.296 122.687 128.893 116.828 132.245 110.942C135.433 105.356 138.539 99.579 142.382 94.02C145.761 89.1422 149.848 84.3462 154.78 80.3405C161.811 74.5907 170.204 70.6395 179.387 69.168C185.519 68.187 191.677 68.4595 197.645 68.8955C202.632 69.277 207.509 69.7947 212.333 69.8492C221.107 69.9855 229.2 68.8682 236.885 66.661C242.035 65.1622 247.076 63.2547 251.899 60.9112C258.766 57.5867 265.334 53.3902 272.283 48.5125C276.942 45.2152 281.602 41.591 286.453 37.8577C293.674 32.3532 301.249 26.6852 308.634 21.317C320.242 12.8695 331.497 5.02146 342.696 -0.946289" stroke="black" stroke-width="0.2725" stroke-miterlimit="10"/>
<path d="M-27.9307 190.866C-18.9382 173.072 -2.28842 156.613 17.3861 145.304C25.5611 140.617 34.3083 136.802 43.5188 134.895C52.7021 132.987 62.4848 132.878 70.9868 133.859C76.5186 134.513 81.1783 135.685 85.5928 136.312C93.1956 137.374 99.2178 137.538 106.521 134.241C111.017 132.224 115.214 128.791 118.892 124.921C123.443 120.125 127.285 114.43 130.801 108.626C134.152 103.121 137.422 97.4258 141.401 92.0031C144.916 87.2071 149.113 82.5201 154.127 78.6233C161.321 73.0371 169.795 69.3038 179.006 68.0231C185.164 67.1783 191.323 67.5053 197.291 68.0776C202.277 68.5408 207.155 69.1676 211.951 69.3856C220.726 69.7943 228.819 69.0586 236.558 67.2328C241.763 66.0066 246.858 64.3443 251.791 62.2733C258.794 59.3031 265.525 55.4336 272.637 50.7738C277.378 47.6401 282.147 44.0976 287.079 40.4733C294.41 35.0506 301.985 29.4098 309.343 23.9598C320.924 15.3761 331.933 7.28284 342.942 0.933594" stroke="black" stroke-width="0.2725" stroke-miterlimit="10"/>
<path d="M-30.6016 185.253C-21.2821 167.54 -4.57782 151.19 15.0422 139.8C23.1899 135.086 31.9372 131.189 41.1477 129.227C50.3582 127.265 60.1954 127.129 68.6429 128.328C74.1747 129.118 78.7799 130.508 83.1127 131.38C90.5792 132.906 96.4924 133.723 104.013 130.835C108.591 129.091 112.924 125.848 116.794 122.142C121.535 117.564 125.595 111.978 129.301 106.31C132.817 100.914 136.277 95.3007 140.365 89.9597C144.016 85.2182 148.295 80.6402 153.418 76.8524C160.748 71.4297 169.332 67.9144 178.569 66.7972C184.755 66.0614 190.941 66.4974 196.881 67.1787C201.868 67.7509 206.746 68.4867 211.515 68.8409C220.262 69.4949 228.382 69.1407 236.203 67.7237C241.435 66.7699 246.613 65.3802 251.627 63.5544C258.739 60.9657 265.66 57.3959 272.909 52.9542C277.759 49.9567 282.61 46.5504 287.597 42.9807C295.009 37.6669 302.639 32.0262 309.942 26.5217C321.468 17.8289 332.287 9.43592 343.05 2.73242" stroke="black" stroke-width="0.2725" stroke-miterlimit="10"/>
<path d="M-33.272 179.639C-23.6255 162.035 -6.89397 145.767 12.6988 134.295C20.8465 129.553 29.5665 125.575 38.8043 123.558C48.0148 121.542 57.9065 121.406 66.3268 122.795C71.8585 123.695 76.4093 125.33 80.6603 126.474C88.0178 128.491 93.7948 129.908 101.561 127.455C106.221 125.984 110.717 122.959 114.75 119.362C119.682 114.975 123.961 109.525 127.83 103.993C131.536 98.7065 135.133 93.1747 139.384 87.9427C143.145 83.283 147.559 78.7867 152.764 75.1352C160.258 69.876 168.923 66.5787 178.188 65.6522C184.401 65.0255 190.587 65.5705 196.5 66.3607C201.487 67.0147 206.365 67.8595 211.133 68.3772C219.881 69.3037 228.001 69.331 235.876 68.2955C241.135 67.6142 246.395 66.497 251.518 64.9165C258.739 62.682 265.824 59.4392 273.263 55.2155C278.223 52.3815 283.155 49.057 288.196 45.569C295.717 40.337 303.375 34.6962 310.623 29.1372C322.122 20.3355 332.723 11.67 343.269 4.58496" stroke="black" stroke-width="0.2725" stroke-miterlimit="10"/>
<path d="M-35.9697 174.026C-25.969 156.504 -9.23748 140.345 10.3553 128.791C18.4758 123.995 27.1685 119.962 36.4335 117.918C45.6713 115.847 55.6175 115.684 63.9833 117.264C69.515 118.3 74.0113 120.125 78.1805 121.57C85.4018 124.049 91.0698 126.093 99.054 124.049C103.796 122.85 108.455 120.016 112.679 116.583C117.802 112.414 122.298 107.073 126.359 101.65C130.228 96.4723 133.989 91.0223 138.376 85.872C142.273 81.294 146.769 76.8795 152.083 73.3643C159.713 68.2685 168.487 65.1893 177.779 64.4535C184.02 63.963 190.205 64.5625 196.119 65.4618C201.105 66.2248 205.956 67.1785 210.725 67.8325C219.472 69.0315 227.565 69.4403 235.549 68.8135C240.863 68.4048 246.177 67.56 251.409 66.2248C258.739 64.3445 266.015 61.4288 273.617 57.423C278.686 54.7253 283.727 51.537 288.796 48.1035C296.426 42.9805 304.11 37.3398 311.304 31.7263C322.777 22.7883 333.132 13.8775 343.459 6.38379" stroke="black" stroke-width="0.2725" stroke-miterlimit="10"/>
<path d="M-38.6401 168.412C-28.3124 150.972 -11.5536 134.921 8.01186 123.286C16.1051 118.462 24.7979 114.375 34.0629 112.249C43.3279 110.151 53.3286 109.96 61.6671 111.732C67.2261 112.903 71.6406 114.947 75.7554 116.637C82.8404 119.58 88.3994 122.223 96.6016 120.642C101.425 119.716 106.221 117.1 110.635 113.803C115.949 109.824 120.691 104.647 124.914 99.333C128.975 94.2645 132.871 88.8962 137.395 83.855C141.428 79.3587 146.033 75.0532 151.429 71.6197C159.222 66.6875 168.078 63.8262 177.398 63.254C183.638 62.8725 189.851 63.581 195.764 64.5892C200.751 65.434 205.602 66.4967 210.343 67.287C219.063 68.7585 227.184 69.5487 235.222 69.3035C240.563 69.14 245.959 68.595 251.273 67.505C258.739 65.979 266.178 63.3902 273.917 59.6297C279.095 57.0955 284.218 54.0162 289.368 50.6645C297.107 45.6232 304.819 40.0097 311.958 34.3145C323.376 25.2675 333.54 16.057 343.65 8.20898" stroke="black" stroke-width="0.2725" stroke-miterlimit="10"/>
<path d="M-41.3105 162.826C-30.6558 145.468 -13.8425 129.527 5.66845 117.809C13.7617 112.959 22.4272 108.789 31.6922 106.637C40.9572 104.484 51.0125 104.293 59.3237 106.228C64.8827 107.536 69.2427 109.798 73.2757 111.76C80.2517 115.166 85.7017 118.436 94.122 117.264C99.027 116.583 103.986 114.185 108.564 111.051C114.069 107.263 119.028 102.222 123.443 97.0173C127.667 92.0306 131.754 86.7713 136.387 81.8391C140.556 77.4246 145.243 73.2008 150.72 69.9036C158.65 65.1348 167.615 62.4916 176.962 62.1101C183.229 61.8376 189.442 62.6551 195.356 63.7723C200.342 64.7261 205.193 65.8978 209.934 66.8243C218.654 68.5683 226.775 69.7128 234.895 69.8763C240.264 69.9853 245.741 69.6856 251.164 68.8681C258.739 67.6963 266.342 65.4346 274.272 61.8921C279.558 59.5213 284.763 56.5238 289.968 53.2538C297.788 48.3216 305.555 42.6808 312.667 36.9583C324.057 27.7751 334.004 18.3193 343.868 10.0898" stroke="black" stroke-width="0.2725" stroke-miterlimit="10"/>
<path d="M-43.9814 157.212C-32.9997 139.963 -16.1592 124.103 3.35181 112.304C11.4178 107.426 20.0833 103.175 29.3756 100.968C38.6678 98.7608 48.7776 98.5428 57.0343 100.696C62.5933 102.14 66.8988 104.592 70.8501 106.854C77.6898 110.724 83.0308 114.593 91.6691 113.885C96.6558 113.476 101.752 111.269 106.52 108.271C112.216 104.701 117.393 99.769 121.971 94.7005C126.386 89.8228 130.609 84.6453 135.378 79.7948C139.656 75.4348 144.48 71.32 150.039 68.1318C158.132 63.5265 167.206 61.1285 176.553 60.9105C182.848 60.7743 189.061 61.6735 194.947 62.8998C199.933 63.9353 204.757 65.216 209.498 66.306C218.191 68.2953 226.339 69.8485 234.514 70.4208C239.936 70.8023 245.441 70.775 251 70.2028C258.684 69.3853 266.478 67.4505 274.571 64.126C279.967 61.8915 285.253 59.0303 290.512 55.8148C298.442 50.9915 306.208 45.3235 313.293 39.5465C324.629 30.227 334.358 20.526 344.031 11.915" stroke="black" stroke-width="0.2725" stroke-miterlimit="10"/>
<path d="M-46.6519 151.599C-35.3431 134.431 -18.4754 118.681 1.00839 106.8C9.07439 101.895 17.7126 97.5895 27.0049 95.3005C36.2971 93.0387 46.4614 92.8207 54.6909 95.137C60.2499 96.7175 64.4736 99.388 68.3704 101.895C75.1011 106.255 80.3059 110.697 89.1894 110.451C94.2579 110.315 99.5171 108.326 104.449 105.465C110.308 102.086 115.731 97.317 120.5 92.3575C125.078 87.5887 129.465 82.493 134.37 77.7515C138.784 73.4732 143.689 69.4675 149.357 66.3882C157.587 61.9192 166.77 59.7665 176.144 59.712C182.466 59.6847 188.706 60.6657 194.565 62.0282C199.552 63.1727 204.375 64.5352 209.089 65.7887C217.782 68.0505 225.93 69.9852 234.187 70.939C239.637 71.5657 245.223 71.8382 250.864 71.484C258.684 71.0207 266.641 69.413 274.871 66.3065C280.375 64.2355 285.744 61.4832 291.085 58.3495C299.123 53.608 306.917 47.9672 313.947 42.1357C325.229 32.7072 334.766 22.7065 344.222 13.7412" stroke="black" stroke-width="0.2725" stroke-miterlimit="10"/>
<path d="M-49.3223 145.986C-37.6593 128.9 -20.7915 113.258 -1.30776 101.296C6.73099 96.3362 15.342 91.9762 24.6615 89.6599C33.981 87.3437 44.1997 87.1257 52.3747 89.6327C57.961 91.3494 62.103 94.2379 65.918 97.0174C72.5125 101.841 77.6082 107.318 86.7097 107.073C91.86 106.936 97.2827 105.41 102.378 102.713C108.428 99.5244 114.096 94.8919 119.028 90.0414C123.77 85.3817 128.348 80.3677 133.389 75.7079C137.94 71.5114 142.954 67.5874 148.703 64.6444C157.096 60.3389 166.361 58.4314 175.735 58.5404C182.085 58.6494 188.325 59.7122 194.184 61.1564C199.171 62.3827 203.994 63.8814 208.681 65.2439C217.346 67.8054 225.494 70.0672 233.832 71.4297C239.31 72.329 244.978 72.8467 250.727 72.7649C258.657 72.6559 266.778 71.3752 275.198 68.4867C280.784 66.5519 286.289 63.9087 291.657 60.8567C299.805 56.2242 307.625 50.5562 314.601 44.6702C325.856 35.1054 335.175 24.8594 344.386 15.5127" stroke="black" stroke-width="0.2725" stroke-miterlimit="10"/>
<path d="M-51.9927 140.399C-40.0027 123.395 -23.1077 107.89 -3.65118 95.8182C4.38757 90.8314 12.9713 86.3897 22.3181 84.0189C31.6648 81.6482 41.9108 81.4302 50.0586 84.1279C55.6448 85.9809 59.7323 89.0602 63.4928 92.1394C69.9511 97.4259 74.9651 103.067 84.2573 103.721C89.4893 104.075 95.0483 102.522 100.335 99.9874C106.575 96.9899 112.461 92.4937 117.557 87.7794C122.489 83.2287 127.203 78.2964 132.381 73.7457C137.068 69.6309 142.164 65.8159 148.022 62.9547C156.552 58.8399 165.926 57.1232 175.327 57.3957C181.703 57.6137 187.944 58.7854 193.802 60.3387C198.789 61.6739 203.585 63.2817 208.299 64.7804C216.965 67.5872 225.113 70.2577 233.533 72.0017C239.037 73.1462 244.787 73.9637 250.646 74.1272C258.685 74.3724 266.996 73.4187 275.552 70.7754C281.248 69.0042 286.834 66.4699 292.257 63.4724C300.513 58.9489 308.361 53.2809 315.283 47.3404C326.483 37.6667 335.584 27.1482 344.604 17.4199" stroke="black" stroke-width="0.2725" stroke-miterlimit="10"/>
<path d="M-54.6904 134.786C-42.3734 117.891 -25.4239 102.467 -6.02193 90.3139C1.98957 85.2999 10.5733 80.7764 19.9201 78.3784C29.2668 75.9532 39.5946 75.7352 47.6878 78.5964C53.2741 80.5857 57.3071 83.8829 60.9858 87.2074C67.3351 92.9572 72.2128 99.1974 81.7503 100.287C87.0641 100.914 92.7866 99.5517 98.2638 97.1537C104.695 94.3469 110.799 90.0142 116.085 85.4089C121.181 80.9672 126.059 76.1167 131.373 71.6477C136.169 67.6147 141.401 63.8814 147.341 61.1564C156.034 57.2052 165.49 55.7064 174.918 56.1697C181.295 56.4967 187.562 57.7774 193.421 59.4397C198.408 60.8839 203.204 62.5734 207.891 64.2356C216.556 67.3149 224.704 70.3397 233.179 72.5197C238.738 73.9367 244.542 74.9994 250.482 75.4354C258.657 76.0349 267.132 75.4082 275.852 72.9829C281.656 71.3479 287.324 68.9499 292.802 66.0069C301.167 61.5651 309.043 55.9244 315.91 49.9022C327.082 40.1194 335.966 29.3284 344.74 19.1914" stroke="black" stroke-width="0.2725" stroke-miterlimit="10"/>
<path d="M-57.3608 129.172C-44.7168 112.359 -27.7401 97.0443 -8.33809 84.809C-0.32659 79.7678 8.22991 75.1898 17.5767 72.71C26.9507 70.2303 37.3057 69.985 45.3717 73.0643C50.9579 75.1898 54.9364 78.705 58.5334 82.302C64.7464 88.515 69.5424 95.3275 79.2707 96.908C84.6934 97.78 90.5249 96.6355 96.1929 94.401C102.787 91.785 109.164 87.5885 114.614 83.0923C119.9 78.7595 124.942 73.9908 130.364 69.6308C135.297 65.6795 140.61 62.0553 146.66 59.412C155.489 55.6243 165.054 54.3435 174.509 54.9975C180.913 55.4608 187.181 56.8233 193.012 58.5945C197.999 60.1205 202.795 61.9463 207.455 63.7448C216.093 67.0965 224.268 70.5028 232.824 73.0643C238.411 74.7538 244.297 76.089 250.346 76.7703C258.63 77.724 267.268 77.4243 276.179 75.217C282.092 73.7455 287.842 71.4565 293.401 68.5953C301.849 64.2625 309.751 58.5945 316.591 52.545C327.736 42.626 336.402 31.5625 344.958 21.0713" stroke="black" stroke-width="0.2725" stroke-miterlimit="10"/>
<path d="M-60.0312 123.559C-47.0603 106.827 -30.0563 91.6219 -10.6815 79.2776C-2.69726 74.2091 5.832 69.5494 15.2332 67.0151C24.6072 64.4809 35.044 64.2356 43.0555 67.4784C48.6417 69.7401 52.5657 73.4461 56.081 77.3429C62.185 84.0464 66.872 91.4311 76.8182 93.4749C82.3227 94.5921 88.3177 93.6656 94.1492 91.5946C100.934 89.1694 107.529 85.1364 113.17 80.7491C118.647 76.5254 123.824 71.8384 129.383 67.5874C134.452 63.7179 139.875 60.1754 146.006 57.6684C154.998 54.0441 164.645 52.9814 174.128 53.7989C180.559 54.3711 186.826 55.8426 192.658 57.7229C197.645 59.3579 202.413 61.2654 207.1 63.2274C215.739 66.8516 223.914 70.6121 232.525 73.5824C238.165 75.5171 244.106 77.1249 250.264 78.0786C258.685 79.3594 267.486 79.4139 276.533 77.4246C282.556 76.1166 288.414 73.9094 294.001 71.1299C302.557 66.8789 310.487 61.2381 317.299 55.1069C328.39 45.0789 336.838 33.7429 345.176 22.8701" stroke="black" stroke-width="0.2725" stroke-miterlimit="10"/>
<path d="M-62.7021 117.945C-49.3769 101.322 -32.3729 86.1985 -12.9981 73.7725C-5.04115 68.6767 3.4881 63.9352 12.8894 61.3737C22.2906 58.8122 32.7546 58.5397 40.7389 61.9732C46.3251 64.3712 50.1946 68.2952 53.6554 72.4372C59.6231 79.604 64.2284 87.5882 74.3654 90.068C79.9516 91.4577 86.1101 90.722 92.1051 88.8145C99.0811 86.58 105.894 82.6832 111.698 78.405C117.339 74.2902 122.68 69.685 128.375 65.5157C133.58 61.728 139.084 58.2672 145.324 55.8965C154.453 52.4085 164.209 51.591 173.719 52.5992C180.177 53.2805 186.472 54.8337 192.276 56.823C197.263 58.5397 202.032 60.5835 206.691 62.6545C215.302 66.5512 223.505 70.666 232.197 74.0722C237.865 76.2522 243.888 78.1597 250.155 79.3587C258.684 80.9937 267.677 81.348 276.887 79.604C283.019 78.4322 288.959 76.3612 294.6 73.6362C303.265 69.4942 311.222 63.8262 317.98 57.6677C329.044 47.5035 337.273 35.9222 345.394 24.668" stroke="black" stroke-width="0.2725" stroke-miterlimit="10"/>
<path d="M-65.3726 112.359C-51.7203 95.8183 -34.6618 80.8036 -15.3416 68.2958C-7.38456 63.1456 1.11744 58.3768 10.5187 55.7336C19.9199 53.1176 30.4384 52.8723 38.3954 56.4421C43.9817 58.9763 47.7967 63.1183 51.1757 67.5328C57.0072 75.1628 61.5307 83.7193 71.8584 86.6896C77.5537 88.3246 83.8212 87.8068 90.0069 86.0628C97.1737 84.0191 104.231 80.2586 110.199 76.1166C116.003 72.0836 121.535 67.5873 127.339 63.5271C132.68 59.8211 138.294 56.4421 144.616 54.1803C153.881 50.8558 163.773 50.2563 173.283 51.4553C179.768 52.2728 186.063 53.9078 191.867 56.0061C196.854 57.8318 201.623 59.9573 206.255 62.1918C214.866 66.3338 223.069 70.8573 231.816 74.6451C237.538 77.0976 243.615 79.2503 249.964 80.7218C258.63 82.6838 267.759 83.3923 277.16 81.8936C283.4 80.8853 289.422 78.9233 295.145 76.2528C303.919 72.1926 311.904 66.5518 318.607 60.3116C329.643 50.0383 337.655 38.1573 345.53 26.5488" stroke="black" stroke-width="0.2725" stroke-miterlimit="10"/>
<path d="M-68.043 106.745C-54.0637 90.2859 -36.978 75.3802 -17.685 62.7907C-9.75522 57.6132 -1.25321 52.7627 8.17529 50.0922C17.6038 47.4217 28.1768 47.1492 36.0793 50.9369C51.3665 58.2399 52.7563 77.9144 69.406 83.3099C81.8865 87.3702 97.2828 81.3207 108.755 73.7997C120.227 66.2787 130.528 56.9319 143.962 52.4357C159.822 47.1219 177.207 49.6834 191.486 55.1334C205.765 60.5834 217.919 68.7312 231.489 75.1622C245.06 81.5659 260.946 86.3347 277.487 84.0729C293.565 81.8929 308.28 73.2819 319.261 62.8724C330.243 52.4629 338.037 40.3367 345.721 28.3467" stroke="black" stroke-width="0.2725" stroke-miterlimit="10"/>
<path d="M-65.6177 105.246C-51.8292 88.9508 -35.0159 74.1813 -16.0227 61.619C-7.90217 56.2508 0.845081 51.2913 10.4916 48.648C19.8656 46.0865 30.3023 45.8685 38.1503 49.6018C53.2741 56.7958 55.0181 75.9525 71.4498 81.348C81.4506 84.6453 93.2771 81.5388 103.523 76.3885C105.948 75.1623 108.292 73.827 110.499 72.4373C121.944 65.1888 132.217 56.0328 145.543 51.5365C154.59 48.4845 164.1 47.9123 173.256 48.9478C179.987 49.7108 186.499 51.3185 192.494 53.4713C206.637 58.5125 218.736 66.1425 232.198 72.2465C236.067 73.9905 240.127 75.5983 244.324 76.988C254.788 80.4215 266.151 82.3563 277.814 80.912C279.885 80.6668 281.929 80.2853 283.945 79.8493C297.461 76.7973 309.751 69.4943 319.37 60.747C330.352 50.719 338.309 38.838 345.939 26.957" stroke="black" stroke-width="0.2725" stroke-miterlimit="10"/>
<path d="M-63.165 103.748C-49.5673 87.5886 -33.0265 72.9554 -14.333 60.4476C-6.04904 54.8886 2.97071 49.7929 12.8625 47.2041C22.182 44.7516 32.4825 44.5609 40.3032 48.2396C55.2907 55.2974 57.3889 73.9909 73.5754 79.3591C83.4672 82.6564 95.1575 79.7951 105.349 74.8356C107.774 73.6639 110.09 72.3831 112.298 71.0206C123.688 64.0174 133.961 55.1066 147.15 50.5831C156.088 47.5039 165.49 46.8226 174.537 47.6674C181.158 48.2941 187.617 49.7384 193.557 51.7004C207.536 56.3056 219.581 63.4451 232.961 69.1949C236.803 70.8299 240.836 72.3831 245.005 73.6911C255.442 76.9611 266.669 78.9231 278.223 77.5879C280.267 77.3699 282.283 77.0156 284.272 76.6069C297.625 73.7729 309.887 66.8786 319.534 58.4311C330.543 48.7846 338.663 37.1216 346.212 25.3496" stroke="black" stroke-width="0.2725" stroke-miterlimit="10"/>
<path d="M-60.7402 102.222C-47.3332 86.2259 -31.0922 71.7017 -12.6985 59.2484C-4.25098 53.5259 5.06852 48.2939 15.151 45.7324C24.416 43.3889 34.5803 43.2527 42.3465 46.8769C57.1705 53.8257 59.623 72.0014 75.6188 77.3697C85.4288 80.6669 96.9555 78.0237 107.12 73.3094C109.518 72.1922 111.834 70.9387 114.041 69.6307C125.377 62.8727 135.678 54.1799 148.703 49.6564C157.56 46.5772 166.825 45.7869 175.763 46.4409C182.303 46.9314 188.679 48.2122 194.565 49.9834C208.408 54.1799 220.398 60.8017 233.642 66.2244C237.484 67.7777 241.462 69.2219 245.604 70.4754C255.987 73.5819 267.105 75.5439 278.522 74.3722C280.539 74.1814 282.555 73.8817 284.517 73.4729C297.734 70.8569 309.914 64.3714 319.615 56.2237C330.652 46.9587 338.908 35.5409 346.402 23.8779" stroke="black" stroke-width="0.2725" stroke-miterlimit="10"/>
<path d="M-58.2876 100.723C-45.0713 84.8911 -29.1028 70.4759 -11.0088 58.0499C-2.3706 52.1366 7.19415 46.7684 17.5219 44.2614C26.7324 42.0269 36.7604 41.9179 44.4721 45.4876C59.1599 52.3001 61.9394 70.0126 77.7171 75.3536C87.4454 78.6509 98.8087 76.2529 108.946 71.7294C111.344 70.6666 113.66 69.4676 115.84 68.2141C127.121 61.7014 137.422 53.2266 150.311 48.6759C159.058 45.5966 168.214 44.6701 177.043 45.1334C183.502 45.4876 189.796 46.6049 195.601 48.1854C209.28 51.9459 221.216 58.1044 234.377 63.1456C238.192 64.5899 242.171 65.9524 246.258 67.1514C256.586 70.1216 267.595 72.0564 278.877 71.0209C280.893 70.8301 282.855 70.5849 284.817 70.2306C297.897 67.8599 309.996 61.7559 319.752 53.9079C330.788 44.9971 339.208 33.8519 346.647 22.2979" stroke="black" stroke-width="0.2725" stroke-miterlimit="10"/>
<path d="M-55.8623 99.2243C-42.8368 83.5283 -27.1681 69.2493 -9.34655 56.8778C-0.5448 50.7738 9.29245 45.2693 19.8654 42.8168C29.0214 40.6913 38.9132 40.6368 46.5704 44.1521C61.1219 50.8556 64.2284 68.0503 79.8154 73.3913C89.4347 76.7158 100.689 74.5086 110.771 70.2031C113.142 69.1676 115.458 68.0503 117.638 66.8241C128.893 60.5838 139.166 52.2998 151.946 47.7491C160.612 44.6698 169.631 43.6071 178.351 43.9068C184.701 44.1248 190.914 45.0786 196.691 46.4683C210.234 49.7656 222.088 55.4881 235.168 60.1751C238.955 61.5376 242.907 62.8183 246.967 63.9356C257.24 66.7696 268.167 68.6771 279.313 67.8051C281.302 67.6416 283.264 67.4236 285.199 67.0966C298.115 64.9438 310.16 59.2486 319.942 51.6731C331.006 43.1438 339.59 32.2438 346.947 20.7988" stroke="black" stroke-width="0.2725" stroke-miterlimit="10"/>
<path d="M-53.437 97.7257C-40.6023 82.1932 -25.206 67.9959 -7.71151 55.7062C1.25374 49.3842 11.3635 43.7979 22.1545 41.3727C31.256 39.3289 40.9842 39.3562 48.6142 42.8169C63.0022 49.3842 66.463 66.1157 81.832 71.4294C91.3695 74.7539 102.46 72.7919 112.488 68.7044C114.859 67.7234 117.148 66.6334 119.328 65.4889C130.528 59.4939 140.801 51.4279 153.445 46.8772C162.001 43.7979 170.912 42.6262 179.496 42.7352C185.763 42.8442 191.895 43.6072 197.617 44.8334C211.024 47.7219 222.824 52.9267 235.795 57.2867C239.555 58.5402 243.479 59.7392 247.512 60.8019C257.731 63.4724 268.549 65.3799 279.558 64.6442C281.52 64.5079 283.482 64.3172 285.39 64.0447C298.17 62.1372 310.105 56.8234 319.97 49.5477C331.033 41.3727 339.781 30.7179 347.084 19.4092" stroke="black" stroke-width="0.2725" stroke-miterlimit="10"/>
<path d="M-50.9844 96.2273C-38.3404 80.831 -23.2439 66.77 -6.02188 54.5075C3.13412 47.9948 13.4891 42.2723 24.5254 39.9015C33.5724 37.9668 43.1644 38.0213 50.7671 41.4275C65.0189 47.8858 68.8066 64.0995 83.9576 69.4133C93.4134 72.7378 104.341 71.021 114.341 67.1243C116.685 66.1978 118.974 65.1623 121.154 64.045C132.299 58.2953 142.572 50.4473 155.08 45.8965C163.528 42.8173 172.329 41.5093 180.804 41.4275C186.99 41.4003 193.039 41.9998 198.707 43.0353C211.951 45.4878 223.723 50.202 236.585 54.2078C240.318 55.3795 244.215 56.4968 248.221 57.4778C258.385 60.012 269.094 61.8923 279.967 61.2928C281.902 61.1838 283.836 61.0203 285.744 60.775C298.388 59.1128 310.242 54.1805 320.161 47.2045C331.224 39.411 340.135 29.0015 347.383 17.8018" stroke="black" stroke-width="0.2725" stroke-miterlimit="10"/>
<path d="M-48.5591 94.701C-36.1058 79.4682 -21.3091 65.489 -4.35958 53.3082C4.95992 46.6047 15.5874 40.746 26.8417 38.4297C35.8342 36.5767 45.2899 36.713 52.8382 40.0647C66.9264 46.3867 71.0684 62.1372 86.0287 67.4237C95.3754 70.7755 106.194 69.2767 116.14 65.598C118.483 64.726 120.745 63.745 122.925 62.655C134.043 57.1777 144.289 49.5205 156.661 44.9425C165.026 41.8632 173.692 40.419 182.058 40.1737C188.134 39.983 194.129 40.419 199.716 41.291C212.823 43.3075 224.513 47.5312 237.293 51.21C241.027 52.2727 244.869 53.3082 248.847 54.2347C258.957 56.6055 269.557 58.4857 280.321 58.0497C282.256 57.968 284.163 57.8317 286.044 57.6137C298.551 56.1695 310.323 51.646 320.297 44.9697C331.36 37.5577 340.435 27.3935 347.629 16.3027" stroke="black" stroke-width="0.2725" stroke-miterlimit="10"/>
<path d="M-46.1069 93.202C-33.8444 78.1327 -19.3474 64.2352 -2.67043 52.1362C6.81257 45.242 17.7126 39.247 29.2121 36.9852C38.1501 35.2412 47.4696 35.4047 54.9633 38.702C68.9153 44.915 73.3843 60.1477 88.1266 65.4342C97.3916 68.786 108.046 67.5325 117.965 64.0445C120.282 63.227 122.543 62.2732 124.723 61.265C135.787 56.033 146.033 48.5937 158.268 44.0157C166.525 40.9365 175.081 39.356 183.338 38.9472C189.333 38.6475 195.246 38.8927 200.778 39.574C213.722 41.1545 225.385 44.8877 238.029 48.2122C241.735 49.1932 245.577 50.1197 249.501 50.9917C259.584 53.199 270.048 55.0792 280.675 54.7795C282.583 54.725 284.463 54.616 286.343 54.4525C298.687 53.2262 310.405 49.1115 320.433 42.735C331.524 35.6772 340.761 25.7582 347.846 14.8037" stroke="black" stroke-width="0.2725" stroke-miterlimit="10"/>
<path d="M-43.6816 91.7029C-31.6099 76.7699 -17.4126 62.9814 -1.03539 50.9369C8.61111 43.8519 19.8109 37.7207 31.5284 35.5134C40.3846 33.8512 49.5951 34.0964 57.0344 37.3392C70.8501 43.4159 75.6461 58.1854 90.1704 63.4447C99.3536 66.7964 109.845 65.7882 119.737 62.4909C122.053 61.7279 124.315 60.8287 126.467 59.8477C137.476 54.8609 147.722 47.6397 159.849 43.0617C168.024 39.9552 176.444 38.2929 184.564 37.6662C190.478 37.2302 196.282 37.3119 201.786 37.8297C214.594 39.0014 226.175 42.2169 238.737 45.2144C242.416 46.0864 246.231 46.9584 250.155 47.7487C260.183 49.8197 270.538 51.6727 281.029 51.5364C282.91 51.5092 284.79 51.4274 286.643 51.2912C298.851 50.3102 310.487 46.5769 320.542 40.5002C331.633 33.7967 341.034 24.1502 348.064 13.3047" stroke="black" stroke-width="0.2725" stroke-miterlimit="10"/>
<path d="M-41.229 90.2042C-29.348 75.4347 -15.4505 61.728 0.654247 49.7652C10.4642 42.4622 21.9365 36.2219 33.872 34.0964C42.6737 32.5159 51.748 32.8157 59.1327 36.0312C72.785 41.9989 77.9625 56.2507 92.2688 61.5099C101.343 64.8617 111.725 64.0714 121.535 61.0194C123.824 60.3109 126.086 59.4662 128.239 58.5397C139.193 53.7982 149.467 46.7949 161.429 42.2169C169.495 39.1104 177.807 37.3119 185.818 36.5217C191.65 35.9494 197.372 35.8677 202.822 36.1947C215.466 36.9304 227.02 39.6827 239.473 42.3259C243.125 43.1162 246.912 43.8792 250.809 44.6149C260.783 46.5224 271.056 48.3209 281.411 48.3754C283.291 48.3754 285.144 48.3482 286.97 48.2119C299.042 47.4489 310.568 44.1244 320.705 38.3474C331.796 32.0254 341.361 22.6242 348.337 11.8877" stroke="black" stroke-width="0.2725" stroke-miterlimit="10"/>
<path d="M-38.8037 88.7062C-27.1135 74.1002 -13.5157 60.4751 2.31654 48.5941C12.29 41.1004 24.0348 34.7239 36.2155 32.6529C44.9628 31.1814 53.9008 31.5357 61.231 34.6694C74.747 40.5009 80.2515 54.2894 94.3398 59.5214C103.332 62.9004 113.551 62.3281 123.334 59.4669C125.623 58.8129 127.857 57.9954 130.01 57.1234C140.91 52.6544 151.183 45.8691 163.01 41.2366C170.994 38.1301 179.169 36.2226 187.072 35.2416C192.794 34.5331 198.462 34.2879 203.83 34.4241C216.338 34.7239 227.81 36.9856 240.182 39.2746C243.833 39.9559 247.567 40.6644 251.436 41.3457C261.355 43.0897 271.519 44.9427 281.738 45.1062C283.591 45.1334 285.417 45.1334 287.243 45.0516C299.151 44.5066 310.623 41.5909 320.815 36.1137C331.905 30.1459 341.661 21.0171 348.555 10.3896" stroke="black" stroke-width="0.2725" stroke-miterlimit="10"/>
<path d="M-36.3784 87.2069C-24.8789 72.7372 -11.5809 59.1939 3.95158 47.3947C14.0886 39.6829 26.1058 33.1702 38.5318 31.1809C47.2246 29.7912 56.0263 30.1999 63.3293 33.3064C76.6818 39.0017 82.5406 52.2997 96.4381 57.5317C105.349 60.9107 115.404 60.5837 125.16 57.9132C127.421 57.2864 129.656 56.5507 131.809 55.7059C142.681 51.4822 152.927 44.9149 164.618 40.2824C172.493 37.1759 180.559 35.1322 188.352 33.9604C193.993 33.1157 199.579 32.7069 204.893 32.6524C217.237 32.5434 228.682 34.2874 240.945 36.2494C244.569 36.8217 248.302 37.4484 252.117 38.0752C262.009 39.6829 272.037 41.5087 282.12 41.8084C283.945 41.8629 285.771 41.8902 287.57 41.8357C299.342 41.5359 310.732 39.0017 320.978 33.8242C332.069 28.2107 341.988 19.3272 348.828 8.83594" stroke="black" stroke-width="0.2725" stroke-miterlimit="10"/>
<path d="M-33.9258 85.6816C-22.617 71.3753 -9.61879 57.9138 5.64121 46.1963C15.9417 38.2938 28.2315 31.6448 40.8755 29.71C49.5137 28.402 58.1792 28.8925 65.4277 31.9173C78.644 37.5035 84.8297 50.311 98.5092 55.5158C107.311 58.8948 117.23 58.7858 126.958 56.3605C129.22 55.7883 131.427 55.107 133.58 54.3168C144.398 50.3383 154.644 43.989 166.198 39.3565C173.992 36.25 181.921 34.07 189.579 32.7348C195.138 31.7538 200.615 31.1815 205.901 30.9363C218.109 30.3913 229.5 31.6448 241.626 33.2798C245.223 33.7703 248.929 34.288 252.717 34.8603C262.554 36.3045 272.473 38.1303 282.447 38.5663C284.245 38.648 286.044 38.7025 287.842 38.6753C299.478 38.5935 310.759 36.4408 321.06 31.563C332.151 26.331 342.233 17.6928 349.018 7.31055" stroke="black" stroke-width="0.2725" stroke-miterlimit="10"/>
<path d="M-31.5005 84.1826C-20.3825 70.0126 -7.71124 56.6329 7.30351 45.0244C17.7675 36.9039 30.3298 30.1186 43.219 28.2656C51.7755 27.0394 60.332 27.6116 67.526 30.5819C80.606 36.0319 87.1188 48.3489 100.58 53.5264C109.3 56.9326 119.056 57.0416 128.729 54.8071C130.964 54.2894 133.171 53.6354 135.324 52.8996C146.088 49.1664 156.334 43.0351 167.779 38.4026C175.463 35.2961 183.284 33.0071 190.832 31.4811C196.282 30.3639 201.705 29.6281 206.937 29.2194C218.981 28.2656 230.317 29.0014 242.362 30.2821C245.932 30.6636 249.61 31.0996 253.371 31.6174C263.154 32.8981 272.964 34.7239 282.801 35.3234C284.599 35.4324 286.371 35.5141 288.142 35.5414C299.614 35.6776 310.841 33.9336 321.196 29.3556C332.287 24.4779 342.533 16.1121 349.264 5.83887" stroke="black" stroke-width="0.2725" stroke-miterlimit="10"/>
<path d="M-29.0483 82.6835C-18.1483 68.677 -5.74959 55.379 8.96541 43.8523C19.5929 35.541 32.4277 28.6195 45.5349 26.821C54.0369 25.6765 62.4572 26.3032 69.5967 29.2462C82.5132 34.5872 89.3802 46.4137 102.651 51.564C111.289 54.9702 120.908 55.2973 130.528 53.2808C132.762 52.8175 134.942 52.218 137.095 51.5368C147.804 48.0488 158.05 42.1355 169.359 37.4758C176.934 34.3693 184.646 31.944 192.085 30.2273C197.454 29.001 202.795 28.0745 207.945 27.475C219.853 26.0852 231.135 26.3032 243.07 27.2842C246.64 27.584 250.291 27.9382 253.997 28.3742C263.726 29.5187 273.427 31.3445 283.128 32.053C284.899 32.1892 286.643 32.2983 288.414 32.3528C299.75 32.707 310.868 31.3445 321.305 27.0935C332.396 22.57 342.832 14.4768 349.481 4.3125" stroke="black" stroke-width="0.2725" stroke-miterlimit="10"/>
<path d="M-26.623 81.1854C-15.8865 67.3424 -3.84204 54.0989 10.6277 42.6539C21.4187 34.1246 34.526 27.0669 47.8785 25.3501C56.326 24.2601 64.5827 24.9959 71.695 27.8571C84.4752 33.0619 91.6692 44.3979 104.722 49.5481C113.251 52.9544 122.734 53.5266 132.326 51.7281C134.533 51.3194 136.713 50.7744 138.866 50.1204C149.521 46.8776 159.767 41.1824 170.939 36.5226C178.433 33.4161 186.009 30.8819 193.339 28.9744C198.625 27.6119 203.857 26.5219 208.98 25.7316C220.725 23.9331 231.952 23.6334 243.806 24.2601C247.348 24.4509 250.973 24.7234 254.651 25.1049C264.325 26.0859 273.944 27.9116 283.509 28.7836C285.253 28.9471 286.997 29.0834 288.714 29.1651C299.914 29.7646 310.95 28.7836 321.441 24.8324C332.532 20.6631 343.132 12.8151 349.727 2.78711" stroke="black" stroke-width="0.2725" stroke-miterlimit="10"/>
<path d="M-24.1704 79.6864C-13.6247 65.9797 -1.87991 52.8179 12.3173 41.4819C23.2718 32.7347 36.6516 25.5407 50.2493 23.9057C58.6423 22.8974 66.7628 23.6877 73.8206 26.5217C86.4373 31.6174 93.9856 42.4629 106.82 47.5859C115.268 50.9922 124.587 51.8097 134.152 50.2019C136.359 49.8477 138.539 49.3299 140.665 48.7304C151.265 45.7329 161.511 40.2557 172.547 35.5959C179.932 32.4622 187.399 29.8189 194.593 27.7479C199.77 26.2492 204.948 24.9957 210.016 24.0147C221.625 21.7802 232.797 20.9899 244.542 21.2897C248.057 21.3714 251.654 21.5622 255.306 21.8892C264.952 22.7067 274.435 24.5324 283.864 25.5407C285.608 25.7314 287.324 25.8949 289.014 26.0312C300.05 26.8487 311.005 26.2492 321.578 22.6249C332.641 18.8099 343.432 11.2344 349.972 1.31543" stroke="black" stroke-width="0.2725" stroke-miterlimit="10"/>
<path d="M-21.7451 78.1874C-11.3901 64.6442 0.0276274 51.5369 13.9524 40.3099C25.0431 31.3447 38.6954 24.0144 52.5384 22.4612C60.8496 21.5347 68.8611 22.4067 75.8916 25.1589C88.3721 30.1184 96.2746 40.4734 108.891 45.5964C117.257 49.0299 126.413 50.0382 135.951 48.6484C138.131 48.3214 140.311 47.8854 142.436 47.3404C153.009 44.5882 163.255 39.3289 174.128 34.6692C181.431 31.5354 188.761 28.7832 195.846 26.4942C200.942 24.8592 206.038 23.4422 211.024 22.2704C222.469 19.6272 233.615 18.4282 245.25 18.2919C248.738 18.2374 252.308 18.4009 255.932 18.6462C265.524 19.3002 274.898 21.1259 284.191 22.2977C285.907 22.5157 287.597 22.7064 289.286 22.8699C300.186 23.9054 311.059 23.7147 321.659 20.3902C332.723 16.9294 343.677 9.62641 350.163 -0.183594" stroke="black" stroke-width="0.2725" stroke-miterlimit="10"/>
<path d="M-19.3198 76.6611C-9.15558 63.2814 1.96242 50.2559 15.6147 39.0834C26.8689 29.9001 40.7937 22.4336 54.8819 20.9621C63.1387 20.1174 71.0139 21.0439 77.9899 23.7689C90.3342 28.6194 98.5637 38.4566 110.962 43.5796C119.219 47.0131 128.266 48.2666 137.722 47.0949C139.902 46.8224 142.055 46.4409 144.18 45.9231C154.699 43.4161 164.945 38.3749 175.708 33.7151C182.902 30.5814 190.124 27.6929 197.1 25.2404C202.114 23.4691 207.128 21.8886 212.06 20.5534C223.369 17.4741 234.432 15.6756 245.959 15.2941C249.447 15.1851 252.989 15.2124 256.559 15.4031C266.097 15.8936 275.362 17.7194 284.545 19.0274C286.234 19.2726 287.924 19.4906 289.586 19.7086C300.35 20.9621 311.114 21.1529 321.796 18.1554C332.859 15.0489 344.004 7.99113 350.408 -1.68262" stroke="black" stroke-width="0.2725" stroke-miterlimit="10"/>
<path d="M-16.8677 75.163C-6.89418 61.9195 3.89682 48.9757 17.3038 37.9122C28.7216 28.511 42.9188 20.9082 57.2251 19.5185C65.4273 18.7282 73.1663 19.7637 80.0878 22.4342C92.2686 27.1485 100.852 36.5225 113.06 41.6182C121.235 45.0517 130.119 46.5232 139.547 45.5695C141.7 45.3515 143.853 44.9972 145.978 44.5612C156.442 42.2995 166.688 37.5035 177.316 32.7892C184.428 29.6555 191.513 26.658 198.38 23.9875C203.285 22.1072 208.245 20.336 213.122 18.81C224.268 15.322 235.304 12.9785 246.722 12.2972C250.182 12.0792 253.698 12.0247 257.24 12.161C266.723 12.5152 275.879 14.341 284.926 15.758C286.588 16.0305 288.251 16.2757 289.913 16.521C300.513 17.9925 311.222 18.5647 321.959 15.8942C333.022 13.1147 344.331 6.35674 350.68 -3.20801" stroke="black" stroke-width="0.2725" stroke-miterlimit="10"/>
<path d="M-14.4424 73.664C-4.65963 60.584 5.80437 47.6947 18.9661 36.7402C30.5201 27.121 45.0171 19.3547 59.5686 18.1012C67.7164 17.3927 75.3191 18.4827 82.1861 21.0987C94.2306 25.704 103.141 34.5602 115.131 39.656C123.225 43.1167 131.945 44.779 141.346 44.0432C143.499 43.8797 145.624 43.58 147.75 43.1712C158.159 41.1547 168.405 36.5767 178.896 31.8625C185.9 28.7287 192.876 25.595 199.606 22.761C204.43 20.7445 209.28 18.8097 214.131 17.093C225.14 13.1962 236.094 10.335 247.43 9.32672C250.864 9.02697 254.352 8.86347 257.867 8.94522C267.323 9.13597 276.342 10.989 285.253 12.5422C286.915 12.842 288.55 13.1417 290.185 13.387C300.649 15.0765 311.25 16.0302 322.068 13.6595C333.131 11.2342 344.604 4.74872 350.898 -4.70703" stroke="black" stroke-width="0.2725" stroke-miterlimit="10"/>
<path d="M-11.9897 72.1649C-2.39775 59.2212 7.73925 46.4137 20.6285 35.5682C32.3188 25.7309 47.1155 17.8284 61.9123 16.6567C69.9783 16.0027 77.472 17.2017 84.2845 19.7632C96.1928 24.2322 105.431 32.6252 117.203 37.6937C125.187 41.1544 133.771 43.0619 143.145 42.5442C145.27 42.4079 147.396 42.1627 149.494 41.8084C159.849 40.0372 170.095 35.6772 180.45 30.9629C187.344 27.8292 194.211 24.5864 200.833 21.5617C205.574 19.4089 210.343 17.3107 215.112 15.4032C225.957 11.0704 236.885 7.7187 248.112 6.3562C251.545 5.94745 254.979 5.72944 258.467 5.72944C267.868 5.75669 276.779 7.60969 285.58 9.29919C287.215 9.62619 288.85 9.95319 290.458 10.2529C300.786 12.1604 311.304 13.4957 322.177 11.4519C333.241 9.38095 344.904 3.16795 351.117 -6.20605" stroke="black" stroke-width="0.2725" stroke-miterlimit="10"/>
<path d="M-9.56445 70.666C-0.163204 57.8858 9.64679 45.1055 22.2908 34.369C34.1445 24.2865 49.2138 16.2478 64.2285 15.185C72.24 14.6128 79.5975 15.8935 86.3828 18.4005C98.1275 22.7605 107.72 30.6358 119.301 35.7043C127.203 39.165 135.624 41.2905 144.943 40.9908C147.069 40.909 149.167 40.7183 151.265 40.4185C161.566 38.8925 171.812 34.7505 182.058 30.0363C188.87 26.9025 195.601 23.5235 202.114 20.308C206.773 18.019 211.46 15.7845 216.175 13.6863C226.884 8.97202 237.729 5.04802 248.875 3.38577C252.281 2.86802 255.714 2.56827 259.148 2.51377C268.495 2.35027 277.296 4.23052 285.962 6.08352C287.57 6.43777 289.177 6.79201 290.785 7.11901C300.977 9.24451 311.386 10.9613 322.313 9.24452C333.377 7.50052 345.203 1.56002 351.362 -7.67773" stroke="black" stroke-width="0.2725" stroke-miterlimit="10"/>
<path d="M-7.11182 69.1677C2.09868 56.5509 11.5817 43.8252 23.9804 33.1977C35.9704 22.8972 51.3394 14.7222 66.5994 13.7412C74.5564 13.2234 81.7777 14.5859 88.5084 17.0384C100.117 21.2622 110.036 28.6742 121.399 33.7154C129.22 37.2034 137.504 39.5469 146.769 39.4379C148.867 39.4107 150.965 39.2744 153.064 39.0019C163.31 37.7212 173.556 33.7972 183.665 29.0557C190.369 25.9219 196.991 22.4339 203.394 19.0277C207.945 16.6024 212.578 14.1772 217.237 11.9154C227.81 6.76519 238.601 2.35069 249.61 0.334189C252.989 -0.292561 256.396 -0.674063 259.802 -0.783063C269.094 -1.08281 277.814 0.770187 286.316 2.75944C287.924 3.14094 289.504 3.52244 291.085 3.87669C301.113 6.22019 311.468 8.31844 322.45 6.92869C333.513 5.51169 345.503 -0.129062 351.607 -9.25781" stroke="black" stroke-width="0.2725" stroke-miterlimit="10"/>
<path d="M-4.68652 67.6415C4.33323 55.161 13.4892 42.517 25.6155 31.9985C37.7417 21.48 53.4105 13.1415 68.8885 12.2695C99.681 10.5528 118.156 37.503 148.513 37.9118C167.561 38.157 186.908 27.8838 204.593 17.8013C222.279 7.71876 241.136 -3.01774 260.401 -3.99874C271.383 -4.54374 281.438 -1.81874 291.357 0.742759C301.249 3.30426 311.495 5.78401 322.559 4.72126C333.622 3.65851 345.776 -1.70974 351.825 -10.7295" stroke="black" stroke-width="0.2725" stroke-miterlimit="10"/>
</g>
</g>
<defs>
<clipPath id="clip0_2047_4932">
<rect width="327" height="141" rx="16" fill="white"/>
</clipPath>
</defs>
</svg>
