<svg width="327" height="244" viewBox="0 0 327 244" fill="none" xmlns="http://www.w3.org/2000/svg">
<path d="M163.499 243.654C233.531 243.654 290.303 240.34 290.303 236.251C290.303 232.162 233.531 228.848 163.499 228.848C93.4674 228.848 36.6953 232.162 36.6953 236.251C36.6953 240.34 93.4674 243.654 163.499 243.654Z" fill="#F5F5F5"/>
<path d="M327 214.12H0V214.283H327V214.12Z" fill="#EBEBEB"/>
<path d="M227.808 221.418H220.954V221.581H227.808V221.418Z" fill="#EBEBEB"/>
<path d="M68.7874 218.148H42.4639V218.312H68.7874V218.148Z" fill="#EBEBEB"/>
<path d="M120.552 218.632H81.8682V218.796H120.552V218.632Z" fill="#EBEBEB"/>
<path d="M175.926 218.632H164.788V218.796H175.926V218.632Z" fill="#EBEBEB"/>
<path d="M291.71 219.666H256.002V219.829H291.71V219.666Z" fill="#EBEBEB"/>
<path d="M149.622 222.36H134.868V222.523H149.622V222.36Z" fill="#EBEBEB"/>
<path d="M304.888 219.75H295.529V219.914H304.888V219.75Z" fill="#EBEBEB"/>
<path d="M154.998 184.951H28.7171C27.7278 184.949 26.7796 184.555 26.0807 183.855C25.3818 183.155 24.9893 182.206 24.9893 181.217V3.70164C24.9979 2.71804 25.3942 1.77756 26.0922 1.08447C26.7902 0.391392 27.7334 0.00168496 28.7171 0H154.998C155.988 0 156.938 0.393438 157.639 1.09376C158.339 1.79409 158.732 2.74393 158.732 3.73434V181.217C158.732 182.207 158.339 183.157 157.639 183.857C156.938 184.558 155.988 184.951 154.998 184.951ZM28.7171 0.130801C27.7711 0.132533 26.8646 0.509509 26.1963 1.17898C25.5281 1.84846 25.1528 2.75573 25.1528 3.70164V181.217C25.1528 182.163 25.5281 183.07 26.1963 183.74C26.8646 184.409 27.7711 184.786 28.7171 184.788H154.998C155.944 184.786 156.852 184.409 157.521 183.74C158.19 183.071 158.567 182.163 158.569 181.217V3.70164C158.567 2.75513 158.19 1.84787 157.521 1.17858C156.852 0.509296 155.944 0.132529 154.998 0.130801H28.7171Z" fill="#EBEBEB"/>
<path d="M296.465 184.951H170.178C169.188 184.949 168.239 184.555 167.539 183.856C166.839 183.156 166.445 182.207 166.443 181.217V3.70164C166.454 2.71744 166.851 1.77697 167.55 1.08407C168.25 0.391163 169.193 0.00166658 170.178 0H296.465C297.448 0.00340374 298.389 0.393871 299.086 1.08677C299.782 1.77967 300.178 2.71917 300.186 3.70164V181.217C300.186 182.205 299.795 183.153 299.097 183.853C298.4 184.553 297.453 184.948 296.465 184.951ZM170.178 0.130801C169.231 0.132529 168.324 0.509296 167.655 1.17858C166.985 1.84787 166.609 2.75513 166.607 3.70164V181.217C166.609 182.163 166.985 183.071 167.655 183.74C168.324 184.409 169.231 184.786 170.178 184.788H296.465C297.412 184.786 298.319 184.409 298.988 183.74C299.657 183.071 300.034 182.163 300.036 181.217V3.70164C300.034 2.75513 299.657 1.84787 298.988 1.17858C298.319 0.509296 297.412 0.132529 296.465 0.130801H170.178Z" fill="#EBEBEB"/>
<path d="M47.6239 116.039L136.751 116.039V12.1839L47.6239 12.1839L47.6239 116.039Z" fill="#F5F5F5"/>
<path d="M45.1978 116.039L135.613 116.039V12.1839L45.1978 12.1839L45.1978 116.039Z" fill="#F5F5F5"/>
<path d="M47.6239 121.854L136.751 121.854V116.033L47.6239 116.033V121.854Z" fill="#E6E6E6"/>
<path d="M34.1192 121.854L119.237 121.854V116.033L34.1192 116.033V121.854Z" fill="#F5F5F5"/>
<path d="M132.226 111.631V16.5854L48.5921 16.5854V111.631H132.226Z" fill="#FAFAFA"/>
<path d="M120.192 111.631L100.284 16.5918H74.1963L94.0975 111.631H120.192Z" fill="white"/>
<path d="M89.8728 111.631L69.9716 16.5918H58.1865L78.0943 111.631H89.8728Z" fill="white"/>
<path d="M49.0176 101.691L49.0176 15.9971H48.5859L48.5859 101.691H49.0176Z" fill="white"/>
<path d="M139.302 12.0337V49.0109H129.492C129.492 49.0109 111.913 37.5463 107.91 13.9565C107.815 13.3947 107.844 12.819 107.994 12.2693C108.144 11.7196 108.412 11.2092 108.779 10.7736C109.146 10.3379 109.604 9.98744 110.12 9.74652C110.637 9.50561 111.199 9.38002 111.769 9.37849H136.621C136.972 9.3759 137.319 9.44263 137.644 9.57483C137.969 9.70703 138.264 9.9021 138.513 10.1488C138.763 10.3956 138.961 10.6891 139.096 11.0126C139.231 11.336 139.302 11.6831 139.302 12.0337Z" fill="#E6E6E6"/>
<path d="M139.302 108.283V51.9932H129.492C129.492 51.9932 123.867 63.3597 118.256 76.4266C116.775 79.9063 116.178 83.6989 116.521 87.4654C116.863 91.2318 118.134 94.8548 120.218 98.0103C122.303 101.166 125.137 103.756 128.467 105.548C131.797 107.341 135.52 108.28 139.302 108.283Z" fill="#E6E6E6"/>
<path d="M129.793 51.9932H138.929C139.471 51.9932 139.91 51.554 139.91 51.0122V49.9919C139.91 49.4501 139.471 49.0109 138.929 49.0109H129.793C129.251 49.0109 128.812 49.4501 128.812 49.9919V51.0122C128.812 51.554 129.251 51.9932 129.793 51.9932Z" fill="#F5F5F5"/>
<path d="M42.4248 12.0337V49.0109H52.2348C52.2348 49.0109 69.8143 37.5463 73.8168 13.9565C73.9118 13.3947 73.8832 12.819 73.7332 12.2693C73.5832 11.7196 73.3153 11.2092 72.9481 10.7736C72.5809 10.3379 72.1232 9.98744 71.6069 9.74652C71.0906 9.50561 70.528 9.38002 69.9582 9.37849H45.1062C44.7556 9.3759 44.4079 9.44263 44.0831 9.57483C43.7583 9.70703 43.4628 9.9021 43.2137 10.1488C42.9645 10.3956 42.7665 10.6891 42.6312 11.0126C42.4958 11.336 42.4257 11.6831 42.4248 12.0337Z" fill="#E6E6E6"/>
<path d="M42.4248 108.283V51.9932H52.2348C52.2348 51.9932 57.8592 63.3597 63.4705 76.4266C64.9511 79.9043 65.5475 83.6946 65.2063 87.4589C64.8652 91.2232 63.5972 94.8445 61.5155 97.9994C59.4338 101.154 56.6033 103.745 53.2766 105.539C49.95 107.333 46.2307 108.276 42.451 108.283H42.4248Z" fill="#E6E6E6"/>
<path d="M51.9279 49.0107H42.7915C42.2498 49.0107 41.8105 49.45 41.8105 49.9917V51.012C41.8105 51.5538 42.2498 51.993 42.7915 51.993H51.9279C52.4697 51.993 52.9089 51.5538 52.9089 51.012V49.9917C52.9089 49.45 52.4697 49.0107 51.9279 49.0107Z" fill="#F5F5F5"/>
<path d="M241.562 95.7192H280.821V24.9368H241.562V95.7192Z" fill="#E0E0E0"/>
<path d="M237.166 95.7192H279.82V24.9368H237.166V95.7192Z" fill="#F5F5F5"/>
<path d="M275.419 91.3182V29.332L241.561 29.332V91.3182H275.419Z" fill="white"/>
<path d="M263.588 50.999V41.8364H253.392V50.999H263.588Z" fill="#F5F5F5"/>
<path d="M263.588 64.9028V55.7402H253.392V64.9028H263.588Z" fill="#F5F5F5"/>
<path d="M263.588 78.8071V69.6445H253.392V78.8071H263.588Z" fill="#F5F5F5"/>
<path d="M199.575 79.1342C205.205 79.0359 210.572 76.7303 214.519 72.7138C218.466 68.6973 220.677 63.2914 220.677 57.6601C220.677 52.0289 218.466 46.6229 214.519 42.6064C210.572 38.5899 205.205 36.2843 199.575 36.186H198.267V79.1342H199.575Z" fill="#E6E6E6"/>
<path d="M203.265 78.5432C214.797 75.779 221.904 64.1903 219.14 52.6589C216.375 41.1276 204.787 34.0204 193.255 36.7846C181.724 39.5487 174.617 51.1375 177.381 62.6689C180.145 74.2002 191.734 81.3074 203.265 78.5432Z" fill="#F5F5F5"/>
<path d="M200.868 73.6602C209.694 72.2165 215.678 63.8914 214.235 55.0655C212.791 46.2396 204.466 40.2552 195.64 41.6989C186.814 43.1426 180.83 51.4678 182.273 60.2936C183.717 69.1195 192.042 75.1039 200.868 73.6602Z" fill="white"/>
<path d="M191.556 63.7062L190.294 61.8946L197.03 57.1989L194.807 46.3817L196.965 45.937L199.483 58.1733L191.556 63.7062Z" fill="#E6E6E6"/>
<path d="M93.849 216.441H121.912L121.912 140.617H93.849L93.849 216.441Z" fill="#E6E6E6"/>
<path d="M101.343 216.435H93.8486V203.878H109.198L101.343 216.435Z" fill="#F0F0F0"/>
<path d="M262.09 216.441H290.153V140.617H262.09V216.441Z" fill="#F0F0F0"/>
<path d="M93.8487 212.118L268.637 212.118V140.616L93.8487 140.616V212.118Z" fill="#FAFAFA"/>
<path d="M261.142 216.435H268.637V203.878H253.281L261.142 216.435Z" fill="#F0F0F0"/>
<path d="M99.6633 173.081L262.823 173.081V146.764L99.6633 146.764V173.081Z" fill="#F0F0F0"/>
<path d="M99.6633 205.755L262.823 205.755V179.438L99.6633 179.438V205.755Z" fill="#F0F0F0"/>
<path d="M219.678 133.206C222.914 133.206 225.538 130.583 225.538 127.347C225.538 124.11 222.914 121.487 219.678 121.487C216.442 121.487 213.818 124.11 213.818 127.347C213.818 130.583 216.442 133.206 219.678 133.206Z" fill="#F5F5F5"/>
<path d="M223.812 130.146C223.812 131.051 224.08 131.936 224.583 132.689C225.086 133.442 225.801 134.029 226.638 134.375C227.474 134.722 228.395 134.813 229.283 134.636C230.171 134.459 230.986 134.023 231.627 133.383C232.267 132.743 232.703 131.927 232.88 131.039C233.056 130.151 232.966 129.23 232.619 128.394C232.273 127.557 231.686 126.842 230.933 126.339C230.18 125.836 229.295 125.568 228.39 125.568C227.175 125.568 226.011 126.05 225.152 126.909C224.294 127.767 223.812 128.932 223.812 130.146Z" fill="#F5F5F5"/>
<path d="M209.653 135.999C212.889 135.999 215.513 133.376 215.513 130.14C215.513 126.903 212.889 124.28 209.653 124.28C206.417 124.28 203.793 126.903 203.793 130.14C203.793 133.376 206.417 135.999 209.653 135.999Z" fill="#F5F5F5"/>
<path d="M200.045 134.279C203.282 134.279 205.905 131.656 205.905 128.419C205.905 125.183 203.282 122.56 200.045 122.56C196.809 122.56 194.186 125.183 194.186 128.419C194.186 131.656 196.809 134.279 200.045 134.279Z" fill="#F5F5F5"/>
<path d="M244.524 129.185C244.524 129.185 243.72 140.61 212.884 140.61C182.048 140.61 181.243 129.185 181.243 129.185H244.524Z" fill="#E6E6E6"/>
<path d="M134.92 69.0889C135.005 69.3766 135.155 69.8148 135.286 70.181L135.705 71.3517C135.993 72.13 136.306 72.9017 136.64 73.6669C137.292 75.1813 138.026 76.6593 138.837 78.0944C140.446 80.9066 142.402 83.4507 144.723 85.0792L145.129 85.3604C145.129 85.3604 145.129 85.4062 145.227 85.4192C145.67 85.4079 146.103 85.2889 146.489 85.0726C147.83 84.3627 149.063 83.4665 150.152 82.4108C151.41 81.2589 152.608 80.043 153.742 78.7681C154.906 77.4601 156.051 76.1063 157.13 74.7787L160.249 76.6622C158.629 80.0984 156.593 83.3227 154.187 86.2629C152.865 87.8975 151.299 89.3181 149.543 90.4747C148.39 91.2176 147.085 91.6935 145.724 91.8677C144.858 91.9558 143.983 91.8759 143.147 91.6322C142.716 91.5059 142.3 91.335 141.905 91.1221L141.153 90.7036C139.325 89.6013 137.67 88.2349 136.241 86.6488C134.875 85.1568 133.658 83.536 132.605 81.8092C131.572 80.1326 130.66 78.3841 129.878 76.5772C129.492 75.6877 129.125 74.7852 128.792 73.8762C128.622 73.4184 128.458 72.9605 128.308 72.4897C128.158 72.0188 128.02 71.5872 127.863 71.0051L134.92 69.0889Z" fill="#B97964"/>
<path d="M141.676 80.6452L133.311 85.2755C133.311 85.2755 133.063 84.9158 132.657 84.2945C132.363 83.8367 132.003 83.235 131.545 82.5287C129.086 78.5328 125.005 71.2341 126.071 68.1407C127.7 63.3796 133.704 63.4581 136.653 68.9778C138.079 71.7281 139.357 74.5531 140.479 77.4406C140.786 78.2123 141.042 78.8859 141.238 79.4026C141.519 80.1939 141.676 80.6452 141.676 80.6452Z" fill="#301DA4"/>
<path opacity="0.2" d="M141.676 80.6452L133.311 85.2755C133.311 85.2755 133.063 84.9158 132.657 84.2945C132.363 83.8367 132.003 83.235 131.545 82.5287C129.086 78.5328 125.005 71.2341 126.071 68.1407C127.7 63.3796 133.704 63.4581 136.653 68.9778C138.079 71.7281 139.357 74.5531 140.479 77.4406C140.786 78.2123 141.042 78.8859 141.238 79.4026C141.519 80.1939 141.676 80.6452 141.676 80.6452Z" fill="black"/>
<path opacity="0.2" d="M141.264 79.4349L132.683 84.2941C132.389 83.8363 132.029 83.2346 131.571 82.5283L140.505 77.4663C140.786 78.238 141.041 78.9117 141.264 79.4349Z" fill="black"/>
<path opacity="0.2" d="M125.948 68.7159C127.818 67.8134 129.976 68.5655 132.239 72.1494C134.502 75.7334 136.444 81.7502 136.686 83.4309L133.344 85.2752C133.344 85.2752 125.261 73.4836 125.948 68.7159Z" fill="black"/>
<path d="M133.703 107.001H107.772C107.589 104.686 108.125 97.1518 107.727 87.5576C107.48 80.4463 106.618 73.3697 105.15 66.4072C105.032 65.884 104.914 65.3674 104.79 64.8442C104.79 64.8442 106.098 64.576 107.988 64.3014C109.551 64.0725 111.513 63.837 113.436 63.7455C117.106 63.536 120.786 63.536 124.456 63.7455C126.15 63.9024 127.804 64.1836 129.125 64.4387C130.813 64.7788 131.964 65.0927 131.964 65.0927C131.964 65.0927 138.196 79.7358 133.703 107.001Z" fill="#301DA4"/>
<path opacity="0.2" d="M133.703 107.001H107.772C107.589 104.686 108.125 97.1518 107.727 87.5576C107.48 80.4463 106.618 73.3697 105.15 66.4072C105.032 65.884 104.914 65.3674 104.79 64.8442C104.79 64.8442 106.098 64.576 107.988 64.3014C109.551 64.0725 111.513 63.837 113.436 63.7455C117.106 63.536 120.786 63.536 124.456 63.7455C126.15 63.9024 127.804 64.1836 129.125 64.4387C130.813 64.7788 131.964 65.0927 131.964 65.0927C131.964 65.0927 138.196 79.7358 133.703 107.001Z" fill="black"/>
<path d="M98.3418 222.923L102.187 226.363L109.499 218.744L105.66 215.304L98.3418 222.923Z" fill="#B97964"/>
<path d="M111.507 230.084H116.353L116.987 218.855H112.135L111.507 230.084Z" fill="#B97964"/>
<path d="M109.499 218.75L105.725 222.674L101.88 219.234L105.653 215.304L109.499 218.75Z" fill="#A76755"/>
<path d="M112.135 218.861H116.987L116.66 224.649H111.808L112.135 218.861Z" fill="#A76755"/>
<path d="M133.455 106.753C133.455 106.753 138.563 142.108 140.309 161.355C141.709 176.789 108.322 222.831 108.322 222.831L101.86 216.755C101.86 216.755 126.248 175.481 124.371 158.294C122.553 141.643 116.392 106.733 116.392 106.733L133.455 106.753Z" fill="#301DA4"/>
<path opacity="0.7" d="M133.455 106.753C133.455 106.753 138.563 142.108 140.309 161.355C141.709 176.789 108.322 222.831 108.322 222.831L101.86 216.755C101.86 216.755 126.248 175.481 124.371 158.294C122.553 141.643 116.392 106.733 116.392 106.733L133.455 106.753Z" fill="black"/>
<path d="M116.608 229.554H111.18C111.134 229.552 111.089 229.56 111.046 229.576C111.003 229.591 110.964 229.615 110.931 229.646C110.897 229.677 110.871 229.715 110.852 229.756C110.833 229.797 110.822 229.842 110.82 229.888L110.559 234.198C110.559 234.424 110.648 234.642 110.807 234.803C110.966 234.965 111.182 235.057 111.409 235.061C113.305 235.028 114.208 234.911 116.641 234.911C118.112 234.911 124.378 235.067 126.412 235.067C128.445 235.067 128.374 233.053 127.53 232.87C123.658 232.053 118.864 230.908 117.498 229.855C117.246 229.652 116.931 229.545 116.608 229.554Z" fill="#263238"/>
<path d="M103.247 224.976L98.5708 221.831C98.4951 221.772 98.4019 221.74 98.3059 221.74C98.21 221.74 98.1168 221.772 98.0411 221.831L94.4702 225.434C94.3994 225.513 94.3469 225.607 94.3167 225.709C94.2865 225.811 94.2793 225.919 94.2956 226.024C94.3118 226.129 94.3512 226.229 94.4108 226.317C94.4704 226.405 94.5488 226.479 94.6403 226.533C97.6225 228.828 99.7742 230.555 101.468 232.465C103.43 234.701 104.496 235.015 109.074 235.015C111.193 235.015 112.39 233.23 111.527 232.955C103.894 230.542 105.935 229.489 104.084 225.951C103.887 225.563 103.6 225.229 103.247 224.976Z" fill="#263238"/>
<path d="M156.555 75.6028L158.222 70.2661L162.552 73.438C162.552 73.438 160.184 78.1926 158.582 77.7609L156.555 75.6028Z" fill="#B97964"/>
<path d="M162.78 68.2256L165.219 71.2144L162.551 73.438L158.222 70.2661L162.78 68.2256Z" fill="#B97964"/>
<path opacity="0.2" d="M107.727 87.5575C107.481 80.4462 106.619 73.3696 105.15 66.4071C106.883 66.2567 109.846 66.4071 110.337 69.2259C110.866 72.2343 110.199 79.3105 107.727 87.5575Z" fill="black"/>
<path opacity="0.5" d="M124.371 158.307C123.436 149.734 121.343 136.3 119.545 125.3C120.486 123.456 123.122 119.728 123.122 119.728C125.489 127.91 130.636 158.746 123.299 200.399C115.647 212.733 108.322 222.844 108.322 222.844L107.321 206.939C114.391 193.637 125.673 170.204 124.371 158.307Z" fill="black"/>
<path d="M109.493 71.888L108.348 73.85C107.956 74.5301 107.576 75.2168 107.21 75.9101C106.465 77.2965 105.747 78.6917 105.058 80.0957C104.404 81.5018 103.75 82.9144 103.168 84.327C102.606 85.7204 102.115 87.1414 101.697 88.5846L101.618 88.8462L101.579 88.9835C101.558 89.0194 101.544 89.0596 101.54 89.1012C101.52 89.3035 101.52 89.5072 101.54 89.7095C101.607 90.3269 101.737 90.936 101.926 91.5276C102.379 92.947 102.932 94.3325 103.58 95.6739C104.888 98.4861 106.478 101.344 108.067 104.104L105.196 106.347C102.811 103.922 100.654 101.281 98.7539 98.46C97.746 96.9675 96.8707 95.3897 96.1379 93.7446C95.7244 92.8062 95.4045 91.8291 95.1831 90.8278C95.0555 90.2235 94.9897 89.6077 94.9869 88.9901C94.9821 88.6179 95.0083 88.246 95.0654 87.8783L95.1111 87.6101V87.4401L95.1831 87.1065C95.8876 83.6529 96.9734 80.2882 98.4204 77.0742C99.1071 75.4915 99.8592 73.9481 100.664 72.4373C101.069 71.6787 101.481 70.9331 101.913 70.1876C102.344 69.442 102.769 68.7357 103.28 67.9443L109.493 71.888Z" fill="#B97964"/>
<path d="M111.226 73.6731C110.016 77.0224 108.612 80.298 107.02 83.4831C106.674 84.2025 106.366 84.8434 106.092 85.3601C105.634 86.2692 105.346 86.8185 105.346 86.8185L95.5361 81.3772C95.5361 81.3772 95.6604 80.9652 95.8828 80.272C96.0528 79.7488 96.2752 79.0621 96.5368 78.2707C98.1718 73.6077 101.514 65.2888 104.79 64.8114C109.689 64.1313 113.214 67.7937 111.226 73.6731Z" fill="#301DA4"/>
<path opacity="0.2" d="M107.021 83.5161C106.674 84.2355 106.367 84.8764 106.092 85.3931L95.8701 80.3049C96.0402 79.7817 96.2625 79.0951 96.5241 78.3037L107.021 83.5161Z" fill="black"/>
<path d="M118.328 230.365C117.887 230.355 117.449 230.298 117.02 230.195C116.998 230.189 116.978 230.178 116.962 230.162C116.946 230.146 116.934 230.126 116.928 230.104C116.926 230.082 116.93 230.06 116.939 230.041C116.948 230.021 116.963 230.005 116.981 229.993C117.131 229.881 118.511 228.946 119.1 229.175C119.167 229.202 119.226 229.245 119.272 229.301C119.318 229.357 119.349 229.424 119.361 229.496C119.391 229.602 119.394 229.714 119.368 229.821C119.343 229.929 119.291 230.028 119.217 230.11C118.962 230.301 118.646 230.392 118.328 230.365ZM117.347 230.032C118.217 230.202 118.851 230.176 119.08 229.953C119.127 229.898 119.159 229.832 119.173 229.761C119.187 229.69 119.182 229.616 119.159 229.548C119.154 229.513 119.14 229.48 119.118 229.452C119.096 229.425 119.067 229.404 119.034 229.391C118.714 229.267 117.909 229.672 117.347 230.032Z" fill="#301DA4"/>
<path d="M117.066 230.208C117.049 230.214 117.031 230.214 117.014 230.208C116.998 230.199 116.984 230.186 116.973 230.17C116.963 230.154 116.957 230.136 116.955 230.117C116.955 230.058 116.844 228.665 117.334 228.194C117.396 228.132 117.471 228.086 117.554 228.059C117.637 228.031 117.726 228.024 117.812 228.037C117.908 228.042 118 228.077 118.075 228.138C118.149 228.2 118.201 228.284 118.224 228.377C118.335 228.907 117.609 229.921 117.125 230.208H117.066ZM117.72 228.246C117.675 228.245 117.631 228.253 117.589 228.27C117.547 228.287 117.51 228.312 117.478 228.344C117.209 228.809 117.097 229.348 117.158 229.881C117.576 229.528 118.06 228.757 117.988 228.41C117.988 228.345 117.936 228.266 117.773 228.246H117.72Z" fill="#301DA4"/>
<path d="M106.386 227.592C105.522 227.46 104.696 227.14 103.967 226.657C103.947 226.645 103.931 226.628 103.922 226.607C103.912 226.585 103.91 226.562 103.914 226.539C103.919 226.516 103.932 226.495 103.949 226.478C103.967 226.462 103.989 226.451 104.012 226.448C104.274 226.448 106.57 226.278 107.014 226.801C107.05 226.846 107.075 226.9 107.086 226.957C107.098 227.013 107.095 227.072 107.08 227.128C107.061 227.218 107.02 227.302 106.96 227.373C106.901 227.444 106.825 227.499 106.74 227.533C106.626 227.574 106.507 227.594 106.386 227.592ZM104.424 226.651C105.471 227.226 106.295 227.475 106.661 227.305C106.715 227.283 106.763 227.248 106.8 227.204C106.838 227.159 106.864 227.106 106.877 227.049C106.888 227.031 106.894 227.009 106.894 226.987C106.894 226.966 106.888 226.944 106.877 226.925C106.602 226.677 105.347 226.631 104.411 226.67L104.424 226.651Z" fill="#301DA4"/>
<path d="M104.026 226.696C104.006 226.696 103.987 226.692 103.97 226.682C103.953 226.673 103.938 226.66 103.927 226.644C103.919 226.627 103.915 226.608 103.915 226.588C103.915 226.569 103.919 226.55 103.927 226.533C103.967 226.454 104.843 224.675 105.961 225.225C106.269 225.375 106.301 225.558 106.275 225.683C106.158 226.206 104.699 226.69 104.032 226.709L104.026 226.696ZM105.536 225.342C104.941 225.342 104.431 226.101 104.228 226.454C104.928 226.363 105.988 225.931 106.053 225.624C106.053 225.552 106.001 225.486 105.863 225.414C105.761 225.366 105.649 225.341 105.536 225.342Z" fill="#301DA4"/>
<path d="M106.766 103.077L111.592 102.24L109.113 107.825C109.113 107.825 104.705 107.825 104.908 105.53L106.766 103.077Z" fill="#B97964"/>
<path d="M115.189 105.046L112.926 109.558L109.113 107.825L111.592 102.24L115.189 105.046Z" fill="#B97964"/>
<path d="M101.468 216.402L108.714 223.217L111.042 220.712L102.763 213.165L101.468 216.402Z" fill="#301DA4"/>
<path opacity="0.7" d="M101.468 216.402L108.714 223.217L111.042 220.712L102.763 213.165L101.468 216.402Z" fill="white"/>
<path d="M124.26 106.753C124.26 106.753 124.724 143.808 123.94 157.686C123.076 172.892 118.766 223.25 118.766 223.25H109.872C109.872 223.25 110.134 174.115 109.604 159.066C109.022 142.716 107.518 106.746 107.518 106.746L124.26 106.753Z" fill="#301DA4"/>
<path opacity="0.7" d="M124.26 106.753C124.26 106.753 124.724 143.808 123.94 157.686C123.076 172.892 118.766 223.25 118.766 223.25H109.872C109.872 223.25 110.134 174.115 109.604 159.066C109.022 142.716 107.518 106.746 107.518 106.746L124.26 106.753Z" fill="black"/>
<path d="M109.499 223.249H119.094L119.63 219.881L109.035 220.405L109.499 223.249Z" fill="#301DA4"/>
<path opacity="0.7" d="M109.499 223.249H119.094L119.63 219.881L109.035 220.405L109.499 223.249Z" fill="white"/>
<path opacity="0.2" d="M111.226 73.6731C110.016 77.0224 108.612 80.298 107.02 83.4831C106.674 84.2025 106.366 84.8434 106.092 85.3601C105.634 86.2692 105.346 86.8185 105.346 86.8185L95.5361 81.3772C95.5361 81.3772 95.6604 80.9652 95.8828 80.272C96.0528 79.7488 96.2752 79.0621 96.5368 78.2707C98.1718 73.6077 101.514 65.2888 104.79 64.8114C109.689 64.1313 113.214 67.7937 111.226 73.6731Z" fill="black"/>
<path d="M128.596 67.519C128.073 69.2521 126.634 71.5673 122.612 72.751L121.566 73.065L120.5 72.8753C112.292 71.4038 109.27 66.9893 108.728 66.1325L107.629 64.3014C109.192 64.0725 111.154 63.837 113.077 63.7455C116.747 63.536 120.426 63.536 124.097 63.7455C125.79 63.9024 127.445 64.1836 128.766 64.4387C128.949 65.4648 128.89 66.5192 128.596 67.519Z" fill="#301DA4"/>
<path opacity="0.4" d="M128.596 67.519C128.073 69.2521 126.634 71.5673 122.612 72.751L121.566 73.065L120.5 72.8753C112.292 71.4038 109.27 66.9893 108.728 66.1325L107.629 64.3014C109.192 64.0725 111.154 63.837 113.077 63.7455C116.747 63.536 120.426 63.536 124.097 63.7455C125.79 63.9024 127.445 64.1836 128.766 64.4387C128.949 65.4648 128.89 66.5192 128.596 67.519Z" fill="black"/>
<path d="M121.644 68.3695C115.065 67.1858 113.005 63.7915 113.005 63.7915C115.405 61.4241 114.483 54.956 113.659 51.4048L116.608 53.8507L120.624 57.1861C120.505 57.7209 120.42 58.2626 120.369 58.8081C120.153 60.9859 120.716 62.9675 123.92 63.7261C123.933 63.7065 126.588 66.898 121.644 68.3695Z" fill="#B97964"/>
<path d="M120.637 57.1665C120.518 57.7012 120.433 58.2429 120.382 58.7884C118.884 58.4875 116.883 56.8918 116.674 55.3614C116.6 54.8548 116.583 54.3415 116.622 53.8311L120.637 57.1665Z" fill="#A76755"/>
<path d="M123.364 38.9984C125.758 40.0775 127.085 46.8071 124.018 48.259C120.951 49.7109 118.838 36.9513 123.364 38.9984Z" fill="#263238"/>
<path d="M112.488 46.2771C113.515 50.9924 113.874 53.7981 116.66 55.9498C117.559 56.6574 118.633 57.1063 119.768 57.248C120.903 57.3896 122.055 57.2186 123.099 56.7535C124.144 56.2884 125.042 55.5468 125.696 54.6087C126.35 53.6706 126.735 52.5717 126.811 51.4306C127.177 47.0423 125.437 40.0706 120.473 38.7365C119.407 38.4186 118.276 38.3869 117.193 38.6444C116.111 38.9019 115.115 39.4396 114.306 40.2036C113.497 40.9676 112.903 41.931 112.584 42.997C112.265 44.0631 112.232 45.1943 112.488 46.2771Z" fill="#B97964"/>
<path d="M106.987 41.6011C104.692 42.6148 105.993 45.754 107.556 47.7487C109.721 50.5217 112.01 51.8166 113.567 50.5413C114.966 49.8415 115.888 45.7148 114.672 43.1707C116.824 41.7516 121.29 43.5043 122.683 41.2087C124.076 38.9132 125.071 39.1029 127.523 40.6201C129.976 42.1374 131.938 36.1402 125.561 35.0219C129.093 36.6111 128.282 39.7045 125.698 36.5326C123.874 34.296 119.498 31.8238 116.457 35.1592C114.214 37.5921 106.333 33.8316 106.987 41.6011Z" fill="#263238"/>
<path d="M111.369 51.1951C112.134 52.1152 113.192 52.7454 114.365 52.9805C115.849 53.229 116.183 51.8556 115.431 50.5215C114.777 49.3247 113.155 47.7485 111.827 48.1017C110.5 48.4548 110.408 50.0375 111.369 51.1951Z" fill="#B97964"/>
<path d="M119.898 46.7482C119.957 47.1341 120.212 47.4022 120.467 47.4022C120.722 47.4022 120.879 47.036 120.814 46.6501C120.748 46.2642 120.506 45.9961 120.251 45.9961C119.996 45.9961 119.839 46.3558 119.898 46.7482Z" fill="#263238"/>
<path d="M124.26 46.225C124.319 46.6108 124.574 46.879 124.829 46.879C125.084 46.879 125.241 46.5062 125.182 46.1203C125.123 45.7344 124.868 45.4663 124.613 45.4663C124.358 45.4663 124.26 45.8391 124.26 46.225Z" fill="#263238"/>
<path d="M122.952 46.5845C123.601 47.7138 124.397 48.7519 125.32 49.6713C125.079 49.892 124.792 50.0568 124.48 50.154C124.168 50.2512 123.838 50.2784 123.515 50.2338L122.952 46.5845Z" fill="#A24E3F"/>
<path d="M122.055 51.4633C121.602 51.4687 121.153 51.383 120.734 51.211C120.315 51.0391 119.935 50.7846 119.616 50.4626C119.595 50.4407 119.583 50.4114 119.583 50.3809C119.583 50.3504 119.595 50.3211 119.616 50.2991C119.638 50.278 119.667 50.2661 119.698 50.2661C119.728 50.2661 119.758 50.278 119.78 50.2991C120.132 50.6414 120.558 50.8997 121.024 51.0549C121.491 51.21 121.986 51.2579 122.474 51.1951C122.489 51.1933 122.504 51.1946 122.519 51.199C122.534 51.2033 122.547 51.2106 122.559 51.2205C122.571 51.2303 122.58 51.2424 122.587 51.256C122.594 51.2697 122.597 51.2845 122.598 51.2998C122.601 51.3145 122.601 51.3297 122.597 51.3443C122.594 51.3589 122.587 51.3725 122.578 51.3843C122.568 51.3961 122.557 51.4057 122.543 51.4126C122.53 51.4194 122.515 51.4233 122.5 51.424C122.353 51.4462 122.204 51.4593 122.055 51.4633Z" fill="#263238"/>
<path d="M118.322 45.4927C118.285 45.5024 118.247 45.5024 118.21 45.4927C118.157 45.4624 118.118 45.4128 118.101 45.3542C118.084 45.2957 118.09 45.2328 118.119 45.1788C118.291 44.8608 118.537 44.589 118.836 44.3863C119.136 44.1837 119.48 44.0562 119.839 44.0146C119.894 44.0239 119.944 44.0523 119.98 44.0948C120.015 44.1373 120.035 44.1912 120.035 44.2468C120.035 44.3025 120.015 44.3563 119.98 44.3988C119.944 44.4413 119.894 44.4697 119.839 44.479C119.557 44.5112 119.287 44.6121 119.054 44.7729C118.82 44.9337 118.629 45.1494 118.498 45.4011C118.477 45.4283 118.451 45.4507 118.42 45.4665C118.389 45.4823 118.356 45.4912 118.322 45.4927Z" fill="#263238"/>
<path d="M125.941 44.472C125.903 44.471 125.866 44.461 125.833 44.4428C125.8 44.4246 125.772 44.3987 125.751 44.3674C125.593 44.1193 125.38 43.9112 125.128 43.7592C124.876 43.6072 124.592 43.5154 124.299 43.491C124.238 43.491 124.18 43.4669 124.137 43.424C124.094 43.381 124.07 43.3228 124.07 43.2621C124.07 43.2014 124.094 43.1432 124.137 43.1002C124.18 43.0573 124.238 43.0332 124.299 43.0332C124.668 43.0543 125.027 43.1632 125.346 43.3509C125.664 43.5386 125.933 43.7996 126.13 44.1123C126.148 44.1371 126.16 44.1652 126.166 44.1948C126.173 44.2244 126.173 44.255 126.168 44.2848C126.162 44.3146 126.151 44.3431 126.135 44.3685C126.118 44.3939 126.097 44.4157 126.072 44.4328C126.033 44.4585 125.987 44.4721 125.941 44.472Z" fill="#263238"/>
<g opacity="0.9">
<path opacity="0.9" d="M194.198 120.16C194.754 118.767 195.704 117.566 196.932 116.704C198.159 115.842 199.612 115.357 201.111 115.307H258.768C262.221 115.307 264.555 118.106 264 121.566L245.76 230.463C245.438 232.186 244.539 233.747 243.211 234.889C241.883 236.032 240.205 236.687 238.454 236.748H93.8811C93.0939 236.779 92.3102 236.628 91.5902 236.309C90.8702 235.989 90.2331 235.508 89.7279 234.904C89.2226 234.3 88.8627 233.587 88.6756 232.822C88.4886 232.057 88.4795 231.259 88.6491 230.49L104.155 137.785C104.483 136.068 105.385 134.514 106.712 133.377C108.04 132.24 109.714 131.587 111.461 131.526H178.051C184.866 131.5 191.556 126.798 194.198 120.16Z" fill="#301DA4"/>
</g>
<path opacity="0.5" d="M194.198 120.159C194.754 118.766 195.704 117.565 196.932 116.703C198.159 115.842 199.612 115.356 201.111 115.307H258.768C262.221 115.307 264.555 118.106 264 121.565L245.76 230.463C245.438 232.185 244.539 233.746 243.211 234.889C241.883 236.031 240.205 236.687 238.454 236.748H93.8811C93.0939 236.778 92.3102 236.628 91.5902 236.308C90.8702 235.988 90.2331 235.508 89.7279 234.904C89.2226 234.299 88.8627 233.587 88.6756 232.822C88.4886 232.056 88.4795 231.258 88.6491 230.489L104.155 137.785C104.483 136.068 105.385 134.514 106.712 133.376C108.04 132.239 109.714 131.587 111.461 131.526H178.051C184.866 131.5 191.556 126.797 194.198 120.159Z" fill="white"/>
<path opacity="0.9" d="M171.249 23.4722L127.621 175.069L227.421 203.786L271.043 52.1893L171.249 23.4722Z" fill="#301DA4"/>
<path opacity="0.7" d="M171.249 23.4722L127.621 175.069L227.421 203.786L271.043 52.1893L171.249 23.4722Z" fill="white"/>
<g style="mix-blend-mode:multiply" opacity="0.9">
<path d="M169.314 30.189L127.621 175.07L224.027 202.812L263.104 52.8631L169.314 30.189Z" fill="#301DA4"/>
</g>
<path opacity="0.6" d="M169.314 30.189L127.621 175.07L224.027 202.812L263.104 52.8631L169.314 30.189Z" fill="#301DA4"/>
<g opacity="0.9">
<g style="mix-blend-mode:multiply" opacity="0.9">
<path d="M169.314 30.189L127.621 175.07L224.027 202.812L263.104 52.8631L169.314 30.189Z" fill="white"/>
</g>
<path opacity="0.6" d="M169.314 30.189L127.621 175.07L224.027 202.812L263.104 52.8631L169.314 30.189Z" fill="white"/>
</g>
<path d="M204.651 71.2331C211.192 63.7533 210.431 52.3871 202.951 45.846C195.472 39.3049 184.106 40.0658 177.564 47.5456C171.023 55.0253 171.784 66.3915 179.264 72.9326C186.744 79.4737 198.11 78.7128 204.651 71.2331Z" fill="#301DA4"/>
<path d="M187.161 73.0718C184.452 72.2892 182.037 70.7211 180.219 68.5658C178.402 66.4106 177.264 63.7649 176.95 60.9631C176.636 58.1614 177.16 55.3294 178.455 52.8253C179.75 50.3211 181.758 48.2571 184.226 46.8942C186.694 45.5314 189.511 44.9308 192.32 45.1684C195.13 45.4061 197.805 46.4713 200.009 48.2293C202.213 49.9874 203.846 52.3595 204.703 55.0456C205.559 57.7318 205.599 60.6115 204.819 63.3206C204.301 65.1213 203.434 66.8021 202.265 68.2671C201.097 69.732 199.652 70.9522 198.012 71.8579C196.372 72.7636 194.569 73.337 192.707 73.5453C190.845 73.7536 188.961 73.5927 187.161 73.0718Z" fill="white"/>
<path d="M198.047 88.0847L166.282 78.9463L164.228 86.0861L195.993 95.2245L198.047 88.0847Z" fill="#301DA4"/>
<path d="M166.51 144.064L149 139.026L141.015 166.781L158.525 171.819L166.51 144.064Z" fill="#301DA4"/>
<path d="M228.471 161.892L210.961 156.855L202.976 184.61L220.486 189.647L228.471 161.892Z" fill="#301DA4"/>
<path d="M197.488 152.981L179.978 147.944L171.993 175.699L189.503 180.736L197.488 152.981Z" fill="#301DA4"/>
<path d="M223.714 95.4633L202.226 89.2812L200.172 96.4211L221.66 102.603L223.714 95.4633Z" fill="#301DA4"/>
<path d="M240.451 117.077L161.818 94.4556L160.972 97.397L239.605 120.019L240.451 117.077Z" fill="white"/>
<path d="M199.121 111.954L160.021 100.705L159.175 103.646L198.275 114.895L199.121 111.954Z" fill="white"/>
<path d="M231.962 121.402L205.81 113.878L204.963 116.82L231.116 124.344L231.962 121.402Z" fill="white"/>
<path d="M221.08 125.034L158.223 106.95L157.376 109.892L220.233 127.975L221.08 125.034Z" fill="white"/>
<path d="M227.883 134.639L155.706 113.588L154.849 116.526L227.026 137.578L227.883 134.639Z" fill="white"/>
<path d="M162.971 121.855L154.624 119.454L153.778 122.395L162.124 124.796L162.971 121.855Z" fill="white"/>
<path d="M206.55 134.394L169.669 123.784L168.823 126.725L205.704 137.335L206.55 134.394Z" fill="white"/>
<path d="M231.461 148.329L152.828 125.707L151.982 128.648L230.614 151.27L231.461 148.329Z" fill="white"/>
<path d="M159.634 28.7759L121.277 181.812L221.993 207.063L260.344 54.0268L159.634 28.7759Z" fill="#301DA4"/>
<path opacity="0.8" d="M159.634 28.7759L121.277 181.812L221.993 207.063L260.344 54.0268L159.634 28.7759Z" fill="white"/>
<path d="M188.546 80.1316C197.493 75.81 201.243 65.0534 196.922 56.1059C192.6 47.1584 181.844 43.4083 172.896 47.7299C163.949 52.0514 160.199 62.8081 164.52 71.7555C168.842 80.703 179.598 84.4531 188.546 80.1316Z" fill="#301DA4"/>
<path d="M194.733 66.5112C196.151 58.7658 191.021 51.3379 183.275 49.9205C175.53 48.5032 168.102 53.6331 166.685 61.3785C165.267 69.1239 170.397 76.5518 178.142 77.9692C185.888 79.3865 193.316 74.2566 194.733 66.5112Z" fill="white"/>
<path d="M188.651 92.4066L156.59 84.3711L154.784 91.5776L186.845 99.6131L188.651 92.4066Z" fill="#301DA4"/>
<path d="M159.067 149.445L141.394 145.015L134.372 173.029L152.046 177.459L159.067 149.445Z" fill="#301DA4"/>
<path d="M221.599 165.119L203.925 160.689L196.904 188.704L214.578 193.133L221.599 165.119Z" fill="#301DA4"/>
<path d="M190.336 157.282L172.662 152.853L165.641 180.867L183.315 185.296L190.336 157.282Z" fill="#301DA4"/>
<path d="M214.551 98.8949L192.861 93.459L191.055 100.666L212.745 106.101L214.551 98.8949Z" fill="#301DA4"/>
<path d="M232.028 119.914L152.661 100.023L151.917 102.992L231.284 122.883L232.028 119.914Z" fill="white"/>
<path d="M190.549 116.22L151.084 106.33L150.34 109.298L189.805 119.189L190.549 116.22Z" fill="white"/>
<path d="M223.694 124.525L197.298 117.91L196.554 120.879L222.95 127.494L223.694 124.525Z" fill="white"/>
<path d="M212.944 128.538L149.5 112.638L148.756 115.607L212.2 131.507L212.944 128.538Z" fill="white"/>
<path d="M220.852 137.229L147.924 118.952L147.18 121.921L220.108 140.198L220.852 137.229Z" fill="white"/>
<path d="M154.762 127.378L146.338 125.266L145.594 128.235L154.018 130.346L154.762 127.378Z" fill="white"/>
<path d="M198.75 138.394L161.524 129.064L160.78 132.033L198.006 141.363L198.75 138.394Z" fill="white"/>
<path d="M224.125 151.459L144.758 131.568L144.014 134.537L223.381 154.428L224.125 151.459Z" fill="white"/>
<path opacity="0.5" d="M155.69 142.893C155.815 140.44 157.96 138.707 160.877 138.707H218.54C221.993 138.707 225.322 141.12 225.976 144.103L243.287 231.32C243.941 234.302 241.665 236.722 238.212 236.722H93.6193C90.1596 236.722 86.8308 234.302 86.1768 231.32L71.9392 158.079C71.2852 155.096 73.5611 152.676 77.0208 152.676H143.585C150.419 152.676 155.416 148.622 155.69 142.893Z" fill="#301DA4"/>
</svg>
