<svg width="327" height="244" viewBox="0 0 327 244" fill="none" xmlns="http://www.w3.org/2000/svg">
<path d="M163.499 243.654C233.531 243.654 290.303 240.34 290.303 236.251C290.303 232.162 233.531 228.848 163.499 228.848C93.4674 228.848 36.6953 232.162 36.6953 236.251C36.6953 240.34 93.4674 243.654 163.499 243.654Z" fill="#F5F5F5"/>
<path d="M327 214.12H0V214.283H327V214.12Z" fill="#EBEBEB"/>
<path d="M294.235 224.643H272.574V224.806H294.235V224.643Z" fill="#EBEBEB"/>
<path d="M216.618 226.421H210.935V226.585H216.618V226.421Z" fill="#EBEBEB"/>
<path d="M271.92 218.573H259.37V218.737H271.92V218.573Z" fill="#EBEBEB"/>
<path d="M62.5549 219.672H34.3086V219.835H62.5549V219.672Z" fill="#EBEBEB"/>
<path d="M72.5217 219.672H68.3818V219.835H72.5217V219.672Z" fill="#EBEBEB"/>
<path d="M147.248 222.432H85.9814V222.596H147.248V222.432Z" fill="#EBEBEB"/>
<path d="M154.998 184.951H28.7171C27.7278 184.949 26.7796 184.555 26.0807 183.855C25.3818 183.155 24.9893 182.206 24.9893 181.217V3.70164C24.9979 2.71804 25.3942 1.77756 26.0922 1.08447C26.7902 0.391392 27.7334 0.00168496 28.7171 0H154.998C155.988 0 156.938 0.393438 157.639 1.09376C158.339 1.79409 158.732 2.74393 158.732 3.73434V181.217C158.732 182.207 158.339 183.157 157.639 183.857C156.938 184.558 155.988 184.951 154.998 184.951ZM28.7171 0.130801C27.7711 0.132533 26.8646 0.509509 26.1963 1.17898C25.5281 1.84846 25.1528 2.75573 25.1528 3.70164V181.217C25.1528 182.163 25.5281 183.07 26.1963 183.74C26.8646 184.409 27.7711 184.786 28.7171 184.788H154.998C155.944 184.786 156.852 184.409 157.521 183.74C158.19 183.071 158.567 182.163 158.569 181.217V3.70164C158.567 2.75513 158.19 1.84787 157.521 1.17858C156.852 0.509296 155.944 0.132529 154.998 0.130801H28.7171Z" fill="#EBEBEB"/>
<path d="M296.465 184.951H170.178C169.188 184.949 168.239 184.555 167.539 183.856C166.839 183.156 166.445 182.207 166.443 181.217V3.70164C166.454 2.71744 166.851 1.77697 167.55 1.08407C168.25 0.391163 169.193 0.00166658 170.178 0H296.465C297.448 0.00340374 298.389 0.393871 299.086 1.08677C299.782 1.77967 300.178 2.71917 300.186 3.70164V181.217C300.186 182.205 299.795 183.153 299.097 183.853C298.4 184.553 297.453 184.948 296.465 184.951ZM170.178 0.130801C169.231 0.132529 168.324 0.509296 167.655 1.17858C166.985 1.84787 166.609 2.75513 166.607 3.70164V181.217C166.609 182.163 166.985 183.071 167.655 183.74C168.324 184.409 169.231 184.786 170.178 184.788H296.465C297.412 184.786 298.319 184.409 298.988 183.74C299.657 183.071 300.034 182.163 300.036 181.217V3.70164C300.034 2.75513 299.657 1.84787 298.988 1.17858C298.319 0.509296 297.412 0.132529 296.465 0.130801H170.178Z" fill="#EBEBEB"/>
<path d="M234.996 88.4535C253.929 88.4535 269.278 73.1047 269.278 54.1709C269.278 35.2371 253.929 19.8882 234.996 19.8882C216.062 19.8882 200.713 35.2371 200.713 54.1709C200.713 73.1047 216.062 88.4535 234.996 88.4535Z" fill="#E0E0E0"/>
<path d="M232.392 88.4535C251.326 88.4535 266.675 73.1047 266.675 54.1709C266.675 35.2371 251.326 19.8882 232.392 19.8882C213.458 19.8882 198.109 35.2371 198.109 54.1709C198.109 73.1047 213.458 88.4535 232.392 88.4535Z" fill="#F5F5F5"/>
<path d="M254.801 76.5809C267.175 64.2066 267.175 44.144 254.801 31.7697C242.427 19.3954 222.364 19.3954 209.99 31.7697C197.615 44.144 197.615 64.2066 209.99 76.5809C222.364 88.9552 242.426 88.9552 254.801 76.5809Z" fill="white"/>
<path d="M237.795 77.2307C237.622 77.2309 237.455 77.1729 237.32 77.0661C237.184 76.9593 237.089 76.8099 237.049 76.6421L231.647 54.3538C231.609 54.159 231.647 53.957 231.754 53.7897C231.861 53.6225 232.028 53.5028 232.221 53.4557C232.414 53.4085 232.618 53.4375 232.79 53.5365C232.962 53.6356 233.089 53.7971 233.145 53.9875L238.54 76.2824C238.588 76.481 238.554 76.6902 238.448 76.8642C238.341 77.0383 238.17 77.163 237.971 77.2111C237.913 77.2241 237.854 77.2306 237.795 77.2307Z" fill="#F5F5F5"/>
<path d="M232.393 55.7077C232.191 55.7078 231.991 55.668 231.805 55.5905C231.618 55.5131 231.449 55.3995 231.307 55.2565L212.766 36.7156C212.624 36.5726 212.511 36.4029 212.434 36.2162C212.357 36.0295 212.317 35.8295 212.317 35.6276C212.318 35.2198 212.481 34.8289 212.769 34.541C213.058 34.2531 213.45 34.0917 213.857 34.0923C214.265 34.0929 214.656 34.2555 214.944 34.5443L232.393 51.9995L242.575 41.8168C242.864 41.5288 243.256 41.3674 243.663 41.368C244.071 41.3686 244.462 41.5312 244.75 41.82C245.038 42.1088 245.199 42.5002 245.199 42.908C245.198 43.3158 245.036 43.7067 244.747 43.9946L233.478 55.2565C233.191 55.5448 232.8 55.7071 232.393 55.7077Z" fill="#EBEBEB"/>
<path d="M144.861 209.345H150.027V173.964H144.861V209.345Z" fill="#F0F0F0"/>
<path d="M40.3582 214.12H146.62V209.345H40.3582V214.12Z" fill="#F0F0F0"/>
<path d="M144.861 173.964H36.9443V209.345H144.861V173.964Z" fill="#F5F5F5"/>
<path d="M137.876 180.125H43.9229V200.333H137.876V180.125Z" fill="#F0F0F0"/>
<path d="M68.0489 182.826H113.763C114.62 182.826 115.313 182.132 115.313 181.276V180.988C115.313 180.132 114.62 179.438 113.763 179.438H68.0489C67.1929 179.438 66.4989 180.132 66.4989 180.988V181.276C66.4989 182.132 67.1929 182.826 68.0489 182.826Z" fill="#F5F5F5"/>
<path d="M34.5773 173.964H144.861V170.805H34.5773V173.964Z" fill="#F0F0F0"/>
<path d="M152.507 170.805H144.861V173.964H152.507V170.805Z" fill="#E6E6E6"/>
<path d="M281.017 136.607H270.945V214.119H281.017V136.607Z" fill="#F0F0F0"/>
<path d="M182.793 214.12H270.945V136.608H182.793V214.12Z" fill="#F5F5F5"/>
<path d="M181.988 207.312H259.383V165.854H181.988V207.312Z" fill="#FAFAFA"/>
<path d="M181.988 161.459H259.383V147.81H181.988V161.459Z" fill="#FAFAFA"/>
<g style="mix-blend-mode:multiply" opacity="0.7">
<path d="M260.076 165.854H259.383V207.312H260.076V165.854Z" fill="#E6E6E6"/>
</g>
<g style="mix-blend-mode:multiply" opacity="0.7">
<path d="M260.076 147.811H259.383V161.46H260.076V147.811Z" fill="#E6E6E6"/>
</g>
<g style="mix-blend-mode:multiply" opacity="0.7">
<path d="M281.017 139.877H182.57V141.63H281.017V139.877Z" fill="#E6E6E6"/>
</g>
<path d="M282.194 135.548H270.945V140.616H282.194V135.548Z" fill="#F0F0F0"/>
<path d="M181.615 140.617H270.945V135.548H181.615V140.617Z" fill="#F5F5F5"/>
<path d="M215.127 120.624C214.519 119.666 214.118 118.593 213.95 117.471C213.772 116.351 213.715 115.216 213.78 114.084C213.92 111.831 214.4 109.613 215.205 107.504C215.588 106.458 216.025 105.432 216.513 104.43C217.036 103.449 217.56 102.469 218.148 101.533C218.737 100.598 219.384 99.6955 220.051 98.8192C220.718 97.9428 221.471 97.1253 222.249 96.334C221.869 97.3869 221.418 98.381 220.941 99.3751C220.463 100.369 220.091 101.37 219.633 102.338L218.364 105.281L217.782 106.765L217.481 107.504L217.22 108.25C216.472 110.215 215.88 112.235 215.447 114.293C215.222 115.321 215.07 116.363 214.989 117.412C214.892 118.484 214.938 119.564 215.127 120.624Z" fill="#E6E6E6"/>
<path d="M202.433 122.357C202.517 120.778 202.378 119.195 202.02 117.655C201.686 116.251 201.03 114.943 200.104 113.835C199.117 112.738 197.949 111.817 196.651 111.115C195.31 110.337 193.832 109.728 192.309 109.009C194.002 108.828 195.714 109.011 197.331 109.545C198.167 109.819 198.966 110.192 199.712 110.657C200.475 111.148 201.164 111.745 201.759 112.429C202.947 113.83 203.637 115.585 203.721 117.419C203.811 119.159 203.361 120.883 202.433 122.357Z" fill="#E6E6E6"/>
<path d="M203.002 122.128C202.946 120.288 202.774 118.453 202.485 116.635C202.215 114.902 201.734 113.208 201.053 111.592C200.371 110.003 199.434 108.536 198.28 107.25C197.033 105.919 195.648 104.726 194.146 103.692C196.081 103.992 197.905 104.785 199.444 105.994C201.021 107.247 202.26 108.875 203.047 110.729C203.824 112.554 204.209 114.521 204.179 116.504C204.19 118.441 203.789 120.358 203.002 122.128Z" fill="#E6E6E6"/>
<path d="M214.257 118.786C212.836 116.943 211.629 114.944 210.66 112.828C209.674 110.718 208.863 108.531 208.233 106.288C207.597 104.04 207.174 101.736 206.971 99.4082C206.757 97.0806 206.865 94.7346 207.292 92.4365C207.769 94.7321 208.135 96.9491 208.659 99.1531C209.182 101.357 209.705 103.528 210.326 105.693C210.948 107.858 211.575 110.023 212.249 112.187C212.923 114.352 213.609 116.55 214.257 118.786Z" fill="#E6E6E6"/>
<path d="M213.668 118.622C212.049 117.039 210.606 115.285 209.365 113.39C208.122 111.502 207.028 109.518 206.095 107.459C205.148 105.394 204.395 103.246 203.845 101.043C203.288 98.8357 203.035 96.5628 203.093 94.2871C203.917 96.4191 204.63 98.4858 205.474 100.52C206.317 102.554 207.154 104.568 208.09 106.563C209.025 108.557 209.927 110.546 210.882 112.547C211.837 114.548 212.759 116.543 213.668 118.622Z" fill="#E6E6E6"/>
<path d="M216.102 120.715C214.268 119.744 212.565 118.544 211.033 117.144C209.491 115.754 208.083 114.221 206.828 112.566C205.547 110.921 204.451 109.14 203.558 107.256C202.664 105.373 202.068 103.363 201.792 101.298C202.917 103.057 203.911 104.777 205.062 106.419C206.213 108.06 207.325 109.689 208.548 111.252C209.771 112.815 210.994 114.384 212.263 115.941C213.531 117.497 214.82 119.08 216.102 120.715Z" fill="#E6E6E6"/>
<path d="M212.55 118.635C210.768 117.902 209.116 116.886 207.658 115.627C206.186 114.389 204.869 112.98 203.734 111.428C203.157 110.655 202.624 109.849 202.138 109.015C201.664 108.17 201.243 107.296 200.876 106.399C200.123 104.623 199.662 102.737 199.509 100.814C200.536 102.456 201.379 104.084 202.399 105.614C202.857 106.406 203.407 107.138 203.884 107.91C204.361 108.682 204.917 109.401 205.48 110.12C206.561 111.577 207.695 113.005 208.881 114.404C210.032 115.823 211.242 117.203 212.55 118.635Z" fill="#E6E6E6"/>
<path d="M215.336 119.754C214.49 119.157 213.814 118.35 213.374 117.412C212.919 116.477 212.6 115.482 212.426 114.456C212.098 112.423 212.156 110.347 212.596 108.335C212.807 107.348 213.069 106.372 213.38 105.411C213.753 104.476 214.087 103.528 214.531 102.632C214.976 101.736 215.447 100.86 215.977 100.016C216.522 99.1799 217.109 98.3723 217.736 97.5962C217.527 98.5837 217.232 99.519 216.951 100.454C216.67 101.389 216.435 102.331 216.127 103.24C215.82 104.149 215.637 105.091 215.355 106L215.035 107.38C214.924 107.838 214.793 108.296 214.728 108.76C214.333 110.576 214.131 112.428 214.126 114.286C214.118 115.214 214.201 116.141 214.374 117.053C214.538 118.001 214.863 118.915 215.336 119.754Z" fill="#E6E6E6"/>
<path d="M214.12 117.668C212.686 116.135 211.647 114.277 211.092 112.253C210.488 110.209 210.294 108.067 210.523 105.948C210.555 105.418 210.686 104.902 210.771 104.379L210.921 103.594L211.15 102.835C211.32 102.332 211.464 101.828 211.654 101.337C211.844 100.847 212.092 100.376 212.308 99.9052L212.661 99.2054L213.086 98.5514L213.95 97.2434C214.595 96.4384 215.292 95.676 216.036 94.9609C215.696 95.9485 215.244 96.8445 214.878 97.7731L214.362 99.1662L214.1 99.8202L213.891 100.526C213.753 100.991 213.609 101.455 213.459 101.913L213.139 103.319L212.969 104.019L212.87 104.725C212.812 105.196 212.694 105.667 212.668 106.138C212.468 108.042 212.495 109.963 212.746 111.86C212.988 113.841 213.449 115.789 214.12 117.668Z" fill="#E6E6E6"/>
<path d="M211.36 116.87L201.988 108.531L203.375 119.852L211.36 116.87Z" fill="#E6E6E6"/>
<path d="M193.296 115.346H220.489L216.925 135.548H196.86L193.296 115.346Z" fill="#F5F5F5"/>
<path d="M210.287 115.346H220.49L216.925 135.548H211.569L210.287 115.346Z" fill="#EBEBEB"/>
<path d="M244.504 120.663C244.632 119.77 244.595 118.861 244.393 117.981C244.22 117.14 243.95 116.321 243.589 115.542C242.856 113.978 241.926 112.514 240.822 111.186C240.574 110.827 240.253 110.532 239.972 110.186C239.691 109.839 239.403 109.532 239.102 109.185C238.448 108.531 237.886 107.877 237.238 107.223C236.591 106.569 235.97 105.915 235.316 105.261C234.662 104.607 234.008 103.953 233.354 103.24C234.236 103.574 235.074 103.986 235.924 104.404C236.749 104.858 237.55 105.353 238.324 105.889C238.714 106.156 239.09 106.444 239.449 106.752C239.815 107.053 240.175 107.367 240.534 107.674C241.232 108.332 241.887 109.034 242.496 109.774C243.752 111.286 244.669 113.05 245.184 114.947C245.432 115.907 245.519 116.901 245.439 117.89C245.395 118.884 245.071 119.845 244.504 120.663Z" fill="#E6E6E6"/>
<path d="M259.795 117.923C259.106 117.329 258.596 116.554 258.324 115.686C258.172 115.239 258.074 114.776 258.029 114.306C258.016 114.066 258.016 113.826 258.029 113.587C258.022 113.347 258.044 113.108 258.095 112.874C258.479 111.013 259.451 109.326 260.868 108.06C261.195 107.74 261.567 107.485 261.914 107.197C262.259 106.911 262.626 106.653 263.013 106.425C263.392 106.203 263.771 105.974 264.164 105.771C264.354 105.667 264.543 105.549 264.746 105.457L265.348 105.202C265.753 105.032 266.159 104.875 266.564 104.718C266.967 104.555 267.383 104.424 267.807 104.326C268.649 104.106 269.503 103.932 270.364 103.803C269.688 104.338 268.982 104.836 268.251 105.294C267.892 105.51 267.552 105.752 267.211 106C266.871 106.249 266.557 106.471 266.178 106.7C265.465 107.125 264.87 107.668 264.216 108.126C263.89 108.355 263.579 108.606 263.287 108.878C262.987 109.139 262.634 109.375 262.385 109.649C261.252 110.651 260.358 111.893 259.769 113.286C259.644 113.636 259.544 113.994 259.468 114.358C259.408 114.737 259.377 115.119 259.377 115.503C259.376 116.327 259.518 117.146 259.795 117.923Z" fill="#E6E6E6"/>
<path d="M259.095 117.923C257.914 116.384 257.27 114.5 257.264 112.56C257.237 110.573 257.742 108.615 258.729 106.89L259.513 105.647C259.814 105.262 260.135 104.895 260.455 104.529L260.946 103.986L261.482 103.515L262.581 102.593C263.357 102.054 264.163 101.559 264.994 101.109C265.847 100.722 266.72 100.381 267.61 100.088C266.956 100.782 266.302 101.396 265.602 101.985C264.902 102.574 264.333 103.247 263.719 103.869C263.431 104.209 263.15 104.523 262.855 104.856L262.417 105.333L262.044 105.857C261.796 106.203 261.521 106.511 261.279 106.877L260.625 107.956C259.796 109.411 259.236 111.004 258.971 112.658C258.7 114.407 258.742 116.189 259.095 117.923Z" fill="#E6E6E6"/>
<path d="M245.342 118.891C245.885 116.87 246.473 114.921 247.042 113.005C247.611 111.088 248.167 109.133 248.677 107.197C249.187 105.261 249.612 103.312 249.985 101.311C250.358 99.3098 250.561 97.387 250.737 95.2681C251.425 97.2653 251.748 99.3696 251.692 101.481C251.613 103.583 251.309 105.67 250.783 107.707C250.25 109.732 249.529 111.702 248.631 113.593C247.754 115.486 246.649 117.265 245.342 118.891Z" fill="#E6E6E6"/>
<path d="M246.021 118.564C246.872 116.602 247.787 114.64 248.69 112.763C249.592 110.886 250.501 108.976 251.371 107.08C252.241 105.183 253.078 103.28 253.856 101.351C254.635 99.4213 255.302 97.4266 255.956 95.373C256.158 97.5443 256.001 99.734 255.491 101.854C254.976 103.962 254.259 106.017 253.353 107.989C252.442 109.945 251.377 111.826 250.168 113.613C248.97 115.409 247.58 117.07 246.021 118.564Z" fill="#E6E6E6"/>
<path d="M243.36 121.056C244.636 119.303 245.976 117.648 247.284 115.994C248.592 114.339 249.9 112.724 251.169 111.056C252.438 109.388 253.68 107.734 254.871 106.02C256.061 104.307 257.147 102.541 258.252 100.67C257.962 102.832 257.319 104.931 256.349 106.883C255.376 108.823 254.22 110.665 252.896 112.384C251.57 114.086 250.112 115.68 248.533 117.151C246.957 118.637 245.222 119.947 243.36 121.056Z" fill="#E6E6E6"/>
<path d="M247.362 118.204C248.611 116.641 249.861 115.163 251.09 113.665C252.32 112.167 253.51 110.683 254.674 109.172C255.838 107.661 256.917 106.105 257.944 104.516C258.971 102.926 259.906 101.245 260.913 99.5059C260.766 101.516 260.27 103.486 259.448 105.326C258.629 107.164 257.595 108.899 256.368 110.493C255.152 112.08 253.78 113.541 252.274 114.855C250.792 116.183 249.14 117.309 247.362 118.204Z" fill="#E6E6E6"/>
<path d="M244.165 120.029C244.874 118.61 245.216 117.036 245.159 115.451C245.072 113.938 244.685 112.457 244.021 111.095L243.798 110.565L243.517 110.055L242.968 109.022C242.53 108.368 242.137 107.668 241.66 106.994C241.182 106.321 240.751 105.647 240.267 104.974C239.759 104.296 239.285 103.593 238.848 102.868C239.6 103.281 240.329 103.735 241.032 104.228C241.718 104.75 242.373 105.311 242.994 105.909C243.304 106.213 243.595 106.536 243.864 106.877C244.143 107.212 244.418 107.552 244.688 107.897L245.388 109.028L245.721 109.604L245.996 110.219C246.794 111.876 247.089 113.732 246.846 115.555C246.73 116.445 246.432 117.301 245.971 118.071C245.509 118.84 244.895 119.507 244.165 120.029Z" fill="#E6E6E6"/>
<path d="M245.38 117.942C245.918 116.322 246.287 114.649 246.479 112.952C246.656 111.371 246.538 109.77 246.132 108.231C245.929 107.472 245.644 106.737 245.282 106.04C244.922 105.32 244.498 104.635 244.013 103.993C242.972 102.632 241.831 101.351 240.6 100.16C242.352 100.679 243.958 101.602 245.289 102.855C245.983 103.493 246.586 104.224 247.081 105.026C247.591 105.837 247.979 106.718 248.232 107.642C248.724 109.491 248.695 111.44 248.147 113.273C247.651 115.046 246.697 116.656 245.38 117.942Z" fill="#E6E6E6"/>
<path d="M248.579 116.392L258.808 106.569L258.396 116.203L248.579 116.392Z" fill="#E6E6E6"/>
<path d="M237.389 115.346H264.582L261.018 135.548H240.953L237.389 115.346Z" fill="#F5F5F5"/>
<path d="M254.373 115.346H264.582L261.018 135.548H255.661L254.373 115.346Z" fill="#EBEBEB"/>
<path d="M67.9309 23.3608V129.309C67.9309 133.715 66.1808 137.94 63.0655 141.055C59.9502 144.17 55.725 145.92 51.3193 145.92H128.491C132.898 145.92 137.124 144.171 140.24 141.055C143.356 137.94 145.108 133.715 145.109 129.309V23.3608H67.9309Z" fill="#F5F5F5"/>
<path d="M132.997 50.1816H83.1299V100.049H132.997V50.1816Z" fill="#F0F0F0"/>
<path d="M131.467 48.6445H81.5996V98.512H131.467V48.6445Z" fill="white"/>
<path d="M93.8422 105.896H81.1611V118.577H93.8422V105.896Z" fill="white"/>
<path d="M131.46 105.896H118.779V118.577H131.46V105.896Z" fill="white"/>
<path d="M112.652 105.896H99.9707V118.577H112.652V105.896Z" fill="white"/>
<path d="M145.122 23.3608H67.9307V35.97H145.122V23.3608Z" fill="#F0F0F0"/>
<path d="M72.5938 19.3125V27.409C72.5929 27.7055 72.6507 27.9993 72.7638 28.2734C72.8768 28.5476 73.043 28.7967 73.2527 29.0063C73.4624 29.216 73.7115 29.3822 73.9856 29.4953C74.2597 29.6084 74.5535 29.6661 74.8501 29.6653C75.1464 29.6653 75.4398 29.6069 75.7135 29.4935C75.9873 29.3801 76.236 29.2139 76.4455 29.0044C76.655 28.7949 76.8212 28.5462 76.9346 28.2724C77.048 27.9987 77.1064 27.7053 77.1064 27.409V19.3125C77.1046 18.7146 76.8664 18.1417 76.4436 17.7189C76.0208 17.2961 75.4479 17.0579 74.8501 17.0562C74.2516 17.0562 73.6778 17.2939 73.2546 17.717C72.8315 18.1401 72.5938 18.714 72.5938 19.3125Z" fill="#E6E6E6"/>
<path d="M135.979 19.3125V27.409C135.979 28.0074 136.217 28.5813 136.64 29.0044C137.063 29.4276 137.637 29.6653 138.236 29.6653C138.532 29.6661 138.826 29.6084 139.1 29.4953C139.374 29.3822 139.623 29.216 139.833 29.0063C140.043 28.7967 140.209 28.5476 140.322 28.2734C140.435 27.9993 140.493 27.7055 140.492 27.409V19.3125C140.492 18.714 140.254 18.1401 139.831 17.717C139.408 17.2939 138.834 17.0562 138.236 17.0562C137.638 17.0579 137.065 17.2961 136.642 17.7189C136.219 18.1417 135.981 18.7146 135.979 19.3125Z" fill="#E6E6E6"/>
<path d="M123.299 19.3125V27.409C123.299 27.7053 123.357 27.9987 123.471 28.2724C123.584 28.5462 123.75 28.7949 123.96 29.0044C124.169 29.2139 124.418 29.3801 124.692 29.4935C124.965 29.6069 125.259 29.6653 125.555 29.6653C125.851 29.6653 126.145 29.6069 126.419 29.4935C126.692 29.3801 126.941 29.2139 127.151 29.0044C127.36 28.7949 127.526 28.5462 127.64 28.2724C127.753 27.9987 127.811 27.7053 127.811 27.409V19.3125C127.81 18.7168 127.573 18.1459 127.153 17.7235C126.733 17.3011 126.164 17.0613 125.568 17.0562C125.271 17.0553 124.977 17.113 124.702 17.2259C124.427 17.3388 124.177 17.5048 123.966 17.7143C123.755 17.9238 123.588 18.1728 123.474 18.447C123.359 18.7212 123.3 19.0153 123.299 19.3125Z" fill="#E6E6E6"/>
<path d="M110.617 19.3125V27.409C110.616 27.7055 110.674 27.9993 110.787 28.2734C110.9 28.5476 111.066 28.7967 111.276 29.0063C111.486 29.216 111.735 29.3822 112.009 29.4953C112.283 29.6084 112.577 29.6661 112.873 29.6653C113.468 29.6601 114.036 29.4199 114.454 28.9971C114.872 28.5743 115.105 28.0034 115.104 27.409V19.3125C115.104 18.7152 114.867 18.1423 114.445 17.7193C114.023 17.2964 113.451 17.0579 112.854 17.0562C112.259 17.0613 111.69 17.3013 111.271 17.7239C110.852 18.1465 110.617 18.7174 110.617 19.3125Z" fill="#E6E6E6"/>
<path d="M97.9365 19.3125V27.409C97.9357 27.705 97.9932 27.9982 98.1059 28.2719C98.2186 28.5456 98.3842 28.7944 98.5932 29.004C98.8022 29.2136 99.0505 29.3799 99.3238 29.4934C99.5972 29.6069 99.8903 29.6653 100.186 29.6653C100.483 29.6661 100.777 29.6084 101.051 29.4953C101.325 29.3822 101.574 29.216 101.784 29.0063C101.993 28.7967 102.16 28.5476 102.273 28.2734C102.386 27.9993 102.443 27.7055 102.443 27.409V19.3125C102.443 18.714 102.205 18.1401 101.782 17.717C101.359 17.2939 100.785 17.0562 100.186 17.0562C99.589 17.0579 99.0168 17.2964 98.5951 17.7193C98.1733 18.1423 97.9365 18.7152 97.9365 19.3125Z" fill="#E6E6E6"/>
<path d="M85.249 19.3125V27.409C85.249 27.7053 85.3074 27.9987 85.4208 28.2724C85.5342 28.5462 85.7004 28.7949 85.9099 29.0044C86.1194 29.2139 86.3681 29.3801 86.6419 29.4935C86.9156 29.6069 87.209 29.6653 87.5053 29.6653C87.8016 29.6653 88.095 29.6069 88.3688 29.4935C88.6425 29.3801 88.8912 29.2139 89.1008 29.0044C89.3103 28.7949 89.4765 28.5462 89.5899 28.2724C89.7033 27.9987 89.7616 27.7053 89.7616 27.409V19.3125C89.7599 18.7146 89.5216 18.1417 89.0989 17.7189C88.6761 17.2961 88.1032 17.0579 87.5053 17.0562C86.9074 17.0579 86.3346 17.2961 85.9118 17.7189C85.489 18.1417 85.2507 18.7146 85.249 19.3125Z" fill="#E6E6E6"/>
<path d="M121.559 138.936C121.559 140.779 122.291 142.548 123.595 143.851C124.899 145.155 126.667 145.888 128.511 145.888H41.6532C39.8094 145.888 38.0411 145.155 36.7374 143.851C35.4336 142.548 34.7012 140.779 34.7012 138.936H121.559Z" fill="#E6E6E6"/>
<path opacity="0.2" d="M176.311 173.788C176.311 173.788 128.248 202.165 128.248 229.051H224.386C224.38 202.165 176.311 173.788 176.311 173.788Z" fill="#301DA4"/>
<path opacity="0.2" d="M176.311 207.646C176.311 207.646 131.931 218.639 131.931 229.051H220.692C220.692 218.639 176.311 207.646 176.311 207.646Z" fill="#301DA4"/>
<path opacity="0.3" d="M182.145 181.623C191.17 190.497 208.71 210.163 208.71 229.051H196.683C196.683 210.163 187.082 190.497 182.145 181.623Z" fill="white"/>
<path opacity="0.2" d="M176.311 173.788C176.311 173.788 128.248 145.411 128.248 118.525H224.386C224.38 145.411 176.311 173.788 176.311 173.788Z" fill="#301DA4"/>
<path opacity="0.2" d="M176.311 171.198C176.311 171.198 151.772 159.426 151.772 148.243H200.855C200.855 159.406 176.311 171.198 176.311 171.198Z" fill="#301DA4"/>
<path opacity="0.3" d="M171.073 165.953C162.054 157.078 144.533 137.412 144.533 118.525H156.56C156.534 137.412 166.115 157.078 171.073 165.953Z" fill="white"/>
<path opacity="0.3" d="M182.145 165.953C191.17 157.078 208.272 135.136 208.71 118.525H205.505C204.001 138.779 189.286 157.366 182.145 165.953Z" fill="white"/>
<path d="M217.853 109.035H212.405V109.689H217.853V109.035Z" fill="#301DA4"/>
<path d="M236.348 118.021H235.694C235.692 115.813 234.815 113.696 233.254 112.134C231.693 110.572 229.577 109.693 227.369 109.689H221.62V109.035H227.369C229.75 109.04 232.032 109.989 233.715 111.673C235.398 113.357 236.345 115.64 236.348 118.021Z" fill="#301DA4"/>
<path d="M227.362 111.324H125.259C121.561 111.324 118.562 114.323 118.562 118.021V119.028C118.562 122.727 121.561 125.725 125.259 125.725H227.362C231.061 125.725 234.059 122.727 234.059 119.028V118.021C234.059 114.323 231.061 111.324 227.362 111.324Z" fill="#301DA4"/>
<path d="M227.362 221.85H125.259C121.561 221.85 118.562 224.848 118.562 228.547V229.554C118.562 233.253 121.561 236.251 125.259 236.251H227.362C231.061 236.251 234.059 233.253 234.059 229.554V228.547C234.059 224.848 231.061 221.85 227.362 221.85Z" fill="#301DA4"/>
<path d="M92.0308 163.186L87.5967 159.249L95.1569 147.641L99.591 151.571L92.0308 163.186Z" fill="#FF8B7B"/>
<path d="M88.5119 156.751L94.1494 160.675C94.1976 160.705 94.2393 160.744 94.2722 160.79C94.3052 160.836 94.3287 160.889 94.3415 160.944C94.3542 160.999 94.3559 161.056 94.3466 161.112C94.3372 161.168 94.3169 161.222 94.2868 161.27L91.4615 165.926C91.2988 166.16 91.0505 166.321 90.7703 166.374C90.4901 166.426 90.2004 166.367 89.9638 166.208C88.0018 164.815 87.2759 164.134 84.928 162.238C82.6074 160.414 80.381 158.473 78.2572 156.424C76.5176 154.619 78.3553 152.873 79.2775 153.494C81.4553 154.972 85.2419 156.6 87.4328 156.469C87.8139 156.439 88.1941 156.538 88.5119 156.751Z" fill="#263238"/>
<path opacity="0.2" d="M99.584 151.578L95.1499 147.641L91.5137 153.232L96.059 157.006L99.584 151.578Z" fill="black"/>
<path d="M144.697 93.5875C144.697 93.5875 114.94 91.5535 111.251 101.638C102.861 124.567 91.9453 148.89 91.9453 148.89L100.715 155.24C100.715 155.24 119.256 126.889 124.913 108.688C136.358 111.468 157.051 113.842 163.715 106.19C169.405 99.65 165.148 93.5875 165.148 93.5875H144.697Z" fill="#263238"/>
<path opacity="0.3" d="M119.211 111.409C118.517 114.208 117.465 122.226 116.811 127.543C118.256 124.744 119.629 121.906 120.865 119.133L119.211 111.409Z" fill="black"/>
<path d="M100.153 158.111L90.2061 150.315L92.24 145.947L103.358 154.442L100.153 158.111Z" fill="#301DA4"/>
<path d="M86.1252 156.391C86.5863 156.692 87.0772 156.944 87.5901 157.143C87.6157 157.152 87.6432 157.154 87.6695 157.148C87.6959 157.142 87.72 157.128 87.7391 157.109C87.7582 157.09 87.7715 157.066 87.7776 157.04C87.7836 157.013 87.7821 156.986 87.7733 156.96C87.6882 156.738 86.9427 154.782 86.1644 154.593C86.0751 154.572 85.9822 154.575 85.8941 154.6C85.8061 154.625 85.7258 154.672 85.6608 154.737C85.5514 154.823 85.4667 154.937 85.415 155.067C85.3634 155.197 85.3467 155.338 85.3665 155.476C85.4989 155.863 85.7688 156.189 86.1252 156.391ZM87.3874 156.751C86.3606 156.306 85.7197 155.816 85.6478 155.443C85.6365 155.352 85.65 155.26 85.6868 155.176C85.7236 155.092 85.7824 155.019 85.857 154.966C85.8873 154.933 85.9257 154.909 85.9682 154.897C86.0108 154.884 86.0559 154.883 86.099 154.894C86.5176 154.998 87.0604 155.973 87.3874 156.751Z" fill="#301DA4"/>
<path d="M87.5575 157.124C87.5789 157.13 87.6015 157.13 87.6229 157.124C87.6473 157.126 87.672 157.123 87.6948 157.114C87.7176 157.105 87.7378 157.09 87.7537 157.071C87.7995 157.019 88.9113 155.652 88.7478 154.809C88.7262 154.701 88.6802 154.599 88.6134 154.512C88.5465 154.425 88.4605 154.354 88.3619 154.305C88.2614 154.242 88.1431 154.214 88.025 154.224C87.9069 154.235 87.7955 154.284 87.7079 154.364C87.2109 154.828 87.2305 156.398 87.5248 157.045C87.5291 157.074 87.5404 157.101 87.5575 157.124ZM88.2834 154.619C88.3307 154.65 88.3713 154.691 88.4028 154.738C88.4342 154.785 88.4559 154.838 88.4666 154.894C88.5647 155.391 88.0349 156.247 87.6883 156.718C87.5052 156.064 87.564 154.9 87.8845 154.599C87.9499 154.54 88.0415 154.482 88.2311 154.599L88.2834 154.619Z" fill="#301DA4"/>
<path d="M131.127 170.047L125.404 171.191L124.345 155.868L130.159 156.051L131.127 170.047Z" fill="#FF8B7B"/>
<path d="M124.626 169.098L131.166 166.345C131.219 166.319 131.277 166.303 131.337 166.3C131.396 166.297 131.456 166.305 131.512 166.325C131.568 166.346 131.62 166.377 131.664 166.417C131.707 166.458 131.743 166.507 131.767 166.561L134.266 171.584C134.38 171.855 134.383 172.161 134.274 172.435C134.165 172.709 133.953 172.929 133.683 173.049C131.394 173.971 130.257 174.291 127.385 175.508C125.62 176.253 120.845 178.411 118.295 179.046C115.744 179.68 115.169 177.123 116.202 176.626C118.648 175.449 122.703 171.858 123.795 169.877C123.981 169.535 124.272 169.262 124.626 169.098Z" fill="#263238"/>
<path d="M122.998 170.982C123.513 170.746 124.002 170.457 124.456 170.119C124.479 170.101 124.496 170.078 124.506 170.051C124.517 170.025 124.52 169.996 124.515 169.968C124.507 169.941 124.492 169.916 124.471 169.896C124.451 169.877 124.425 169.863 124.397 169.857C124.162 169.805 122.043 169.379 121.448 169.955C121.38 170.021 121.33 170.103 121.304 170.193C121.277 170.284 121.275 170.38 121.297 170.472C121.312 170.613 121.364 170.748 121.448 170.863C121.531 170.978 121.644 171.069 121.775 171.126C122.186 171.231 122.622 171.18 122.998 170.982ZM123.998 170.079C123.05 170.733 122.272 171.014 121.886 170.864C121.8 170.825 121.726 170.762 121.673 170.684C121.62 170.605 121.59 170.514 121.585 170.419C121.572 170.375 121.572 170.328 121.583 170.283C121.595 170.238 121.618 170.197 121.65 170.164C121.971 169.857 123.148 169.935 123.998 170.079Z" fill="#301DA4"/>
<path d="M124.423 170.138C124.445 170.127 124.465 170.111 124.482 170.093C124.492 170.071 124.498 170.048 124.498 170.024C124.498 170 124.492 169.977 124.482 169.955C124.482 169.883 123.88 168.157 123.056 167.836C122.95 167.794 122.835 167.777 122.722 167.788C122.608 167.798 122.499 167.835 122.402 167.895C122.287 167.946 122.193 168.035 122.136 168.147C122.079 168.259 122.062 168.387 122.088 168.51C122.219 169.164 123.599 170.047 124.325 170.145C124.357 170.156 124.392 170.153 124.423 170.138ZM122.637 168.118C122.691 168.095 122.749 168.083 122.807 168.083C122.866 168.083 122.924 168.095 122.977 168.118C123.468 168.307 123.919 169.242 124.141 169.805C123.487 169.589 122.487 168.915 122.402 168.458C122.402 168.373 122.402 168.261 122.578 168.157L122.637 168.118Z" fill="#301DA4"/>
<path opacity="0.2" d="M130.165 156.058L124.345 155.868L124.901 163.873L130.695 163.768L130.165 156.058Z" fill="black"/>
<path d="M159.151 93.5874C159.151 93.5874 116.641 97.6095 118.171 110.408C120.408 128.871 122.043 161.198 122.043 161.198L132.88 161.623C132.88 161.623 136.948 133.2 134.567 114.293C145.574 114.293 169.484 114.875 173.689 109.185C178.679 102.436 176.371 93.5874 176.371 93.5874H159.151Z" fill="#263238"/>
<path d="M134.076 162.29L121.068 161.643L120.604 155.986L134.867 156.967L134.076 162.29Z" fill="#301DA4"/>
<path d="M149.713 56.1067C149.622 57.2773 149.517 58.3172 149.373 59.4094C149.229 60.5016 149.092 61.5676 148.922 62.6467C148.608 64.7983 148.176 66.9369 147.692 69.0886C147.208 71.2402 146.613 73.3854 145.868 75.5501C145.111 77.8274 144.118 80.0193 142.905 82.0901C142.181 83.3084 141.302 84.4274 140.289 85.419C140.021 85.6696 139.739 85.9054 139.445 86.1253C139.177 86.3477 138.909 86.5373 138.634 86.727C138.111 87.0958 137.568 87.4343 137.006 87.7407C134.932 88.869 132.738 89.7618 130.466 90.4024C129.387 90.736 128.301 91.0041 127.196 91.2461C126.091 91.4881 125.038 91.6974 123.926 91.8674C121.762 92.2215 119.577 92.4399 117.386 92.5214C116.846 92.5443 116.315 92.3706 115.893 92.0326C115.471 91.6945 115.186 91.215 115.09 90.6828C114.994 90.1505 115.095 89.6016 115.372 89.1377C115.65 88.6737 116.087 88.3261 116.601 88.1592L116.686 88.1265C120.521 86.9133 124.284 85.4809 127.955 83.8363C129.642 83.0724 131.258 82.1574 132.781 81.1026C133.128 80.854 133.435 80.599 133.749 80.3439C133.893 80.2197 134.043 80.0954 134.168 79.9646C134.283 79.8604 134.393 79.749 134.495 79.6311C134.929 79.1061 135.302 78.5335 135.606 77.9241C136.4 76.3123 137.037 74.6282 137.509 72.8949C138.039 71.0571 138.497 69.1409 138.876 67.192C139.256 65.2431 139.596 63.268 139.916 61.2667C140.237 59.2655 140.479 57.225 140.701 55.3284V55.2172C140.865 54.0704 141.465 53.0311 142.377 52.3164C143.289 51.6017 144.441 51.2667 145.594 51.3815C146.747 51.4963 147.811 52.0519 148.564 52.9323C149.316 53.8128 149.7 54.9501 149.635 56.1067H149.713Z" fill="#301DA4"/>
<path d="M117.602 86.9819L114.332 87.1847L116.948 93.2015C116.948 93.2015 122.605 93.0772 122.487 90.2912L121.467 88.9832C121 88.3961 120.415 87.9144 119.748 87.5695C119.082 87.2246 118.351 87.0244 117.602 86.9819Z" fill="#FF8B7B"/>
<path d="M110.748 87.6817L113.573 93.2146H116.941L114.325 87.1978L110.748 87.6817Z" fill="#FF8B7B"/>
<path d="M149.242 46.833L155.566 45.525L160.602 44.799C161.322 44.6814 162.053 44.6485 162.78 44.7009C164.713 44.8762 166.546 45.6369 168.034 46.8815C169.523 48.126 170.597 49.7952 171.112 51.666C172.374 56.244 173.512 61.8619 174.382 66.8388C175.598 73.7516 176.226 84.1371 176.344 93.5809H146.384C145.73 76.4788 142.094 65.4589 140.858 58.6246C140.486 56.5613 140.802 54.4329 141.758 52.567C142.714 50.701 144.257 49.2011 146.149 48.2979L149.242 46.833Z" fill="#301DA4"/>
<path d="M146.385 50.5935C146.457 53.4057 147.039 63.4316 150.054 69.1279C150.583 63.7913 156.921 47.5459 156.921 47.5459L146.385 50.5935Z" fill="#F5F5F5"/>
<path opacity="0.3" d="M175.069 71.5346C175.069 71.43 175.069 71.3319 175.03 71.2207L174.971 70.7498C174.938 70.4948 174.906 70.2397 174.873 69.9977L174.775 69.298L174.677 68.644C174.677 68.4608 174.618 68.2712 174.592 68.0946C174.526 67.676 174.461 67.2706 174.389 66.8716C174.173 65.6486 173.944 64.3799 173.696 63.1046V62.9999C173.447 61.6919 173.192 60.4297 172.917 59.1544V59.0694C172.806 58.52 172.689 57.9838 172.564 57.4409L172.427 56.8393L172.192 55.7994L171.995 54.9884L171.956 54.8184C171.695 53.7458 171.426 52.6929 171.152 51.6988L166.606 49.3052C167.13 51.313 167.627 53.5235 168.098 55.7863C167.554 56.071 167.052 56.4297 166.606 56.8523C165.521 57.8203 165.56 59.8804 166.646 62.3198C169.651 69.2952 171.315 76.7745 171.551 84.3661C171.688 87.4465 171.773 90.566 171.812 93.5941H176.39C176.259 86.0927 175.841 78.0092 175.069 71.5346Z" fill="black"/>
<path d="M153.212 34.2305L150.642 38.1545L147.149 43.4846C147.599 43.9425 147.964 44.476 148.229 45.0607C148.883 46.3687 149.393 47.3105 146.692 49.1482C146.116 49.5406 146.097 50.1619 146.227 50.8486C146.384 51.6857 146.881 52.5621 149.785 52.0454C152.591 51.5056 155.153 50.0852 157.097 47.9906C158.065 47.0162 157.842 46.2902 156.907 45.2831C154.265 42.4382 153.474 37.8929 153.212 34.2305Z" fill="#FF8B7B"/>
<path d="M147.038 52.1436L148.889 53.3077L151.897 52.0324C151.188 51.3165 150.274 50.8389 149.281 50.6655C148.417 50.9524 147.643 51.4622 147.038 52.1436Z" fill="#263238"/>
<path d="M149.249 50.6655C150.629 51.2345 151.322 52.5163 151.95 53.9944C151.95 53.9944 158.562 48.9847 158.699 45.682C158.346 44.5572 156.692 44.7534 156.692 44.7534C156.692 44.7534 154.677 48.2457 149.249 50.6655Z" fill="white"/>
<path d="M149.249 50.6657C148.604 50.9266 148.057 51.3814 147.682 51.9672C147.307 52.553 147.123 53.2409 147.156 53.9357C147.156 53.9357 144.213 50.4825 146.607 47.8731C147.256 47.5323 147.946 47.2752 148.66 47.1079C148.66 47.1079 147.941 48.5467 149.249 50.6657Z" fill="white"/>
<path d="M149.471 52.7646H148.628C148.353 53.2355 147.974 59.3701 147.823 62.6335C148.227 64.5388 148.821 66.3989 149.596 68.186C149.593 68.2077 149.593 68.2297 149.596 68.2514C149.641 68.356 149.687 68.4541 149.739 68.5522C149.831 68.7484 149.923 68.9446 150.027 69.1277C150.329 67.1018 150.8 65.1046 151.433 63.1567C150.57 59.3766 149.471 52.7646 149.471 52.7646Z" fill="#263238"/>
<path opacity="0.2" d="M148.013 42.1699L150.158 38.3701C150.197 38.4617 150.25 38.5729 150.302 38.6775C150.49 39.1518 150.643 39.6392 150.76 40.1359C151.152 41.8298 149.844 44.2365 148.399 45.3679C148.34 45.2633 148.288 45.1521 148.229 45.0409C147.972 44.4918 147.639 43.9812 147.241 43.5236L147.156 43.4582L148.013 42.1699Z" fill="black"/>
<path d="M137.561 34.0083C137.045 31.6866 140.74 28.4755 140.74 28.4755L136.365 26.9517C134.39 28.3708 135.671 32.4191 137.561 34.0083Z" fill="#263238"/>
<path d="M152.303 27.2982C153.336 33.1057 154.265 36.4542 152.081 40.1623C151.396 41.3799 150.392 42.3871 149.176 43.075C147.96 43.7628 146.579 44.105 145.183 44.0646C143.787 44.0242 142.428 43.6027 141.254 42.8457C140.081 42.0887 139.136 41.0251 138.523 39.7699C136.071 34.9827 134.795 26.2975 139.785 22.4847C140.843 21.6322 142.106 21.0725 143.448 20.8618C144.79 20.6512 146.163 20.7969 147.431 21.2844C148.699 21.772 149.816 22.5842 150.671 23.6396C151.526 24.6951 152.089 25.9568 152.303 27.2982Z" fill="#FF8B7B"/>
<path d="M152.381 33.1709L149.634 32.4188V28.8872C149.634 28.8872 146.162 26.9252 146.698 24.4727C146.964 23.0939 147.338 21.7381 147.816 20.4179C147.816 20.4179 153.323 20.0647 155.01 20.771C154.573 21.2446 154.099 21.682 153.591 22.079C154.912 22.9925 156.044 24.1516 156.926 25.4929C156.237 25.6465 155.592 25.9577 155.043 26.402C155.043 26.402 155.762 31.2481 152.381 33.1709Z" fill="#263238"/>
<path d="M146.063 16.651C148.084 17.9197 146.914 20.248 146.914 20.248L152.322 20.3591C152.035 18.6522 147.345 16.5659 146.063 16.651Z" fill="#263238"/>
<path d="M148.177 25.663C147.791 26.7486 143.409 28.0828 139.413 28.2136C137.422 28.1704 135.451 27.7992 133.58 27.1149C134.144 26.5354 134.809 26.0634 135.542 25.7219C133.128 25.1267 130.074 23.0078 129.23 21.2812C130.992 20.6515 132.896 20.5291 134.724 20.928C134.126 20.423 133.634 19.8037 133.278 19.1063C132.922 18.4089 132.709 17.6475 132.651 16.8667C132.651 16.8667 142.879 20.9215 146.817 19.2407C151.094 17.4095 154.344 20.843 151.532 23.459C148.72 26.075 148.177 25.663 148.177 25.663Z" fill="#263238"/>
<path d="M155.429 31.5032C155.485 32.7841 155.068 34.0408 154.258 35.0348C153.199 36.2971 151.551 35.2899 151.171 33.7268C150.831 32.3077 151.276 30.1168 152.669 29.4366C154.062 28.7565 155.357 29.914 155.429 31.5032Z" fill="#FF8B7B"/>
<path d="M143.461 32.7002C143.605 33.158 143.461 33.6092 143.199 33.7204C142.938 33.8316 142.545 33.5438 142.395 33.0664C142.244 32.589 142.395 32.1573 142.656 32.0462C142.918 31.935 143.31 32.2162 143.461 32.7002Z" fill="#263238"/>
<path d="M138.392 34.5313C138.536 34.9825 138.392 35.4403 138.131 35.545C137.869 35.6496 137.477 35.3749 137.326 34.891C137.176 34.407 137.326 33.9819 137.588 33.8773C137.85 33.7726 138.242 34.0735 138.392 34.5313Z" fill="#263238"/>
<path d="M140.125 34.2896C140.146 35.643 139.988 36.9933 139.654 38.3051C139.986 38.3757 140.33 38.3718 140.66 38.2938C140.99 38.2158 141.299 38.0655 141.564 37.8538L140.125 34.2896Z" fill="#A02724"/>
<path d="M143.226 39.5998C143.751 39.4237 144.236 39.1444 144.651 38.7783C145.067 38.4121 145.405 37.9665 145.646 37.4677C145.659 37.433 145.658 37.3945 145.643 37.3604C145.629 37.3263 145.601 37.2991 145.567 37.2846C145.551 37.2771 145.533 37.273 145.514 37.2725C145.496 37.272 145.478 37.2753 145.461 37.282C145.443 37.2887 145.428 37.2987 145.415 37.3115C145.402 37.3244 145.391 37.3397 145.384 37.3566C145.119 37.8974 144.732 38.3699 144.255 38.7374C143.777 39.1048 143.222 39.3574 142.631 39.4755C142.613 39.4793 142.595 39.4868 142.58 39.4976C142.565 39.5083 142.552 39.5221 142.542 39.538C142.532 39.5539 142.526 39.5717 142.523 39.5902C142.52 39.6087 142.521 39.6275 142.526 39.6456C142.534 39.6811 142.556 39.7121 142.586 39.7317C142.617 39.7513 142.654 39.758 142.69 39.7502C142.872 39.7118 143.051 39.6615 143.226 39.5998Z" fill="#263238"/>
<path d="M144.586 30.0186C144.626 29.9946 144.66 29.9609 144.684 29.9205C144.705 29.8902 144.719 29.856 144.726 29.8201C144.734 29.7841 144.734 29.747 144.726 29.711C144.719 29.6751 144.705 29.6409 144.684 29.6106C144.663 29.5803 144.637 29.5545 144.606 29.5347C144.238 29.2887 143.816 29.1362 143.376 29.0906C142.936 29.045 142.491 29.1077 142.081 29.2731C142.048 29.289 142.018 29.3113 141.993 29.3388C141.968 29.3663 141.949 29.3984 141.936 29.4333C141.924 29.4683 141.918 29.5053 141.92 29.5423C141.922 29.5793 141.931 29.6156 141.947 29.6491C141.963 29.6826 141.985 29.7127 142.013 29.7375C142.04 29.7624 142.072 29.7816 142.107 29.794C142.142 29.8065 142.179 29.8119 142.216 29.8101C142.253 29.8082 142.29 29.7991 142.323 29.7832C142.644 29.6588 142.99 29.614 143.332 29.6527C143.673 29.6914 144.001 29.8125 144.285 30.0056C144.329 30.036 144.38 30.0534 144.434 30.0558C144.487 30.0581 144.54 30.0452 144.586 30.0186Z" fill="#263238"/>
<path d="M137.386 31.7778C137.398 31.7328 137.398 31.6853 137.386 31.6404C137.357 31.5721 137.302 31.518 137.233 31.4898C137.165 31.4617 137.088 31.4617 137.019 31.49C136.607 31.6499 136.241 31.9091 135.954 32.2446C135.666 32.58 135.466 32.9813 135.371 33.4128C135.369 33.4805 135.392 33.5466 135.435 33.5989C135.479 33.6512 135.539 33.6861 135.606 33.6972C135.673 33.7084 135.742 33.695 135.799 33.6595C135.857 33.6241 135.9 33.569 135.921 33.5043C136.002 33.1679 136.163 32.8561 136.391 32.5953C136.619 32.3346 136.906 32.1327 137.229 32.0067C137.272 31.9853 137.31 31.953 137.337 31.9129C137.365 31.8728 137.381 31.8262 137.386 31.7778Z" fill="#263238"/>
<path d="M169.719 48.8541C170.438 49.7435 171.066 50.548 171.681 51.4047C172.296 52.2615 172.937 53.1116 173.538 53.9815C174.761 55.7146 175.899 57.5131 177.011 59.3443C178.123 61.1755 179.156 63.0851 180.085 65.106C181.093 67.2025 181.892 69.3931 182.472 71.646C182.797 72.9557 182.969 74.299 182.982 75.6485C182.966 76.9978 182.772 78.339 182.407 79.6379C181.755 81.8992 180.805 84.0634 179.581 86.0732C179.019 87.0346 178.411 87.9568 177.776 88.8462C177.142 89.7357 176.468 90.5989 175.814 91.4295C174.449 93.0997 172.965 94.669 171.374 96.1252C170.975 96.4801 170.464 96.6815 169.93 96.6932C169.397 96.7049 168.877 96.5262 168.464 96.1892C168.05 95.8521 167.771 95.3788 167.675 94.8541C167.579 94.3294 167.673 93.7877 167.94 93.3261L167.999 93.228C170.03 89.933 171.805 86.4873 173.309 82.921C173.984 81.3137 174.476 79.6354 174.774 77.9179C174.884 77.2281 174.912 76.528 174.859 75.8316C174.781 75.1424 174.632 74.4631 174.415 73.8042C173.849 72.132 173.138 70.5126 172.289 68.9646C171.419 67.3231 170.438 65.6946 169.392 64.04C168.346 62.3854 167.247 60.77 166.122 59.1808L164.402 56.7871C163.826 56.0089 163.225 55.1783 162.682 54.4654L162.643 54.4131C161.906 53.4782 161.57 52.2888 161.71 51.1064C161.85 49.9241 162.453 48.8457 163.388 48.1085C164.323 47.3714 165.513 47.0358 166.695 47.1756C167.877 47.3154 168.956 47.9192 169.693 48.8541H169.719Z" fill="#301DA4"/>
<path d="M107.406 97.0993L163.048 94.5814C163.224 94.5699 163.4 94.5939 163.566 94.652C163.732 94.7102 163.884 94.8012 164.014 94.9196C164.145 95.038 164.249 95.1815 164.323 95.3414C164.396 95.5013 164.436 95.6743 164.441 95.8502L106.137 98.4662C106.129 98.2928 106.156 98.1195 106.216 97.9566C106.275 97.7936 106.367 97.6441 106.485 97.5169C106.603 97.3897 106.745 97.2872 106.903 97.2156C107.062 97.1439 107.232 97.1043 107.406 97.0993Z" fill="#301DA4"/>
<g opacity="0.6">
<path d="M107.406 97.0998L163.048 94.5819C163.224 94.5704 163.4 94.5944 163.566 94.6525C163.732 94.7106 163.884 94.8016 164.014 94.9201C164.145 95.0385 164.249 95.182 164.323 95.3419C164.396 95.5018 164.436 95.6748 164.441 95.8507L106.137 98.4667C106.129 98.2933 106.156 98.12 106.216 97.9571C106.275 97.7941 106.367 97.6446 106.485 97.5174C106.603 97.3902 106.745 97.2877 106.903 97.216C107.062 97.1443 107.232 97.1048 107.406 97.0998Z" fill="white"/>
</g>
<path d="M98.5511 71.2861L138.138 69.4941C138.392 69.4976 138.638 69.5791 138.844 69.7277C139.05 69.8764 139.205 70.0848 139.289 70.3247L146.888 94.4377C146.929 94.5373 146.945 94.6454 146.934 94.7526C146.923 94.8597 146.886 94.9624 146.826 95.0517C146.766 95.141 146.684 95.2141 146.589 95.2644C146.494 95.3147 146.388 95.3408 146.28 95.3402L106.693 97.1322C106.441 97.1298 106.195 97.0493 105.99 96.9017C105.786 96.7542 105.631 96.5468 105.549 96.3081L97.9495 72.1886C97.9087 72.0895 97.893 71.982 97.9036 71.8754C97.9142 71.7688 97.9508 71.6664 98.0102 71.5773C98.0696 71.4882 98.15 71.415 98.2444 71.3643C98.3387 71.3135 98.444 71.2866 98.5511 71.2861Z" fill="#301DA4"/>
<path opacity="0.6" d="M98.5511 71.2861L138.138 69.4941C138.392 69.4976 138.638 69.5791 138.844 69.7277C139.05 69.8764 139.205 70.0848 139.289 70.3247L146.888 94.4377C146.929 94.5373 146.945 94.6454 146.934 94.7526C146.923 94.8597 146.886 94.9624 146.826 95.0517C146.766 95.141 146.684 95.2141 146.589 95.2644C146.494 95.3147 146.388 95.3408 146.28 95.3402L106.693 97.1322C106.441 97.1298 106.195 97.0493 105.99 96.9017C105.786 96.7542 105.631 96.5468 105.549 96.3081L97.9495 72.1886C97.9087 72.0895 97.893 71.982 97.9036 71.8754C97.9142 71.7688 97.9508 71.6664 98.0102 71.5773C98.0696 71.4882 98.15 71.415 98.2444 71.3643C98.3387 71.3135 98.444 71.2866 98.5511 71.2861Z" fill="white"/>
<path opacity="0.5" d="M139.301 70.3184L146.901 94.4313C146.943 94.5313 146.96 94.6401 146.95 94.7481C146.94 94.8562 146.903 94.9599 146.842 95.0501C146.782 95.1403 146.7 95.214 146.604 95.2647C146.508 95.3154 146.401 95.3414 146.293 95.3404L138.15 69.4878C138.404 69.4912 138.651 69.5728 138.857 69.7214C139.063 69.87 139.218 70.0785 139.301 70.3184Z" fill="#301DA4"/>
<path opacity="0.5" d="M148.418 95.2422L163.048 94.5882C163.224 94.5767 163.4 94.6008 163.566 94.6589C163.732 94.717 163.884 94.808 164.014 94.9264C164.144 95.0449 164.249 95.1883 164.323 95.3482C164.396 95.5081 164.436 95.6812 164.441 95.857L147.149 96.6353C147.138 96.4597 147.162 96.2837 147.22 96.1177C147.278 95.9516 147.369 95.799 147.487 95.669C147.606 95.5389 147.749 95.4341 147.909 95.3608C148.069 95.2875 148.242 95.2471 148.418 95.2422Z" fill="#301DA4"/>
<path d="M166.9 93.0514L163.159 93.5942L166.992 98.9243C166.992 98.9243 173.08 97.9498 172.374 95.2488L171.066 94.1632C170.488 93.6968 169.819 93.3569 169.101 93.1654C168.383 92.9739 167.634 92.9351 166.9 93.0514Z" fill="#FF8B7B"/>
<path d="M158.581 95.19L163.27 99.2775L166.991 98.9243L163.159 93.5942L158.581 95.19Z" fill="#FF8B7B"/>
</svg>
