<svg width="327" height="244" viewBox="0 0 327 244" fill="none" xmlns="http://www.w3.org/2000/svg">
<path d="M163.499 243.654C233.531 243.654 290.303 240.34 290.303 236.251C290.303 232.162 233.531 228.848 163.499 228.848C93.4674 228.848 36.6953 232.162 36.6953 236.251C36.6953 240.34 93.4674 243.654 163.499 243.654Z" fill="#F5F5F5"/>
<path d="M327 214.12H0V214.283H327V214.12Z" fill="#EBEBEB"/>
<path d="M55.9691 220.346H34.3086V220.509H55.9691V220.346Z" fill="#EBEBEB"/>
<path d="M147.15 220.431H111.926V220.594H147.15V220.431Z" fill="#EBEBEB"/>
<path d="M81.7241 223.72H69.1738V223.884H81.7241V223.72Z" fill="#EBEBEB"/>
<path d="M291.684 223.642H279.107V223.805H291.684V223.642Z" fill="#EBEBEB"/>
<path d="M273.28 223.642H253.471V223.805H273.28V223.642Z" fill="#EBEBEB"/>
<path d="M242.562 222.562H214.728V222.726H242.562V222.562Z" fill="#EBEBEB"/>
<path d="M154.998 184.951H28.7171C27.7278 184.949 26.7796 184.555 26.0807 183.855C25.3818 183.155 24.9893 182.206 24.9893 181.217V3.70164C24.9979 2.71804 25.3942 1.77756 26.0922 1.08447C26.7902 0.391392 27.7334 0.00168496 28.7171 0H154.998C155.988 0 156.938 0.393438 157.639 1.09376C158.339 1.79409 158.732 2.74393 158.732 3.73434V181.217C158.732 182.207 158.339 183.157 157.639 183.857C156.938 184.558 155.988 184.951 154.998 184.951ZM28.7171 0.130801C27.7711 0.132533 26.8646 0.509509 26.1963 1.17898C25.5281 1.84846 25.1528 2.75573 25.1528 3.70164V181.217C25.1528 182.163 25.5281 183.07 26.1963 183.74C26.8646 184.409 27.7711 184.786 28.7171 184.788H154.998C155.944 184.786 156.852 184.409 157.521 183.74C158.19 183.071 158.567 182.163 158.569 181.217V3.70164C158.567 2.75513 158.19 1.84787 157.521 1.17858C156.852 0.509296 155.944 0.132529 154.998 0.130801H28.7171Z" fill="#EBEBEB"/>
<path d="M296.465 184.951H170.178C169.188 184.949 168.239 184.555 167.539 183.856C166.839 183.156 166.445 182.207 166.443 181.217V3.70164C166.454 2.71744 166.851 1.77697 167.55 1.08407C168.25 0.391163 169.193 0.00166658 170.178 0H296.465C297.448 0.00340374 298.389 0.393871 299.086 1.08677C299.782 1.77967 300.178 2.71917 300.186 3.70164V181.217C300.186 182.205 299.795 183.153 299.097 183.853C298.4 184.553 297.453 184.948 296.465 184.951ZM170.178 0.130801C169.231 0.132529 168.324 0.509296 167.655 1.17858C166.985 1.84787 166.609 2.75513 166.607 3.70164V181.217C166.609 182.163 166.985 183.071 167.655 183.74C168.324 184.409 169.231 184.786 170.178 184.788H296.465C297.412 184.786 298.319 184.409 298.988 183.74C299.657 183.071 300.034 182.163 300.036 181.217V3.70164C300.034 2.75513 299.657 1.84787 298.988 1.17858C298.319 0.509296 297.412 0.132529 296.465 0.130801H170.178Z" fill="#EBEBEB"/>
<path d="M197.652 214.12H216.173V121.971H197.652V214.12Z" fill="#E6E6E6"/>
<path d="M201.164 214.119H197.646V204.113H204.853L201.164 214.119Z" fill="#F0F0F0"/>
<path d="M266.871 214.12H285.393V121.971H266.871V214.12Z" fill="#E6E6E6"/>
<path d="M197.652 207.979H269.945V121.971L197.652 121.971V207.979Z" fill="#F0F0F0"/>
<path d="M200.379 178.745V195.467H232.615V178.745H200.379Z" fill="#E6E6E6"/>
<path d="M234.976 178.745V195.467H267.211V178.745H234.976Z" fill="#E6E6E6"/>
<path d="M247.905 181.544H254.281C255.653 181.545 257.01 181.266 258.269 180.724C259.529 180.182 260.664 179.388 261.606 178.392H240.58C241.522 179.388 242.658 180.182 243.917 180.724C245.177 181.266 246.534 181.545 247.905 181.544Z" fill="#F0F0F0"/>
<path d="M212.982 181.544H219.359C220.73 181.545 222.087 181.266 223.346 180.724C224.606 180.182 225.741 179.388 226.683 178.392H205.657C206.599 179.388 207.735 180.182 208.994 180.724C210.254 181.266 211.611 181.545 212.982 181.544Z" fill="#F0F0F0"/>
<path d="M200.372 152.748V169.471H232.608V152.748H200.372Z" fill="#E6E6E6"/>
<path d="M234.976 152.755V169.478H267.211V152.755H234.976Z" fill="#E6E6E6"/>
<path d="M247.905 155.547H254.281C255.652 155.544 257.008 155.262 258.266 154.718C259.525 154.174 260.659 153.379 261.6 152.382H240.58C241.522 153.38 242.657 154.175 243.916 154.719C245.176 155.264 246.533 155.545 247.905 155.547Z" fill="#F0F0F0"/>
<path d="M212.982 155.547H219.359C220.729 155.548 222.085 155.269 223.345 154.728C224.604 154.187 225.74 153.396 226.683 152.401H205.657C206.601 153.396 207.737 154.187 208.996 154.728C210.255 155.269 211.611 155.548 212.982 155.547Z" fill="#F0F0F0"/>
<path d="M200.379 126.758V143.481H232.615V126.758H200.379Z" fill="#E6E6E6"/>
<path d="M234.976 126.758V143.481H267.211V126.758H234.976Z" fill="#E6E6E6"/>
<path d="M247.905 129.558H254.281C255.653 129.558 257.01 129.279 258.269 128.737C259.529 128.195 260.664 127.402 261.606 126.405H240.58C241.522 127.402 242.658 128.195 243.917 128.737C245.177 129.279 246.534 129.558 247.905 129.558Z" fill="#F0F0F0"/>
<path d="M212.982 129.558H219.359C220.73 129.558 222.087 129.279 223.346 128.737C224.606 128.195 225.741 127.402 226.683 126.405H205.657C206.599 127.402 207.735 128.195 208.994 128.737C210.254 129.279 211.611 129.558 212.982 129.558Z" fill="#F0F0F0"/>
<path d="M266.427 214.119H269.945V204.113H262.738L266.427 214.119Z" fill="#F0F0F0"/>
<path d="M269.474 58.7095L272.306 66.4528H269.474L252.098 58.7095H269.474Z" fill="#F5F5F5"/>
<path d="M272.306 58.7095V66.4528L254.936 58.7095H272.306Z" fill="#E6E6E6"/>
<path d="M201.347 58.7095L204.179 66.4528H201.347L183.977 58.7095H201.347Z" fill="#F5F5F5"/>
<path d="M204.179 58.7095V66.4528L186.809 58.7095H204.179Z" fill="#E6E6E6"/>
<path d="M285.059 53.1768H266.165V59.0693H285.059V53.1768Z" fill="#E6E6E6"/>
<path d="M172.231 59.0757L266.165 59.0757V53.1831L172.231 53.1831V59.0757Z" fill="#F5F5F5"/>
<path d="M247.088 32.7002C247.088 32.7002 247.278 53.1835 254.347 53.1835C261.417 53.1835 261.6 32.7002 261.6 32.7002H247.088Z" fill="#F0F0F0"/>
<path d="M203.25 46.4995C203.25 46.4995 203.747 53.1769 222.765 53.1769C241.784 53.1769 242.281 46.4995 242.281 46.4995H203.25Z" fill="#F0F0F0"/>
<path d="M146.731 214.12H147.994L151.61 196.298L152.264 193.172L156.188 173.748H171.348L179.543 214.12H180.811L172.46 173.009C172.432 172.868 172.356 172.742 172.245 172.651C172.134 172.56 171.995 172.511 171.852 172.512H155.685C155.542 172.511 155.404 172.561 155.294 172.652C155.184 172.742 155.109 172.869 155.083 173.009L151.617 190.066L150.963 193.185L146.731 214.12Z" fill="#F0F0F0"/>
<path d="M122.448 214.12H123.71L131.912 173.748H147.032L150.956 193.185L151.61 196.298L155.233 214.12H156.495L152.244 193.192L151.59 190.085L148.124 173.029C148.09 172.891 148.013 172.768 147.903 172.679C147.793 172.589 147.658 172.538 147.516 172.532H131.408C131.265 172.531 131.125 172.58 131.014 172.67C130.903 172.761 130.827 172.888 130.8 173.029L122.448 214.12Z" fill="#F0F0F0"/>
<path d="M173.61 167.803H129.616C128.607 167.805 127.64 168.207 126.926 168.92C126.213 169.633 125.811 170.601 125.81 171.61V171.74C125.81 172.11 125.956 172.464 126.218 172.725C126.479 172.987 126.833 173.133 127.203 173.133H176.024C176.393 173.133 176.747 172.987 177.009 172.725C177.27 172.464 177.417 172.11 177.417 171.74V171.61C177.415 170.601 177.013 169.633 176.3 168.92C175.587 168.207 174.619 167.805 173.61 167.803Z" fill="#F0F0F0"/>
<path d="M102.58 214.12H103.842L107.459 196.298L108.113 193.172L112.037 173.748H127.157L135.378 214.12H136.647L128.295 173.009C128.268 172.868 128.192 172.742 128.081 172.651C127.97 172.56 127.831 172.511 127.687 172.512H111.533C111.391 172.511 111.252 172.561 111.142 172.652C111.032 172.742 110.958 172.869 110.932 173.009L107.465 190.066L106.811 193.185L102.58 214.12Z" fill="#F0F0F0"/>
<path d="M78.2969 214.12H79.5656L87.7603 173.748H102.887L106.811 193.185L107.465 196.298L111.088 214.12H112.351L108.1 193.192L107.446 190.085L103.986 173.009C103.952 172.872 103.875 172.749 103.765 172.659C103.655 172.57 103.519 172.518 103.378 172.512H87.2567C87.1132 172.511 86.9739 172.56 86.8628 172.651C86.7518 172.742 86.6759 172.868 86.6485 173.009L78.2969 214.12Z" fill="#F0F0F0"/>
<path d="M129.492 167.803H85.4645C84.4555 167.805 83.4884 168.207 82.7749 168.92C82.0615 169.633 81.6599 170.601 81.6582 171.61V171.74C81.6582 172.11 81.805 172.464 82.0662 172.725C82.3275 172.987 82.6818 173.133 83.0512 173.133H131.879C132.061 173.133 132.242 173.097 132.411 173.027C132.58 172.957 132.733 172.854 132.862 172.725C132.99 172.595 133.092 172.442 133.162 172.273C133.231 172.104 133.266 171.923 133.265 171.74V171.61C133.264 170.606 132.867 169.644 132.16 168.931C131.454 168.219 130.495 167.814 129.492 167.803Z" fill="#F0F0F0"/>
<path d="M55.1522 116.15L118.361 116.15L118.361 14.8916L55.1522 14.8916L55.1522 116.15Z" fill="#E6E6E6"/>
<path d="M51.0251 116.15L116.432 116.15L116.432 14.8916L51.0251 14.8916L51.0251 116.15Z" fill="#F0F0F0"/>
<path d="M55.1522 123.822L118.361 123.822V116.144L55.1522 116.144V123.822Z" fill="#E6E6E6"/>
<path d="M44.1452 123.822L109.552 123.822V116.144L44.1452 116.144V123.822Z" fill="#F0F0F0"/>
<path d="M110.644 110.369V20.6729L56.7997 20.6729L56.7997 110.369H110.644Z" fill="#FAFAFA"/>
<path d="M111.108 110.362L92.1685 20.6729H76.1455L95.0853 110.362H111.108Z" fill="white"/>
<path d="M106.746 99.65C106.855 99.65 106.96 99.6066 107.037 99.5294C107.115 99.4521 107.158 99.3473 107.158 99.238V24.4335C107.158 24.3242 107.115 24.2194 107.037 24.1422C106.96 24.0649 106.855 24.0215 106.746 24.0215C106.637 24.0215 106.532 24.0649 106.455 24.1422C106.377 24.2194 106.334 24.3242 106.334 24.4335V99.238C106.334 99.3473 106.377 99.4521 106.455 99.5294C106.532 99.6066 106.637 99.65 106.746 99.65Z" fill="#F0F0F0"/>
<path d="M91.6455 110.362L72.7057 20.6729H66.46L85.3933 110.362H91.6455Z" fill="white"/>
<path d="M57.5391 110.369L57.5391 20.6729H56.8066L56.8066 110.369H57.5391Z" fill="#E6E6E6"/>
<path opacity="0.6" d="M49.6514 25.1135H112.86L113.397 22.916H50.1876L49.6514 25.1135Z" fill="#F0F0F0"/>
<path opacity="0.6" d="M49.6514 30.2212H112.86L113.397 28.0303H50.1876L49.6514 30.2212Z" fill="#F0F0F0"/>
<path opacity="0.6" d="M49.6514 35.3356H112.86L113.397 33.1382H50.1876L49.6514 35.3356Z" fill="#F0F0F0"/>
<path opacity="0.6" d="M49.6514 40.4433H112.86L113.397 38.2524H50.1876L49.6514 40.4433Z" fill="#F0F0F0"/>
<path opacity="0.6" d="M49.6514 45.5576H112.86L113.397 43.3667H50.1876L49.6514 45.5576Z" fill="#F0F0F0"/>
<path opacity="0.6" d="M49.6514 50.672H112.86L113.397 48.4746H50.1876L49.6514 50.672Z" fill="#F0F0F0"/>
<path d="M159 135.855H119.048C118.484 135.855 118.027 136.312 118.027 136.876V153.54C118.027 154.103 118.484 154.56 119.048 154.56H159C159.564 154.56 160.021 154.103 160.021 153.54V136.876C160.021 136.312 159.564 135.855 159 135.855Z" fill="#301DA4"/>
<path opacity="0.6" d="M159 135.855H119.048C118.484 135.855 118.027 136.312 118.027 136.876V153.54C118.027 154.103 118.484 154.56 119.048 154.56H159C159.564 154.56 160.021 154.103 160.021 153.54V136.876C160.021 136.312 159.564 135.855 159 135.855Z" fill="white"/>
<path opacity="0.1" d="M158.993 135.855H119.027C118.756 135.855 118.497 135.963 118.306 136.154C118.114 136.346 118.007 136.605 118.007 136.876V142.219L138.804 146.313C138.931 146.339 139.063 146.339 139.19 146.313L159.994 142.219V136.876C159.994 136.608 159.889 136.352 159.702 136.161C159.515 135.97 159.26 135.861 158.993 135.855Z" fill="black"/>
<path d="M159.87 129.015H147.666V126.968C147.665 126.122 147.328 125.311 146.73 124.713C146.131 124.115 145.321 123.778 144.475 123.776H133.573C132.727 123.778 131.916 124.115 131.318 124.713C130.72 125.311 130.383 126.122 130.381 126.968V129.015H118.184C117.917 129.015 117.661 129.121 117.472 129.31C117.283 129.499 117.177 129.755 117.177 130.022V140.1C117.178 140.333 117.259 140.558 117.407 140.738C117.555 140.918 117.76 141.041 117.988 141.088L138.831 145.188C138.959 145.208 139.089 145.208 139.217 145.188L160.06 141.088C160.288 141.041 160.494 140.918 160.643 140.738C160.792 140.559 160.874 140.333 160.877 140.1V130.022C160.877 129.755 160.771 129.499 160.582 129.31C160.393 129.121 160.137 129.015 159.87 129.015ZM132.807 126.968C132.809 126.765 132.89 126.571 133.033 126.426C133.176 126.282 133.37 126.2 133.573 126.196H144.475C144.678 126.2 144.871 126.282 145.014 126.426C145.157 126.571 145.238 126.765 145.24 126.968V129.015H132.814L132.807 126.968Z" fill="#301DA4"/>
<path opacity="0.6" d="M159.87 129.015H147.666V126.968C147.665 126.122 147.328 125.311 146.73 124.713C146.131 124.115 145.321 123.778 144.475 123.776H133.573C132.727 123.778 131.916 124.115 131.318 124.713C130.72 125.311 130.383 126.122 130.381 126.968V129.015H118.184C117.917 129.015 117.661 129.121 117.472 129.31C117.283 129.499 117.177 129.755 117.177 130.022V140.1C117.178 140.333 117.259 140.558 117.407 140.738C117.555 140.918 117.76 141.041 117.988 141.088L138.831 145.188C138.959 145.208 139.089 145.208 139.217 145.188L160.06 141.088C160.288 141.041 160.494 140.918 160.643 140.738C160.792 140.559 160.874 140.333 160.877 140.1V130.022C160.877 129.755 160.771 129.499 160.582 129.31C160.393 129.121 160.137 129.015 159.87 129.015ZM132.807 126.968C132.809 126.765 132.89 126.571 133.033 126.426C133.176 126.282 133.37 126.2 133.573 126.196H144.475C144.678 126.2 144.871 126.282 145.014 126.426C145.157 126.571 145.238 126.765 145.24 126.968V129.015H132.814L132.807 126.968Z" fill="white"/>
<path d="M141.178 142.435H136.875C136.341 142.435 135.907 142.868 135.907 143.403V146.124C135.907 146.658 136.341 147.092 136.875 147.092H141.178C141.713 147.092 142.146 146.658 142.146 146.124V143.403C142.146 142.868 141.713 142.435 141.178 142.435Z" fill="#301DA4"/>
<path opacity="0.3" d="M141.178 142.435H136.875C136.341 142.435 135.907 142.868 135.907 143.403V146.124C135.907 146.658 136.341 147.092 136.875 147.092H141.178C141.713 147.092 142.146 146.658 142.146 146.124V143.403C142.146 142.868 141.713 142.435 141.178 142.435Z" fill="white"/>
<path d="M159 15.5459H119.048C118.484 15.5459 118.027 16.0027 118.027 16.5661V33.2301C118.027 33.7935 118.484 34.2503 119.048 34.2503H159C159.564 34.2503 160.021 33.7935 160.021 33.2301V16.5661C160.021 16.0027 159.564 15.5459 159 15.5459Z" fill="#301DA4"/>
<path opacity="0.6" d="M159 15.5459H119.048C118.484 15.5459 118.027 16.0027 118.027 16.5661V33.2301C118.027 33.7935 118.484 34.2503 119.048 34.2503H159C159.564 34.2503 160.021 33.7935 160.021 33.2301V16.5661C160.021 16.0027 159.564 15.5459 159 15.5459Z" fill="white"/>
<path opacity="0.1" d="M158.993 15.5459H119.027C118.756 15.5459 118.497 15.6534 118.306 15.8447C118.114 16.0361 118.007 16.2956 118.007 16.5661V21.9093L138.804 26.0034C138.931 26.0294 139.063 26.0294 139.19 26.0034L159.994 21.9093V16.5661C159.994 16.2989 159.889 16.0424 159.702 15.8516C159.515 15.6608 159.26 15.551 158.993 15.5459Z" fill="black"/>
<path d="M159.87 8.70485H147.666V6.65783C147.665 5.81192 147.328 5.00115 146.73 4.40299C146.131 3.80484 145.321 3.46804 144.475 3.46631H133.573C132.727 3.46804 131.916 3.80484 131.318 4.40299C130.72 5.00115 130.383 5.81192 130.381 6.65783V8.70485H118.184C117.917 8.70485 117.661 8.81096 117.472 8.99984C117.283 9.18872 117.177 9.44489 117.177 9.71201V19.7901C117.177 20.0232 117.258 20.2489 117.406 20.429C117.553 20.6091 117.759 20.7323 117.988 20.7777L138.831 24.8521C138.958 24.8782 139.089 24.8782 139.217 24.8521L160.06 20.7515C160.286 20.7086 160.49 20.59 160.64 20.4153C160.79 20.2406 160.876 20.0201 160.884 19.7901V9.71201C160.884 9.57919 160.857 9.44769 160.806 9.32507C160.755 9.20244 160.68 9.09113 160.586 8.99752C160.492 8.90391 160.38 8.82985 160.257 8.77963C160.134 8.7294 160.003 8.70398 159.87 8.70485ZM132.807 6.65783C132.807 6.45428 132.888 6.25898 133.031 6.11444C133.174 5.9699 133.369 5.88783 133.573 5.88611H144.475C144.677 5.88782 144.871 5.96898 145.014 6.11211C145.157 6.25524 145.238 6.44888 145.24 6.65129V8.69831H132.814L132.807 6.65783Z" fill="#301DA4"/>
<path opacity="0.6" d="M159.87 8.70485H147.666V6.65783C147.665 5.81192 147.328 5.00115 146.73 4.40299C146.131 3.80484 145.321 3.46804 144.475 3.46631H133.573C132.727 3.46804 131.916 3.80484 131.318 4.40299C130.72 5.00115 130.383 5.81192 130.381 6.65783V8.70485H118.184C117.917 8.70485 117.661 8.81096 117.472 8.99984C117.283 9.18872 117.177 9.44489 117.177 9.71201V19.7901C117.177 20.0232 117.258 20.2489 117.406 20.429C117.553 20.6091 117.759 20.7323 117.988 20.7777L138.831 24.8521C138.958 24.8782 139.089 24.8782 139.217 24.8521L160.06 20.7515C160.286 20.7086 160.49 20.59 160.64 20.4153C160.79 20.2406 160.876 20.0201 160.884 19.7901V9.71201C160.884 9.57919 160.857 9.44769 160.806 9.32507C160.755 9.20244 160.68 9.09113 160.586 8.99752C160.492 8.90391 160.38 8.82985 160.257 8.77963C160.134 8.7294 160.003 8.70398 159.87 8.70485ZM132.807 6.65783C132.807 6.45428 132.888 6.25898 133.031 6.11444C133.174 5.9699 133.369 5.88783 133.573 5.88611H144.475C144.677 5.88782 144.871 5.96898 145.014 6.11211C145.157 6.25524 145.238 6.44888 145.24 6.65129V8.69831H132.814L132.807 6.65783Z" fill="white"/>
<path d="M141.178 22.1313H136.875C136.341 22.1313 135.907 22.5647 135.907 23.0993V25.8199C135.907 26.3545 136.341 26.7878 136.875 26.7878H141.178C141.713 26.7878 142.146 26.3545 142.146 25.8199V23.0993C142.146 22.5647 141.713 22.1313 141.178 22.1313Z" fill="#301DA4"/>
<path opacity="0.3" d="M141.178 22.1313H136.875C136.341 22.1313 135.907 22.5647 135.907 23.0993V25.8199C135.907 26.3545 136.341 26.7878 136.875 26.7878H141.178C141.713 26.7878 142.146 26.3545 142.146 25.8199V23.0993C142.146 22.5647 141.713 22.1313 141.178 22.1313Z" fill="white"/>
<path d="M96.7651 135.855H56.8122C56.2488 135.855 55.792 136.312 55.792 136.876V153.54C55.792 154.103 56.2488 154.56 56.8122 154.56H96.7651C97.3286 154.56 97.7853 154.103 97.7853 153.54V136.876C97.7853 136.312 97.3286 135.855 96.7651 135.855Z" fill="#301DA4"/>
<path opacity="0.6" d="M96.7651 135.855H56.8122C56.2488 135.855 55.792 136.312 55.792 136.876V153.54C55.792 154.103 56.2488 154.56 56.8122 154.56H96.7651C97.3286 154.56 97.7853 154.103 97.7853 153.54V136.876C97.7853 136.312 97.3286 135.855 96.7651 135.855Z" fill="white"/>
<path opacity="0.1" d="M96.7913 135.855H56.8122C56.5417 135.855 56.2821 135.963 56.0908 136.154C55.8995 136.346 55.792 136.605 55.792 136.876V142.219L76.5892 146.313C76.7187 146.339 76.8521 146.339 76.9816 146.313L97.7853 142.219V136.876C97.7854 136.61 97.6815 136.354 97.4958 136.163C97.3101 135.973 97.0573 135.862 96.7913 135.855Z" fill="black"/>
<path d="M97.6287 129.015H85.425V126.968C85.4233 126.122 85.0865 125.311 84.4883 124.713C83.8902 124.115 83.0794 123.778 82.2335 123.776H71.3379C70.492 123.778 69.6812 124.115 69.083 124.713C68.4849 125.311 68.1481 126.122 68.1463 126.968V129.015H55.9427C55.6756 129.015 55.4194 129.121 55.2305 129.31C55.0417 129.499 54.9355 129.755 54.9355 130.022V140.1C54.9369 140.333 55.0182 140.558 55.1658 140.738C55.3135 140.918 55.5185 141.041 55.7465 141.088L76.5895 145.188C76.7195 145.208 76.8518 145.208 76.9819 145.188L97.8249 141.088C98.0529 141.041 98.2579 140.918 98.4056 140.738C98.5532 140.558 98.6345 140.333 98.6358 140.1V130.022C98.6358 129.755 98.5297 129.499 98.3408 129.31C98.152 129.121 97.8958 129.015 97.6287 129.015ZM70.5661 126.968C70.5695 126.764 70.6519 126.57 70.7959 126.426C70.9399 126.282 71.1342 126.2 71.3379 126.196H82.2335C82.4371 126.2 82.6315 126.282 82.7755 126.426C82.9195 126.57 83.0019 126.764 83.0052 126.968V129.015H70.5792L70.5661 126.968Z" fill="#301DA4"/>
<path opacity="0.6" d="M97.6287 129.015H85.425V126.968C85.4233 126.122 85.0865 125.311 84.4883 124.713C83.8902 124.115 83.0794 123.778 82.2335 123.776H71.3379C70.492 123.778 69.6812 124.115 69.083 124.713C68.4849 125.311 68.1481 126.122 68.1463 126.968V129.015H55.9427C55.6756 129.015 55.4194 129.121 55.2305 129.31C55.0417 129.499 54.9355 129.755 54.9355 130.022V140.1C54.9369 140.333 55.0182 140.558 55.1658 140.738C55.3135 140.918 55.5185 141.041 55.7465 141.088L76.5895 145.188C76.7195 145.208 76.8518 145.208 76.9819 145.188L97.8249 141.088C98.0529 141.041 98.2579 140.918 98.4056 140.738C98.5532 140.558 98.6345 140.333 98.6358 140.1V130.022C98.6358 129.755 98.5297 129.499 98.3408 129.31C98.152 129.121 97.8958 129.015 97.6287 129.015ZM70.5661 126.968C70.5695 126.764 70.6519 126.57 70.7959 126.426C70.9399 126.282 71.1342 126.2 71.3379 126.196H82.2335C82.4371 126.2 82.6315 126.282 82.7755 126.426C82.9195 126.57 83.0019 126.764 83.0052 126.968V129.015H70.5792L70.5661 126.968Z" fill="white"/>
<path d="M78.9373 142.435H74.6339C74.0994 142.435 73.666 142.868 73.666 143.403V146.124C73.666 146.658 74.0994 147.092 74.6339 147.092H78.9373C79.4718 147.092 79.9052 146.658 79.9052 146.124V143.403C79.9052 142.868 79.4718 142.435 78.9373 142.435Z" fill="#301DA4"/>
<path opacity="0.3" d="M78.9373 142.435H74.6339C74.0994 142.435 73.666 142.868 73.666 143.403V146.124C73.666 146.658 74.0994 147.092 74.6339 147.092H78.9373C79.4718 147.092 79.9052 146.658 79.9052 146.124V143.403C79.9052 142.868 79.4718 142.435 78.9373 142.435Z" fill="white"/>
<path d="M96.7651 15.5459H56.8122C56.2488 15.5459 55.792 16.0027 55.792 16.5661V33.2301C55.792 33.7935 56.2488 34.2503 56.8122 34.2503H96.7651C97.3286 34.2503 97.7853 33.7935 97.7853 33.2301V16.5661C97.7853 16.0027 97.3286 15.5459 96.7651 15.5459Z" fill="#301DA4"/>
<path opacity="0.6" d="M96.7651 15.5459H56.8122C56.2488 15.5459 55.792 16.0027 55.792 16.5661V33.2301C55.792 33.7935 56.2488 34.2503 56.8122 34.2503H96.7651C97.3286 34.2503 97.7853 33.7935 97.7853 33.2301V16.5661C97.7853 16.0027 97.3286 15.5459 96.7651 15.5459Z" fill="white"/>
<path opacity="0.1" d="M96.7913 15.5459H56.8122C56.5417 15.5459 56.2821 15.6534 56.0908 15.8447C55.8995 16.0361 55.792 16.2956 55.792 16.5661V21.9093L76.5892 26.0034C76.7187 26.0296 76.8521 26.0296 76.9816 26.0034L97.7853 21.9093V16.5661C97.7854 16.3 97.6815 16.0444 97.4958 15.8538C97.3101 15.6632 97.0573 15.5527 96.7913 15.5459Z" fill="black"/>
<path d="M97.6287 8.70485H85.425V6.65783C85.4233 5.81192 85.0865 5.00115 84.4883 4.40299C83.8902 3.80484 83.0794 3.46804 82.2335 3.46631H71.3379C70.492 3.46804 69.6812 3.80484 69.083 4.40299C68.4849 5.00115 68.1481 5.81192 68.1463 6.65783V8.70485H55.9427C55.6756 8.70485 55.4194 8.81096 55.2305 8.99984C55.0417 9.18872 54.9355 9.44489 54.9355 9.71201V19.7901C54.9356 20.0232 55.0165 20.2489 55.1644 20.429C55.3122 20.6091 55.518 20.7323 55.7465 20.7777L76.5895 24.8521C76.719 24.8784 76.8524 24.8784 76.9819 24.8521L97.8249 20.7515C98.0534 20.7061 98.2591 20.5829 98.407 20.4028C98.5549 20.2228 98.6358 19.997 98.6358 19.764V9.71201C98.6358 9.44489 98.5297 9.18872 98.3408 8.99984C98.152 8.81096 97.8958 8.70485 97.6287 8.70485ZM70.5661 6.65783C70.5679 6.45368 70.6497 6.25839 70.7941 6.11403C70.9384 5.96967 71.1337 5.88782 71.3379 5.88611H82.2335C82.4365 5.88779 82.6309 5.96874 82.775 6.11169C82.9192 6.25465 83.0018 6.44828 83.0052 6.65129V8.69831H70.5792L70.5661 6.65783Z" fill="#301DA4"/>
<path opacity="0.6" d="M97.6287 8.70485H85.425V6.65783C85.4233 5.81192 85.0865 5.00115 84.4883 4.40299C83.8902 3.80484 83.0794 3.46804 82.2335 3.46631H71.3379C70.492 3.46804 69.6812 3.80484 69.083 4.40299C68.4849 5.00115 68.1481 5.81192 68.1463 6.65783V8.70485H55.9427C55.6756 8.70485 55.4194 8.81096 55.2305 8.99984C55.0417 9.18872 54.9355 9.44489 54.9355 9.71201V19.7901C54.9356 20.0232 55.0165 20.2489 55.1644 20.429C55.3122 20.6091 55.518 20.7323 55.7465 20.7777L76.5895 24.8521C76.719 24.8784 76.8524 24.8784 76.9819 24.8521L97.8249 20.7515C98.0534 20.7061 98.2591 20.5829 98.407 20.4028C98.5549 20.2228 98.6358 19.997 98.6358 19.764V9.71201C98.6358 9.44489 98.5297 9.18872 98.3408 8.99984C98.152 8.81096 97.8958 8.70485 97.6287 8.70485ZM70.5661 6.65783C70.5679 6.45368 70.6497 6.25839 70.7941 6.11403C70.9384 5.96967 71.1337 5.88782 71.3379 5.88611H82.2335C82.4365 5.88779 82.6309 5.96874 82.775 6.11169C82.9192 6.25465 83.0018 6.44828 83.0052 6.65129V8.69831H70.5792L70.5661 6.65783Z" fill="white"/>
<path d="M78.9373 22.1313H74.6339C74.0994 22.1313 73.666 22.5647 73.666 23.0993V25.8199C73.666 26.3545 74.0994 26.7878 74.6339 26.7878H78.9373C79.4718 26.7878 79.9052 26.3545 79.9052 25.8199V23.0993C79.9052 22.5647 79.4718 22.1313 78.9373 22.1313Z" fill="#301DA4"/>
<path opacity="0.3" d="M78.9373 22.1313H74.6339C74.0994 22.1313 73.666 22.5647 73.666 23.0993V25.8199C73.666 26.3545 74.0994 26.7878 74.6339 26.7878H78.9373C79.4718 26.7878 79.9052 26.3545 79.9052 25.8199V23.0993C79.9052 22.5647 79.4718 22.1313 78.9373 22.1313Z" fill="white"/>
<path d="M91.5599 94.4051H56.8129C56.5406 94.4051 56.2794 94.2969 56.0869 94.1043C55.8943 93.9118 55.7861 93.6506 55.7861 93.3783V76.7209C55.7871 76.5836 55.8161 76.4478 55.8712 76.322C55.8977 76.2633 55.9283 76.2065 55.9627 76.1519C55.9991 76.096 56.0431 76.0454 56.0935 76.0015C56.284 75.8099 56.5427 75.7018 56.8129 75.7007H89.7026C89.429 77.9832 89.3393 80.2839 89.4344 82.5808C89.4344 82.9535 89.4344 83.3263 89.4933 83.6926C89.5391 84.3793 89.5914 85.0725 89.6699 85.7592C90.0065 88.6976 90.6397 91.5943 91.5599 94.4051Z" fill="#301DA4"/>
<path opacity="0.6" d="M91.5599 94.4051H56.8129C56.5406 94.4051 56.2794 94.2969 56.0869 94.1043C55.8943 93.9118 55.7861 93.6506 55.7861 93.3783V76.7209C55.7871 76.5836 55.8161 76.4478 55.8712 76.322C55.8977 76.2633 55.9283 76.2065 55.9627 76.1519C55.9991 76.096 56.0431 76.0454 56.0935 76.0015C56.284 75.8099 56.5427 75.7018 56.8129 75.7007H89.7026C89.429 77.9832 89.3393 80.2839 89.4344 82.5808C89.4344 82.9535 89.4344 83.3263 89.4933 83.6926C89.5391 84.3793 89.5914 85.0725 89.6699 85.7592C90.0065 88.6976 90.6397 91.5943 91.5599 94.4051Z" fill="white"/>
<path opacity="0.1" d="M89.7019 75.7007C89.4283 77.9832 89.3386 80.2839 89.4338 82.5808C89.4338 82.9535 89.4338 83.3263 89.4926 83.6926L79.905 85.5761L76.9751 86.1516C76.8485 86.1843 76.7157 86.1843 76.5892 86.1516L73.6658 85.5826L55.792 82.0641V76.7144C55.7941 76.5799 55.8207 76.4469 55.8705 76.322C55.8971 76.2633 55.9277 76.2065 55.962 76.1519C55.9984 76.096 56.0425 76.0454 56.0928 76.0015C56.2833 75.8099 56.5421 75.7018 56.8122 75.7007H89.7019Z" fill="black"/>
<path d="M91.069 68.8596H85.4316V66.8126C85.4281 65.9661 85.0899 65.1553 84.4907 64.5574C83.8915 63.9594 83.08 63.6228 82.2335 63.6211H71.3379C70.4914 63.6211 69.6796 63.9573 69.0811 64.5559C68.4826 65.1544 68.1463 65.9662 68.1463 66.8126V68.8596H55.9427C55.8104 68.8596 55.6795 68.8857 55.5573 68.9363C55.4351 68.9869 55.3241 69.0611 55.2305 69.1546C55.137 69.2481 55.0628 69.3592 55.0122 69.4814C54.9616 69.6036 54.9355 69.7345 54.9355 69.8668V79.9384C54.9357 80.1731 55.0172 80.4005 55.1663 80.5818C55.3154 80.7631 55.5228 80.887 55.753 80.9325H55.7923L73.6661 84.4575L76.5895 85.0265C76.7168 85.0526 76.848 85.0526 76.9753 85.0265L79.9053 84.451L89.434 82.574C89.3389 80.2772 89.4286 77.9764 89.7022 75.6939C89.9738 73.3829 90.4309 71.0974 91.069 68.8596ZM70.5661 66.8126C70.5696 66.6096 70.6522 66.416 70.7963 66.273C70.9405 66.1301 71.1348 66.0491 71.3379 66.0474H82.2335C82.4359 66.0491 82.6296 66.1303 82.7727 66.2734C82.9158 66.4166 82.997 66.6102 82.9987 66.8126V68.8596H70.5727L70.5661 66.8126Z" fill="#301DA4"/>
<path opacity="0.6" d="M91.069 68.8596H85.4316V66.8126C85.4281 65.9661 85.0899 65.1553 84.4907 64.5574C83.8915 63.9594 83.08 63.6228 82.2335 63.6211H71.3379C70.4914 63.6211 69.6796 63.9573 69.0811 64.5559C68.4826 65.1544 68.1463 65.9662 68.1463 66.8126V68.8596H55.9427C55.8104 68.8596 55.6795 68.8857 55.5573 68.9363C55.4351 68.9869 55.3241 69.0611 55.2305 69.1546C55.137 69.2481 55.0628 69.3592 55.0122 69.4814C54.9616 69.6036 54.9355 69.7345 54.9355 69.8668V79.9384C54.9357 80.1731 55.0172 80.4005 55.1663 80.5818C55.3154 80.7631 55.5228 80.887 55.753 80.9325H55.7923L73.6661 84.4575L76.5895 85.0265C76.7168 85.0526 76.848 85.0526 76.9753 85.0265L79.9053 84.451L89.434 82.574C89.3389 80.2772 89.4286 77.9764 89.7022 75.6939C89.9738 73.3829 90.4309 71.0974 91.069 68.8596ZM70.5661 66.8126C70.5696 66.6096 70.6522 66.416 70.7963 66.273C70.9405 66.1301 71.1348 66.0491 71.3379 66.0474H82.2335C82.4359 66.0491 82.6296 66.1303 82.7727 66.2734C82.9158 66.4166 82.997 66.6102 82.9987 66.8126V68.8596H70.5727L70.5661 66.8126Z" fill="white"/>
<path d="M78.9373 82.2798H74.6339C74.0994 82.2798 73.666 82.7131 73.666 83.2477V85.9683C73.666 86.5029 74.0994 86.9363 74.6339 86.9363H78.9373C79.4718 86.9363 79.9052 86.5029 79.9052 85.9683V83.2477C79.9052 82.7131 79.4718 82.2798 78.9373 82.2798Z" fill="#301DA4"/>
<path opacity="0.3" d="M78.9373 82.2798H74.6339C74.0994 82.2798 73.666 82.7131 73.666 83.2477V85.9683C73.666 86.5029 74.0994 86.9363 74.6339 86.9363H78.9373C79.4718 86.9363 79.9052 86.5029 79.9052 85.9683V83.2477C79.9052 82.7131 79.4718 82.2798 78.9373 82.2798Z" fill="white"/>
<path d="M181.282 154.553H221.235C221.798 154.553 222.255 154.096 222.255 153.533V136.869C222.255 136.306 221.798 135.849 221.235 135.849H181.282C180.718 135.849 180.262 136.306 180.262 136.869V153.533C180.262 154.096 180.718 154.553 181.282 154.553Z" fill="#301DA4"/>
<path opacity="0.6" d="M181.282 154.553H221.235C221.798 154.553 222.255 154.096 222.255 153.533V136.869C222.255 136.306 221.798 135.849 221.235 135.849H181.282C180.718 135.849 180.262 136.306 180.262 136.869V153.533C180.262 154.096 180.718 154.553 181.282 154.553Z" fill="white"/>
<path opacity="0.1" d="M181.289 135.856H221.235C221.505 135.856 221.765 135.963 221.956 136.155C222.148 136.346 222.255 136.605 222.255 136.876V142.219L201.432 146.313C201.304 146.339 201.173 146.339 201.046 146.313L180.242 142.219V136.876C180.242 136.74 180.269 136.605 180.322 136.479C180.375 136.354 180.453 136.24 180.55 136.145C180.648 136.05 180.763 135.976 180.89 135.926C181.017 135.876 181.152 135.852 181.289 135.856Z" fill="black"/>
<path d="M180.418 129.015H192.622V126.968C192.623 126.122 192.96 125.311 193.558 124.713C194.157 124.115 194.967 123.778 195.813 123.776H206.715C207.561 123.778 208.372 124.115 208.97 124.713C209.568 125.311 209.905 126.122 209.907 126.968V129.015H222.104C222.236 129.015 222.367 129.041 222.489 129.092C222.612 129.142 222.723 129.216 222.816 129.31C222.91 129.403 222.984 129.514 223.035 129.637C223.085 129.759 223.111 129.89 223.111 130.022V140.1C223.11 140.333 223.029 140.558 222.881 140.738C222.733 140.918 222.528 141.041 222.3 141.088L201.431 145.188C201.301 145.208 201.169 145.208 201.039 145.188L180.196 141.088C179.968 141.041 179.763 140.918 179.615 140.738C179.467 140.558 179.386 140.333 179.385 140.1V130.022C179.385 129.888 179.412 129.754 179.464 129.631C179.516 129.507 179.593 129.394 179.689 129.3C179.785 129.207 179.899 129.133 180.025 129.084C180.15 129.035 180.284 129.011 180.418 129.015ZM207.481 126.968C207.479 126.765 207.398 126.571 207.255 126.426C207.112 126.282 206.918 126.2 206.715 126.196H195.813C195.61 126.2 195.415 126.282 195.271 126.426C195.127 126.57 195.045 126.764 195.042 126.968V129.015H207.468L207.481 126.968Z" fill="#301DA4"/>
<path opacity="0.6" d="M180.418 129.015H192.622V126.968C192.623 126.122 192.96 125.311 193.558 124.713C194.157 124.115 194.967 123.778 195.813 123.776H206.715C207.561 123.778 208.372 124.115 208.97 124.713C209.568 125.311 209.905 126.122 209.907 126.968V129.015H222.104C222.236 129.015 222.367 129.041 222.489 129.092C222.612 129.142 222.723 129.216 222.816 129.31C222.91 129.403 222.984 129.514 223.035 129.637C223.085 129.759 223.111 129.89 223.111 130.022V140.1C223.11 140.333 223.029 140.558 222.881 140.738C222.733 140.918 222.528 141.041 222.3 141.088L201.431 145.188C201.301 145.208 201.169 145.208 201.039 145.188L180.196 141.088C179.968 141.041 179.763 140.918 179.615 140.738C179.467 140.558 179.386 140.333 179.385 140.1V130.022C179.385 129.888 179.412 129.754 179.464 129.631C179.516 129.507 179.593 129.394 179.689 129.3C179.785 129.207 179.899 129.133 180.025 129.084C180.15 129.035 180.284 129.011 180.418 129.015ZM207.481 126.968C207.479 126.765 207.398 126.571 207.255 126.426C207.112 126.282 206.918 126.2 206.715 126.196H195.813C195.61 126.2 195.415 126.282 195.271 126.426C195.127 126.57 195.045 126.764 195.042 126.968V129.015H207.468L207.481 126.968Z" fill="white"/>
<path d="M199.11 147.091H203.413C203.947 147.091 204.381 146.658 204.381 146.123V143.403C204.381 142.868 203.947 142.435 203.413 142.435H199.11C198.575 142.435 198.142 142.868 198.142 143.403V146.123C198.142 146.658 198.575 147.091 199.11 147.091Z" fill="#301DA4"/>
<path opacity="0.3" d="M199.11 147.091H203.413C203.947 147.091 204.381 146.658 204.381 146.123V143.403C204.381 142.868 203.947 142.435 203.413 142.435H199.11C198.575 142.435 198.142 142.868 198.142 143.403V146.123C198.142 146.658 198.575 147.091 199.11 147.091Z" fill="white"/>
<path d="M181.282 34.2437L221.235 34.2437C221.798 34.2437 222.255 33.7869 222.255 33.2234V16.5595C222.255 15.996 221.798 15.5392 221.235 15.5392L181.282 15.5392C180.718 15.5392 180.262 15.996 180.262 16.5595V33.2234C180.262 33.7869 180.718 34.2437 181.282 34.2437Z" fill="#301DA4"/>
<path opacity="0.6" d="M181.282 34.2437L221.235 34.2437C221.798 34.2437 222.255 33.7869 222.255 33.2234V16.5595C222.255 15.996 221.798 15.5392 221.235 15.5392L181.282 15.5392C180.718 15.5392 180.262 15.996 180.262 16.5595V33.2234C180.262 33.7869 180.718 34.2437 181.282 34.2437Z" fill="white"/>
<path opacity="0.1" d="M181.289 15.5459H221.235C221.506 15.5459 221.765 15.6534 221.957 15.8447C222.148 16.0361 222.255 16.2956 222.255 16.5661V21.9093L201.432 26.0034C201.305 26.0294 201.173 26.0294 201.046 26.0034L180.269 21.9093V16.5661C180.269 16.2956 180.376 16.0361 180.567 15.8447C180.759 15.6534 181.018 15.5459 181.289 15.5459Z" fill="black"/>
<path d="M180.418 8.70491H192.622V6.65789C192.623 5.81198 192.96 5.00121 193.558 4.40305C194.157 3.8049 194.967 3.4681 195.813 3.46637H206.715C207.136 3.46378 207.554 3.54438 207.944 3.70353C208.334 3.86268 208.688 4.09726 208.987 4.39379C209.286 4.69032 209.524 5.04297 209.686 5.43151C209.848 5.82004 209.932 6.23681 209.933 6.65789V8.70491H222.13C222.397 8.70491 222.653 8.81102 222.842 8.9999C223.031 9.18878 223.137 9.44495 223.137 9.71207V19.7902C223.137 20.0232 223.056 20.249 222.909 20.4291C222.761 20.6091 222.555 20.7324 222.326 20.7777L201.431 24.8522C201.302 24.8784 201.168 24.8784 201.039 24.8522L180.196 20.7516C179.967 20.7062 179.761 20.583 179.614 20.4029C179.466 20.2228 179.385 19.9971 179.385 19.764V9.71207C179.385 9.57758 179.412 9.44444 179.464 9.32051C179.516 9.19658 179.593 9.08436 179.689 8.99049C179.785 8.89662 179.899 8.82298 180.025 8.77393C180.15 8.72489 180.284 8.70141 180.418 8.70491ZM207.481 6.65789C207.481 6.45434 207.4 6.25904 207.257 6.1145C207.114 5.96996 206.919 5.88789 206.715 5.88617H195.813C195.61 5.88785 195.416 5.9688 195.272 6.11176C195.128 6.25471 195.045 6.44834 195.042 6.65135V8.69837H207.468L207.481 6.65789Z" fill="#301DA4"/>
<path opacity="0.6" d="M180.418 8.70491H192.622V6.65789C192.623 5.81198 192.96 5.00121 193.558 4.40305C194.157 3.8049 194.967 3.4681 195.813 3.46637H206.715C207.136 3.46378 207.554 3.54438 207.944 3.70353C208.334 3.86268 208.688 4.09726 208.987 4.39379C209.286 4.69032 209.524 5.04297 209.686 5.43151C209.848 5.82004 209.932 6.23681 209.933 6.65789V8.70491H222.13C222.397 8.70491 222.653 8.81102 222.842 8.9999C223.031 9.18878 223.137 9.44495 223.137 9.71207V19.7902C223.137 20.0232 223.056 20.249 222.909 20.4291C222.761 20.6091 222.555 20.7324 222.326 20.7777L201.431 24.8522C201.302 24.8784 201.168 24.8784 201.039 24.8522L180.196 20.7516C179.967 20.7062 179.761 20.583 179.614 20.4029C179.466 20.2228 179.385 19.9971 179.385 19.764V9.71207C179.385 9.57758 179.412 9.44444 179.464 9.32051C179.516 9.19658 179.593 9.08436 179.689 8.99049C179.785 8.89662 179.899 8.82298 180.025 8.77393C180.15 8.72489 180.284 8.70141 180.418 8.70491ZM207.481 6.65789C207.481 6.45434 207.4 6.25904 207.257 6.1145C207.114 5.96996 206.919 5.88789 206.715 5.88617H195.813C195.61 5.88785 195.416 5.9688 195.272 6.11176C195.128 6.25471 195.045 6.44834 195.042 6.65135V8.69837H207.468L207.481 6.65789Z" fill="white"/>
<path d="M199.11 26.7812H203.413C203.947 26.7812 204.381 26.3479 204.381 25.8133V23.0927C204.381 22.5581 203.947 22.1248 203.413 22.1248H199.11C198.575 22.1248 198.142 22.5581 198.142 23.0927V25.8133C198.142 26.3479 198.575 26.7812 199.11 26.7812Z" fill="#301DA4"/>
<path opacity="0.3" d="M199.11 26.7812H203.413C203.947 26.7812 204.381 26.3479 204.381 25.8133V23.0927C204.381 22.5581 203.947 22.1248 203.413 22.1248H199.11C198.575 22.1248 198.142 22.5581 198.142 23.0927V25.8133C198.142 26.3479 198.575 26.7812 199.11 26.7812Z" fill="white"/>
<path d="M186.514 94.4051H221.241C221.512 94.4034 221.772 94.2944 221.963 94.102C222.154 93.9097 222.261 93.6495 222.261 93.3783V76.7209C222.26 76.5836 222.231 76.4478 222.176 76.322C222.152 76.262 222.122 76.205 222.085 76.1519C222.048 76.096 222.004 76.0454 221.954 76.0015C221.86 75.9061 221.748 75.8303 221.625 75.7787C221.501 75.727 221.368 75.7005 221.235 75.7007H188.351C188.625 77.9832 188.715 80.2839 188.62 82.5808C188.62 82.9535 188.62 83.3263 188.561 83.6926C188.521 84.3793 188.463 85.0725 188.384 85.7592C188.054 88.6969 187.427 91.5936 186.514 94.4051Z" fill="#301DA4"/>
<path opacity="0.6" d="M186.514 94.4051H221.241C221.512 94.4034 221.772 94.2944 221.963 94.102C222.154 93.9097 222.261 93.6495 222.261 93.3783V76.7209C222.26 76.5836 222.231 76.4478 222.176 76.322C222.152 76.262 222.122 76.205 222.085 76.1519C222.048 76.096 222.004 76.0454 221.954 76.0015C221.86 75.9061 221.748 75.8303 221.625 75.7787C221.501 75.727 221.368 75.7005 221.235 75.7007H188.351C188.625 77.9832 188.715 80.2839 188.62 82.5808C188.62 82.9535 188.62 83.3263 188.561 83.6926C188.521 84.3793 188.463 85.0725 188.384 85.7592C188.054 88.6969 187.427 91.5936 186.514 94.4051Z" fill="white"/>
<path opacity="0.1" d="M188.352 75.7007C188.625 77.9832 188.715 80.2839 188.62 82.5808C188.62 82.9535 188.62 83.3263 188.561 83.6926L198.162 85.5761L201.091 86.1516C201.218 86.1843 201.351 86.1843 201.477 86.1516L204.401 85.5826L222.275 82.0641V76.7144C222.272 76.5799 222.246 76.4469 222.196 76.322C222.172 76.262 222.141 76.205 222.104 76.1519C222.068 76.096 222.024 76.0454 221.974 76.0015C221.88 75.9061 221.768 75.8303 221.644 75.7787C221.521 75.727 221.388 75.7005 221.254 75.7007H188.352Z" fill="black"/>
<path d="M186.978 68.8596H192.622V66.8126C192.624 65.9667 192.961 65.1559 193.559 64.5578C194.157 63.9596 194.968 63.6228 195.814 63.6211H206.71C207.557 63.6211 208.369 63.9571 208.969 64.5555C209.568 65.1538 209.906 65.9656 209.908 66.8126V68.8596H222.105C222.372 68.8596 222.628 68.9657 222.817 69.1546C223.006 69.3435 223.112 69.5997 223.112 69.8668V79.9384C223.112 80.1722 223.031 80.3989 222.884 80.58C222.736 80.7612 222.53 80.8857 222.301 80.9325H222.255L204.381 84.4575L201.432 85.02C201.304 85.046 201.173 85.046 201.046 85.02L198.116 84.4444L188.587 82.5675C188.773 77.9318 188.221 73.296 186.952 68.8335L186.978 68.8596ZM207.481 66.8126C207.478 66.6096 207.395 66.416 207.251 66.273C207.107 66.1301 206.913 66.0491 206.71 66.0474H195.814C195.611 66.0491 195.418 66.1303 195.275 66.2734C195.132 66.4166 195.05 66.6102 195.049 66.8126V68.8596H207.475L207.481 66.8126Z" fill="#301DA4"/>
<path opacity="0.6" d="M186.978 68.8596H192.622V66.8126C192.624 65.9667 192.961 65.1559 193.559 64.5578C194.157 63.9596 194.968 63.6228 195.814 63.6211H206.71C207.557 63.6211 208.369 63.9571 208.969 64.5555C209.568 65.1538 209.906 65.9656 209.908 66.8126V68.8596H222.105C222.372 68.8596 222.628 68.9657 222.817 69.1546C223.006 69.3435 223.112 69.5997 223.112 69.8668V79.9384C223.112 80.1722 223.031 80.3989 222.884 80.58C222.736 80.7612 222.53 80.8857 222.301 80.9325H222.255L204.381 84.4575L201.432 85.02C201.304 85.046 201.173 85.046 201.046 85.02L198.116 84.4444L188.587 82.5675C188.773 77.9318 188.221 73.296 186.952 68.8335L186.978 68.8596ZM207.481 66.8126C207.478 66.6096 207.395 66.416 207.251 66.273C207.107 66.1301 206.913 66.0491 206.71 66.0474H195.814C195.611 66.0491 195.418 66.1303 195.275 66.2734C195.132 66.4166 195.05 66.6102 195.049 66.8126V68.8596H207.475L207.481 66.8126Z" fill="white"/>
<path d="M199.11 86.9429H203.413C203.947 86.9429 204.381 86.5095 204.381 85.975V83.2543C204.381 82.7197 203.947 82.2864 203.413 82.2864H199.11C198.575 82.2864 198.142 82.7197 198.142 83.2543V85.975C198.142 86.5095 198.575 86.9429 199.11 86.9429Z" fill="#301DA4"/>
<path opacity="0.3" d="M199.11 86.9429H203.413C203.947 86.9429 204.381 86.5095 204.381 85.975V83.2543C204.381 82.7197 203.947 82.2864 203.413 82.2864H199.11C198.575 82.2864 198.142 82.7197 198.142 83.2543V85.975C198.142 86.5095 198.575 86.9429 199.11 86.9429Z" fill="white"/>
<path d="M169.844 71.6392H112.436C111.627 71.6392 110.971 72.295 110.971 73.1041V97.0471C110.971 97.8561 111.627 98.512 112.436 98.512H169.844C170.653 98.512 171.309 97.8561 171.309 97.0471V73.1041C171.309 72.295 170.653 71.6392 169.844 71.6392Z" fill="#301DA4"/>
<path d="M148.967 67.3623H133.304C132.117 67.3605 130.978 66.888 130.138 66.0482C129.298 65.2085 128.826 64.07 128.824 62.8824V58.8603C128.826 57.6727 129.298 56.5342 130.138 55.6944C130.978 54.8546 132.117 54.3821 133.304 54.3804H148.967C150.156 54.3804 151.295 54.8524 152.135 55.6925C152.975 56.5326 153.447 57.6721 153.447 58.8603V62.8628C153.45 63.4527 153.336 64.0374 153.112 64.5832C152.888 65.129 152.558 65.6251 152.142 66.0432C151.726 66.4613 151.231 66.793 150.686 67.0194C150.142 67.2458 149.557 67.3623 148.967 67.3623ZM133.304 57.67C132.989 57.6734 132.687 57.7996 132.464 58.022C132.24 58.2443 132.112 58.5451 132.107 58.8603V62.8628C132.107 63.1836 132.235 63.4914 132.462 63.7183C132.689 63.9452 132.996 64.0727 133.317 64.0727H148.981C149.301 64.0727 149.609 63.9452 149.836 63.7183C150.063 63.4914 150.19 63.1836 150.19 62.8628V58.8603C150.19 58.5394 150.063 58.2316 149.836 58.0047C149.609 57.7778 149.301 57.6504 148.981 57.6504L133.304 57.67Z" fill="#301DA4"/>
<path opacity="0.2" d="M169.837 71.6392H112.442C112.249 71.6383 112.058 71.6756 111.88 71.7488C111.701 71.822 111.539 71.9298 111.402 72.0659C111.265 72.2021 111.157 72.3638 111.083 72.542C111.009 72.7202 110.971 72.9112 110.971 73.1041V80.7886L140.859 86.6746C141.042 86.7145 141.231 86.7145 141.414 86.6746L171.309 80.7886V73.1041C171.309 72.9112 171.271 72.7202 171.197 72.542C171.123 72.3638 171.014 72.2021 170.877 72.0659C170.741 71.9298 170.578 71.822 170.4 71.7488C170.221 71.6756 170.03 71.6383 169.837 71.6392Z" fill="black"/>
<path d="M171.347 79.1343L141.4 85.0203C141.214 85.0531 141.024 85.0531 140.838 85.0203L110.891 79.1343C110.562 79.0694 110.266 78.8925 110.053 78.6338C109.839 78.3751 109.722 78.0505 109.721 77.7151V63.2617C109.721 63.0719 109.758 62.884 109.831 62.7086C109.903 62.5333 110.01 62.3739 110.144 62.2397C110.278 62.1055 110.438 61.9991 110.613 61.9264C110.788 61.8538 110.976 61.8164 111.166 61.8164H171.086C171.275 61.8164 171.463 61.8538 171.639 61.9264C171.814 61.9991 171.973 62.1055 172.108 62.2397C172.242 62.3739 172.348 62.5333 172.421 62.7086C172.493 62.884 172.531 63.0719 172.531 63.2617V77.7413C172.524 78.0743 172.403 78.3949 172.187 78.6487C171.971 78.9026 171.675 79.0741 171.347 79.1343Z" fill="#301DA4"/>
<path d="M144.239 81.1025H138.046C137.28 81.1025 136.659 81.7233 136.659 82.489V86.4065C136.659 87.1722 137.28 87.793 138.046 87.793H144.239C145.005 87.793 145.626 87.1722 145.626 86.4065V82.489C145.626 81.7233 145.005 81.1025 144.239 81.1025Z" fill="#301DA4"/>
<path opacity="0.4" d="M144.239 81.1025H138.046C137.28 81.1025 136.659 81.7233 136.659 82.489V86.4065C136.659 87.1722 137.28 87.793 138.046 87.793H144.239C145.005 87.793 145.626 87.1722 145.626 86.4065V82.489C145.626 81.7233 145.005 81.1025 144.239 81.1025Z" fill="black"/>
<path d="M249.108 86.4658C249.86 88.0158 250.416 89.4808 251.07 91.0111C251.724 92.5415 252.201 94.0653 252.711 95.6284C253.746 98.7975 254.509 102.049 254.994 105.347C255.059 105.759 255.092 106.204 255.138 106.655L255.203 107.309C255.203 107.427 255.203 107.512 255.203 107.649V108.074C255.225 109.066 255.14 110.057 254.948 111.03C254.624 112.722 254.162 114.384 253.568 116C252.451 119.074 251.059 122.04 249.409 124.862L246.086 123.456C246.825 120.474 247.571 117.433 248.133 114.496C248.408 113.089 248.603 111.668 248.715 110.239C248.754 109.654 248.741 109.068 248.676 108.486L248.604 108.074L248.513 107.551C248.441 107.204 248.395 106.858 248.31 106.504C247.658 103.618 246.815 100.777 245.786 98.0024C245.288 96.5832 244.739 95.1706 244.19 93.7514C243.64 92.3322 243.032 90.9065 242.47 89.5985L249.108 86.4658Z" fill="#7F3E3B"/>
<path d="M246.229 122.586L243.679 125.071L249.244 127.687C249.244 127.687 250.591 125.333 249.663 123.201L246.229 122.586Z" fill="#7F3E3B"/>
<path d="M241.626 128.779L246.322 130.702L249.245 127.661L243.68 125.071L241.626 128.779Z" fill="#7F3E3B"/>
<path opacity="0.2" d="M146.37 126.098C155.625 125.061 164.364 121.304 171.483 115.301C178.602 109.298 183.782 101.319 186.367 92.373C188.952 83.4267 188.826 73.9148 186.005 65.04C183.185 56.1652 177.796 48.326 170.52 42.5134C163.245 36.7009 154.409 33.1761 145.131 32.3847C135.852 31.5933 126.547 33.5709 118.393 38.0673C110.238 42.5637 103.599 49.3771 99.3166 57.6461C95.0338 65.915 93.2989 75.2682 94.3314 84.523C95.0171 90.6703 96.9073 96.6222 99.8939 102.039C102.881 107.455 106.905 112.231 111.738 116.091C116.57 119.952 122.116 122.823 128.058 124.54C134.001 126.257 140.223 126.786 146.37 126.098Z" fill="#301DA4"/>
<path opacity="0.1" d="M112.107 42.2093L183.72 99.4081C184.028 98.7541 184.316 98.1001 184.597 97.4461C186.392 93.1759 187.538 88.6614 187.998 84.0522L126.142 34.6621C121.066 36.355 116.319 38.9079 112.107 42.2093Z" fill="white"/>
<path opacity="0.1" d="M95.5869 67.2775L162.91 121.069C169.307 117.733 174.851 112.971 179.116 107.152L105.593 48.3965C100.855 53.8402 97.4313 60.3002 95.5869 67.2775Z" fill="white"/>
<path d="M257.132 132.187C257.046 130.997 256.656 129.848 256 128.851C255.524 128.118 254.857 127.528 254.071 127.144L249.604 124.953C246.635 123.482 243.646 122.05 240.658 120.617C237.669 119.185 234.66 117.779 231.665 116.36C228.67 114.941 225.648 113.561 222.62 112.207C216.577 109.469 210.495 106.805 204.374 104.215C201.313 102.907 198.246 101.651 195.152 100.422C194.249 100.066 193.515 99.3806 193.098 98.5039C192.682 97.6272 192.614 96.6249 192.909 95.7001C197.05 82.645 196.107 68.5077 190.269 56.1182C184.431 43.7287 174.129 34.0013 161.426 28.8832C148.722 23.7651 134.554 23.634 121.758 28.5162C108.961 33.3984 98.4812 42.9335 92.4152 55.2129C86.3492 67.4923 85.1448 81.6097 89.0433 94.7391C92.9418 107.869 101.655 119.041 113.44 126.02C125.224 132.999 139.21 135.27 152.597 132.378C165.984 129.485 177.785 121.643 185.637 110.422C186.192 109.624 187.031 109.067 187.981 108.865C188.932 108.662 189.925 108.828 190.757 109.329C193.618 111.03 196.491 112.702 199.377 114.346C205.145 117.633 210.957 120.838 216.813 123.959C219.736 125.542 222.699 127.066 225.609 128.616C228.519 130.166 231.495 131.677 234.458 133.194C237.42 134.711 240.344 136.196 243.346 137.661L247.799 139.871C248.582 140.265 249.457 140.437 250.33 140.368C251.519 140.284 252.665 139.894 253.659 139.237C254.844 138.509 255.799 137.461 256.414 136.213C257.028 134.966 257.277 133.57 257.132 132.187ZM122.166 117.72C114.563 113.969 108.244 108.047 104.007 100.704C99.7699 93.3604 97.8057 84.9257 98.3627 76.4661C98.9196 68.0065 101.973 59.9021 107.136 53.1777C112.299 46.4534 119.34 41.4113 127.369 38.6889C135.398 35.9666 144.054 35.6863 152.242 37.8836C160.431 40.0809 167.783 44.657 173.371 51.0333C178.958 57.4095 182.529 65.2995 183.632 73.7053C184.735 82.1111 183.321 90.6553 179.568 98.2572C177.077 103.304 173.616 107.812 169.383 111.521C165.15 115.231 160.228 118.071 154.898 119.878C149.568 121.685 143.934 122.425 138.317 122.055C132.701 121.684 127.213 120.212 122.166 117.72Z" fill="#301DA4"/>
<path d="M224.445 66.2503C224.445 66.6361 224.242 66.95 223.987 66.95C223.732 66.95 223.529 66.6361 223.529 66.2503C223.529 65.8644 223.732 65.5439 223.987 65.5439C224.242 65.5439 224.445 65.8579 224.445 66.2503Z" fill="#263238"/>
<path d="M224.275 66.9502C223.815 68.1349 223.195 69.2506 222.431 70.266C222.695 70.4552 222.998 70.5843 223.318 70.6442C223.637 70.7041 223.966 70.6933 224.281 70.6126L224.275 66.9502Z" fill="#630F0F"/>
<path d="M225.818 64.0923C225.866 64.091 225.912 64.0749 225.95 64.0463C225.988 64.0177 226.016 63.978 226.03 63.9328C226.044 63.8875 226.044 63.8389 226.03 63.7936C226.015 63.7484 225.987 63.7088 225.949 63.6803C225.66 63.4637 225.324 63.3187 224.968 63.2573C224.612 63.196 224.247 63.2199 223.902 63.3271C223.871 63.3355 223.842 63.3503 223.818 63.3706C223.793 63.3908 223.773 63.416 223.758 63.4446C223.744 63.4731 223.735 63.5044 223.734 63.5364C223.732 63.5683 223.737 63.6003 223.749 63.6302C223.76 63.66 223.778 63.6872 223.8 63.7098C223.823 63.7324 223.85 63.7501 223.88 63.7616C223.91 63.7731 223.942 63.7782 223.974 63.7766C224.006 63.775 224.037 63.7667 224.066 63.7522C224.34 63.6706 224.63 63.6547 224.912 63.7058C225.193 63.7569 225.459 63.8736 225.688 64.0465C225.724 64.0767 225.771 64.0929 225.818 64.0923Z" fill="#263238"/>
<path d="M237.676 69.1675C236.982 72.686 236.296 79.1279 238.755 81.4692C238.755 81.4692 237.793 85.0335 231.266 85.0335C224.072 85.0335 227.833 81.4692 227.833 81.4692C231.757 80.534 231.652 77.6237 230.966 74.9292L237.676 69.1675Z" fill="#7F3E3B"/>
<path d="M240.016 79.265C240.559 79.4416 239.853 82.6723 239.853 82.6723C239.853 82.6723 238.957 84.9286 227.826 84.1438C226.969 84.0784 227.296 80.9785 228.114 80.5272C230.749 79.0884 238.264 78.6895 240.016 79.265Z" fill="#263238"/>
<path d="M262.625 214.388C263.227 214.329 264.104 213.224 264.352 212.818C264.363 212.801 264.369 212.78 264.369 212.76C264.369 212.739 264.363 212.718 264.352 212.701C264.341 212.681 264.325 212.666 264.305 212.656C264.285 212.647 264.263 212.644 264.241 212.648C264.175 212.648 262.593 212.949 262.207 213.564C262.166 213.628 262.139 213.701 262.128 213.776C262.117 213.852 262.121 213.929 262.142 214.002C262.227 214.29 262.39 214.368 262.521 214.388H262.625ZM264.005 212.93C263.58 213.518 262.881 214.205 262.547 214.159C262.514 214.159 262.416 214.159 262.357 213.937C262.345 213.894 262.341 213.849 262.348 213.805C262.355 213.761 262.372 213.719 262.397 213.682C262.847 213.278 263.407 213.017 264.005 212.93Z" fill="#301DA4"/>
<path d="M263.94 212.93C264.057 212.92 264.173 212.9 264.287 212.871C264.306 212.865 264.324 212.854 264.337 212.839C264.351 212.824 264.361 212.806 264.365 212.786C264.369 212.766 264.368 212.745 264.361 212.725C264.354 212.705 264.342 212.688 264.326 212.675C264.287 212.635 263.227 211.733 262.508 211.805C262.421 211.811 262.337 211.834 262.26 211.875C262.184 211.916 262.117 211.972 262.063 212.04C262.002 212.1 261.963 212.179 261.955 212.264C261.946 212.349 261.969 212.434 262.017 212.505C262.253 212.877 263.286 212.995 263.94 212.93ZM263.993 212.701C263.339 212.779 262.384 212.649 262.201 212.38C262.201 212.38 262.148 212.295 262.24 212.178C262.277 212.134 262.322 212.099 262.372 212.073C262.423 212.047 262.478 212.032 262.534 212.027C263.076 212.102 263.584 212.337 263.993 212.701Z" fill="#301DA4"/>
<path d="M217.663 231.588C218.158 231.586 218.653 231.543 219.141 231.457C219.163 231.451 219.183 231.44 219.199 231.424C219.215 231.408 219.226 231.388 219.232 231.366C219.236 231.343 219.233 231.319 219.222 231.297C219.212 231.276 219.195 231.259 219.174 231.248C219.102 231.202 217.427 230.248 216.623 230.463C216.472 230.502 216.343 230.598 216.263 230.731C216.212 230.804 216.185 230.891 216.185 230.98C216.185 231.069 216.212 231.156 216.263 231.229C216.473 231.516 217.048 231.588 217.663 231.588ZM218.775 231.287C217.879 231.412 216.662 231.405 216.44 231.098C216.407 231.058 216.381 230.987 216.44 230.843C216.464 230.802 216.496 230.768 216.534 230.74C216.573 230.713 216.616 230.695 216.662 230.686C217.179 230.548 218.186 230.987 218.775 231.287Z" fill="#301DA4"/>
<path d="M219.088 231.457C219.112 231.464 219.137 231.464 219.16 231.457C219.175 231.445 219.187 231.428 219.195 231.41C219.203 231.392 219.207 231.373 219.206 231.353C219.206 231.3 219.069 230.006 218.461 229.502C218.37 229.427 218.266 229.371 218.154 229.337C218.041 229.303 217.923 229.293 217.807 229.306C217.493 229.338 217.408 229.495 217.381 229.626C217.296 230.169 218.447 231.209 219.023 231.47L219.088 231.457ZM217.918 229.495C218.064 229.5 218.204 229.553 218.317 229.646C218.68 230.061 218.908 230.576 218.971 231.124C218.375 230.771 217.597 229.953 217.663 229.626C217.663 229.626 217.663 229.522 217.885 229.502L217.918 229.495Z" fill="#301DA4"/>
<path d="M224.4 231.346H219.599L219.115 220.215H223.922L224.4 231.346Z" fill="#7F3E3B"/>
<path d="M268.55 209.3L264.803 212.302L255.268 205.683L259.022 202.682L268.55 209.3Z" fill="#7F3E3B"/>
<path d="M264.117 212.112L267.949 208.312C268.018 208.246 268.107 208.205 268.202 208.195C268.297 208.186 268.392 208.209 268.473 208.26L272.155 210.627C272.244 210.685 272.319 210.762 272.374 210.854C272.429 210.945 272.462 211.047 272.472 211.153C272.481 211.259 272.466 211.365 272.428 211.465C272.39 211.564 272.33 211.653 272.253 211.726C270.892 213.034 270.166 213.597 268.479 215.264C267.446 216.298 264.915 219.371 263.483 220.791C262.05 222.21 260.455 220.98 260.919 220.267C262.979 217.089 263.679 214.466 263.77 212.871C263.79 212.584 263.913 212.314 264.117 212.112Z" fill="#263238"/>
<path d="M219.625 230.791H224.857C224.952 230.79 225.044 230.822 225.118 230.882C225.192 230.941 225.243 231.025 225.262 231.118L226.211 235.388C226.235 235.491 226.235 235.597 226.211 235.7C226.188 235.803 226.141 235.899 226.075 235.981C226.009 236.063 225.925 236.129 225.829 236.173C225.734 236.218 225.629 236.24 225.524 236.238C223.627 236.238 220.894 236.101 218.513 236.101C215.734 236.101 213.333 236.251 210.07 236.251C208.108 236.251 207.552 234.257 208.376 234.074C212.137 233.256 215.204 233.165 218.448 231.163C218.798 230.932 219.206 230.803 219.625 230.791Z" fill="#263238"/>
<path d="M248.224 82.9077C252.39 84.8697 254.11 98.3159 254.11 98.3159L244.529 102.076C243.042 98.4357 241.837 94.6859 240.926 90.8603C239.585 84.7912 243.941 80.8672 248.224 82.9077Z" fill="#301DA4"/>
<path opacity="0.3" d="M248.224 82.9077C252.39 84.8697 254.11 98.3159 254.11 98.3159L244.529 102.076C243.042 98.4357 241.837 94.6859 240.926 90.8603C239.585 84.7912 243.941 80.8672 248.224 82.9077Z" fill="white"/>
<path opacity="0.2" d="M242.018 86.8513C241.692 86.6927 241.35 86.5678 240.998 86.4785C240.616 87.9125 240.602 89.4198 240.959 90.8603C241.867 94.6862 243.069 98.4362 244.556 102.076L247.715 100.84C247.133 97.3284 245.347 88.4471 242.018 86.8513Z" fill="black"/>
<path d="M220.443 82.8032C220.443 82.8032 215.328 88.5781 220.155 124.332H245.857C246.034 120.408 243.555 101.141 247.361 82.5547C244.519 82.008 241.644 81.6454 238.755 81.4691C235.117 81.2597 231.471 81.2597 227.833 81.4691C225.339 81.7204 222.868 82.1665 220.443 82.8032Z" fill="#301DA4"/>
<path opacity="0.3" d="M220.443 82.8032C220.443 82.8032 215.328 88.5781 220.155 124.332H245.857C246.034 120.408 243.555 101.141 247.361 82.5547C244.519 82.008 241.644 81.6454 238.755 81.4691C235.117 81.2597 231.471 81.2597 227.833 81.4691C225.339 81.7204 222.868 82.1665 220.443 82.8032Z" fill="white"/>
<path opacity="0.2" d="M225.629 90.4681C224.465 86.9757 221.666 85.8574 218.814 87.9306C218.239 91.3183 217.833 96.7792 218.298 105.438L223.314 105.392C223.314 105.392 227.349 95.6674 225.629 90.4681Z" fill="black"/>
<path d="M224.687 89.0356C224.477 90.7883 224.19 92.3775 223.869 94.0322C223.549 95.6868 223.176 97.3022 222.751 98.9306C221.911 102.259 220.769 105.503 219.337 108.623C218.964 109.427 218.533 110.219 218.075 111.01C217.839 111.409 217.604 111.808 217.336 112.2C216.988 112.746 216.578 113.248 216.113 113.698C215.21 114.535 214.14 115.17 212.974 115.562C212.026 115.894 211.046 116.124 210.05 116.249C208.273 116.469 206.476 116.491 204.694 116.314C203.822 116.244 202.972 116.133 202.143 115.98C201.293 115.83 200.489 115.673 199.612 115.444L200.037 111.86C203.022 111.735 205.986 111.296 208.879 110.552C209.468 110.378 210.039 110.15 210.586 109.872C210.946 109.707 211.26 109.458 211.502 109.146C211.45 109.192 211.927 108.401 212.208 107.838C212.49 107.276 212.803 106.53 213.072 105.876C213.621 104.529 214.092 103.103 214.523 101.645C214.955 100.186 215.334 98.7017 215.688 97.1975C216.041 95.6933 216.342 94.176 216.669 92.6195C216.996 91.063 217.231 89.5196 217.466 88.0742L224.687 89.0356Z" fill="#7F3E3B"/>
<path d="M226.864 86.3281C228.218 90.7165 222.725 103.796 222.725 103.796L211.155 100.886C211.864 96.7518 213.055 92.7151 214.706 88.8591C218.434 80.6972 225.236 81.0373 226.864 86.3281Z" fill="#301DA4"/>
<path opacity="0.3" d="M226.864 86.3281C228.218 90.7165 222.725 103.796 222.725 103.796L211.155 100.886C211.864 96.7518 213.055 92.7151 214.706 88.8591C218.434 80.6972 225.236 81.0373 226.864 86.3281Z" fill="white"/>
<path d="M200.201 111.88L194.76 111.743L197.376 117.4C197.376 117.4 199.586 117.694 201.404 114.705L203.321 112.423L201.117 111.978C200.815 111.919 200.508 111.886 200.201 111.88Z" fill="#7F3E3B"/>
<path d="M191.326 112.796L194.446 117.485L197.382 117.4L194.76 111.743L191.326 112.796Z" fill="#7F3E3B"/>
<path opacity="0.2" d="M219.121 220.222L219.363 225.957H224.17L223.921 220.222H219.121Z" fill="black"/>
<path opacity="0.2" d="M259.022 202.682L255.268 205.683L260.186 209.097L263.94 206.096L259.022 202.682Z" fill="black"/>
<path d="M237.401 65.4004C237.113 70.1615 237.192 72.9606 234.785 75.4066C231.175 79.082 225.296 76.9108 224.158 72.1366C223.131 67.8594 223.778 60.7962 228.435 58.8931C229.462 58.4683 230.58 58.3139 231.684 58.4445C232.787 58.575 233.839 58.9863 234.738 59.639C235.637 60.2916 236.354 61.1639 236.82 62.1725C237.287 63.1812 237.487 64.2925 237.401 65.4004Z" fill="#7F3E3B"/>
<path d="M241.246 60.9792C241.246 60.9792 243.751 61.7248 242.966 64.5827C241.782 68.9253 238.996 73.9219 235.399 74.2358C230.919 74.6347 228.898 70.011 228.31 65.2302C225.628 63.3925 223.64 61.6725 224.281 59.7628C225.262 56.8198 228.82 54.2822 234.484 54.9362C240.147 55.5902 242.966 59.2527 241.246 60.9792Z" fill="#263238"/>
<path d="M231.037 66.2114C230.95 67.3923 230.476 68.5116 229.69 69.3964C228.643 70.5475 227.544 69.8281 227.361 68.4285C227.198 67.1597 227.538 65.0342 228.82 64.3999C230.102 63.7655 231.122 64.7857 231.037 66.2114Z" fill="#7F3E3B"/>
<path d="M229.272 124.332C229.272 124.332 227.65 156.718 230.809 170.439C235.812 192.165 257.806 209.574 257.806 209.574L264.869 203.917C264.869 203.917 246.773 190.451 245.144 172.362C243.686 156.116 245.844 137.458 245.844 124.332H229.272Z" fill="#301DA4"/>
<path opacity="0.2" d="M229.272 124.332C229.272 124.332 227.65 156.718 230.809 170.439C235.812 192.165 257.806 209.574 257.806 209.574L264.869 203.917C264.869 203.917 246.773 190.451 245.144 172.362C243.686 156.116 245.844 137.458 245.844 124.332H229.272Z" fill="black"/>
<path opacity="0.2" d="M231.685 133.927C231.031 132.664 229.756 136.425 228.866 141.251C228.866 147.909 228.984 155.482 229.566 161.898C234.007 153.69 233.065 136.543 231.685 133.927Z" fill="black"/>
<path d="M254.601 208.181L257.282 210.261L265.437 203.649L262.991 201.432L254.601 208.181Z" fill="#2C6BDB"/>
<path opacity="0.4" d="M254.601 208.181L257.282 210.261L265.437 203.649L262.991 201.432L254.601 208.181Z" fill="#FAFAFA"/>
<path d="M220.155 124.332C220.155 124.332 212.922 155.005 212.412 169.654C211.843 186.089 217.572 224.845 217.572 224.845H225.714C225.714 224.845 226.715 185.788 227.081 170.818C227.473 154.501 237.048 124.332 237.048 124.332H220.155Z" fill="#301DA4"/>
<path opacity="0.2" d="M220.155 124.332C220.155 124.332 212.922 155.005 212.412 169.654C211.843 186.089 217.572 224.845 217.572 224.845H225.714C225.714 224.845 226.715 185.788 227.081 170.818C227.473 154.501 237.048 124.332 237.048 124.332H220.155Z" fill="black"/>
<path d="M216.008 221.602C215.969 221.602 216.466 224.983 216.466 224.983H226.367L226.636 221.968L216.008 221.602Z" fill="#2C6BDB"/>
<path opacity="0.4" d="M216.008 221.602C215.969 221.602 216.466 224.983 216.466 224.983H226.367L226.636 221.968L216.008 221.602Z" fill="#FAFAFA"/>
</svg>
