<?xml version="1.0" standalone="no"?><!DOCTYPE svg PUBLIC "-//W3C//DTD SVG 1.1//EN" "http://www.w3.org/Graphics/SVG/1.1/DTD/svg11.dtd"><svg t="1767027551881" class="icon" viewBox="0 0 1024 1024" version="1.1" xmlns="http://www.w3.org/2000/svg" p-id="9258" xmlns:xlink="http://www.w3.org/1999/xlink" width="200" height="200"><path d="M330.036203 750.133585l-116.532063 1.12973c-7.421017 0.055259-13.497409-6.021134-13.44522-13.495362l1.12973-116.478851c0.054235-8.146541 3.334955-15.917528 9.087982-21.672602l317.438793-317.478701c5.188162-5.174859 13.603833-5.174859 18.848277 0L669.174204 404.771837c5.188162 5.231141 5.188162 13.659091 0 18.835997L351.788623 740.991368a30.989805 30.989805 0 0 1-21.75242 9.142217M799.472805 293.323559l-64.20837 64.20837c-5.483898 5.498224-14.358009 5.498224-19.87056 0L593.806679 235.94371a14.019295 14.019295 0 0 1 0-19.882839l64.208371-64.208371c5.458315-5.445012 14.331403-5.445012 19.815301 0L799.471782 273.493931c5.51255 5.456269 5.51255 14.316054 0.001023 19.829628M144.455531 571.948347a30.934546 30.934546 0 0 0-9.087982 21.698185l-1.827625 192.679347c-0.160659 17.476023 14.008039 31.565926 31.404244 31.459503l192.733582-1.830695c8.145517-0.052189 15.97074-3.305279 21.697162-9.086959l501.487575-501.485529c12.17939-12.113899 12.17939-31.836079 0-43.947931L689.876712 70.461795c-12.152784-12.111852-31.807427-12.111852-43.987841 0L144.455531 571.948347zM912.428414 958.743764H148.542616c-8.468882 0-15.35164-6.883781-15.351639-15.378246v-35.329646c0-8.498558 6.882757-15.380292 15.351639-15.380292h763.886821c8.468882 0 15.353686 6.882757 15.353686 15.380292v35.329646c-0.001023 8.495488-6.884804 15.378246-15.354709 15.378246M913.638985 817.731146H654.385383c-7.798617 0-14.089903-6.317892-14.089903-14.089903v-37.830607c0-7.824199 6.290263-14.144138 14.089903-14.144138h259.253602a14.127765 14.127765 0 0 1 14.143115 14.144138v37.830607c0 7.772011-6.318916 14.089903-14.143115 14.089903" p-id="9259"></path></svg>